<svg xmlns="http://www.w3.org/2000/svg" width="360" height="125" fill="none"><rect width="360" height="125" fill="#fff" rx="20"/><path fill="#EAE6DF" d="M292.735 9.051a6.17 6.17 0 0 0-1.47-1.375 7.9 7.9 0 0 0-1.768-.873 11.308 11.308 0 0 0-1.845-.474 14.742 14.742 0 0 0-3.584-.162 14.91 14.91 0 0 0-3.097.594c-.229.07-.452.134-.664.219-.106.039-.209.074-.311.113-.05.017-.103.039-.152.056-.05.022-.096.043-.149.064-.19.081-.378.159-.555.237l-.501.244a4.862 4.862 0 0 0-.227.12c-.074.039-.145.081-.215.117-.138.077-.272.144-.386.222-.12.074-.229.142-.332.202-.099.063-.191.12-.268.176l-.492.343.52-.297c.081-.05.177-.099.283-.152l.342-.173c.121-.067.258-.12.403-.187l.22-.1c.074-.03.152-.066.233-.098a14.987 14.987 0 0 1 5.376-1.089c1.089-.01 2.241.106 3.386.371 1.142.269 2.273.693 3.189 1.372.459.34.852.739 1.166 1.187.318.446.541.937.654 1.436a2.971 2.971 0 0 1 0 1.453c-.06.233-.141.452-.24.657a2.653 2.653 0 0 1-.368.555c-.067.085-.145.155-.215.23-.043.031-.082.067-.121.098-.035.036-.077.057-.116.089l-.06.042-.064.036c-.042.024-.081.053-.124.07-.042.021-.085.04-.123.057-.043.021-.085.032-.128.05l-.063.02c-.021.008-.043.011-.064.018-.046.01-.088.021-.131.032-.088.01-.173.032-.261.032a2.148 2.148 0 0 1-1.343-.325 1.626 1.626 0 0 1-.524-.516c-.226-.364-.247-.792-.187-1.128.057-.343.187-.608.311-.799.127-.194.251-.322.354-.417.109-.099.187-.166.24-.216.117-.11.131-.187.113-.272a.198.198 0 0 0-.053-.116c-.035-.032-.095-.06-.194-.068a1.026 1.026 0 0 0-.442.078c-.191.07-.435.205-.682.453a2.653 2.653 0 0 0-.637 1.124c-.07.254-.113.548-.095.876.018.326.099.693.297 1.047.187.346.477.671.845.922a3.3 3.3 0 0 0 1.304.527c.247.035.505.06.774.039.134-.004.272-.032.41-.05.067-.014.138-.032.209-.046.031-.01.067-.017.102-.028.035-.01.071-.021.106-.035.067-.025.138-.043.205-.074l.209-.096c.07-.032.13-.07.198-.11.031-.017.063-.038.095-.056l.096-.067c.063-.043.127-.085.183-.135l.181-.152a4.109 4.109 0 0 0 .859-1.145 4.28 4.28 0 0 0 .424-1.926 4.37 4.37 0 0 0-.142-1.008 5.081 5.081 0 0 0-.894-1.813Z"/><path fill="#EAE6DF" d="M240.722 6.876c.003-.54.332-1.111.775-1.408.222-.146.461-.225.693-.214.057.007.115.003.172.021l.082.021c.025.011.054.022.082.03.011.006.025.01.039.013l.04.022.075.043c.025.018.05.032.075.05l.036.025.035.032.068.057.064.071.033.033.028.039.057.075c.072.11.136.221.183.347.05.121.075.25.1.375a1.655 1.655 0 0 1-.243 1.075c-.14.222-.315.422-.526.586a2.866 2.866 0 0 1-.689.41c-.107.05-.214.087-.325.119a2.991 2.991 0 0 1-.683-.972l-.021-.054-.021-.05-.036-.107c-.018-.071-.039-.143-.054-.214-.011-.072-.032-.143-.032-.215l-.011-.107c0-.035.004-.068.004-.103Zm31.68 6.23c.06.186.103.376.121.562.007.092.014.185.011.278 0 .09-.007.172-.022.257-.06.347-.225.686-.457.93-.239.246-.532.375-.829.357-.3-.018-.611-.19-.847-.45a1.739 1.739 0 0 1-.296-.44c-.021-.04-.036-.082-.054-.125-.018-.04-.028-.082-.039-.122-.014-.042-.021-.089-.032-.132a1.699 1.699 0 0 1-.025-.14 3.052 3.052 0 0 1 .071-1.157c.097-.393.243-.79.429-1.171l.064-.147c.022-.046.05-.093.075-.14l.147-.282c.05-.092.103-.182.157-.275.039-.064.075-.128.114-.193.058.072.115.14.168.211.061.09.129.175.193.261l.182.268c.126.179.243.36.351.543.218.36.403.732.518 1.108Zm-15.913 3.934c.192-.15.414-.278.646-.354.118-.035.24-.064.365-.071a1.163 1.163 0 0 1 .703.157 1.2 1.2 0 0 1 .293.243c.168.193.24.411.186.633a.833.833 0 0 1-.168.332 1.14 1.14 0 0 1-.346.286c-.14.078-.293.132-.45.157-.04 0-.079.01-.118.007-.04 0-.075.007-.118 0l-.068-.004-.068-.01c-.043-.004-.086-.015-.132-.022-.357-.078-.725-.29-1.072-.582-.071-.064-.143-.129-.214-.197.021-.028.039-.053.06-.078.14-.179.308-.35.501-.497ZM232.094 6.676c.143.142.343.314.614.521.547.411 1.383.976 2.723 1.587.335.146.7.303 1.104.45.4.15.836.293 1.314.425.472.136.994.264 1.572.346a6.297 6.297 0 0 0 1.923 0 3.88 3.88 0 0 0 .518-.114c.017.007.028.014.043.021.082.047.167.086.25.125.168.068.335.147.507.2.686.24 1.39.326 2.061.33a8.062 8.062 0 0 0 1.912-.254 9.18 9.18 0 0 0 1.247-.422 73.71 73.71 0 0 1-1.654 1.254c-1.251.922-2.48 1.73-3.677 2.383-.6.325-1.19.618-1.776.861-.071.029-.142.06-.214.093-.071.029-.146.054-.218.082-.143.057-.286.111-.425.168-.143.05-.286.097-.425.143-.139.05-.275.1-.415.136-1.104.34-2.129.529-3.036.607-.908.082-1.69.047-2.326-.021-.315-.043-.597-.072-.836-.129-.24-.053-.443-.086-.604-.14l-.49-.135s.168.054.486.15c.161.054.365.097.604.154.236.064.518.1.836.153.633.083 1.422.14 2.34.083a15.179 15.179 0 0 0 3.08-.536c.139-.036.282-.083.425-.129.14-.043.286-.09.432-.136.14-.053.29-.103.436-.157.072-.025.147-.05.222-.079.071-.032.146-.06.221-.089a19.606 19.606 0 0 0 1.815-.829c1.229-.632 2.487-1.422 3.77-2.319 1.282-.893 2.59-1.897 3.969-2.911 1.379-1.015 2.83-2.04 4.412-2.94 1.583-.894 3.302-1.666 5.145-2.09.114-.026.229-.058.343-.076l.35-.064c.232-.05.468-.075.704-.107.468-.061.943-.086 1.418-.082a10.96 10.96 0 0 1 2.841.389 9.574 9.574 0 0 1 2.629 1.165 7.56 7.56 0 0 1 2.069 1.961l.054.075.064.1c.032.047.061.09.089.14l.09.146.178.29.09.142.046.072.021.036c.004.021.018.01.029.003.347-.218.693-.436 1.036-.654.107-.068.214-.128.322-.193l.328-.185c.215-.129.436-.24.658-.358a23.39 23.39 0 0 1 2.744-1.214 25.111 25.111 0 0 1 2.865-.865c.243-.054.482-.114.725-.164l.733-.14.736-.118.182-.028.186-.022.368-.046c.979-.11 1.961-.175 2.936-.179.979 0 1.948.05 2.902.154.957.096 1.897.26 2.815.464.461.097.911.222 1.361.34.222.068.443.132.665.2l.168.05.16.057a22.815 22.815 0 0 1 2.837 1.133c.804.385 1.579.8 2.305 1.26.368.222.718.465 1.071.705.354.239.704.478 1.054.71.626.419 1.265.815 1.93 1.144a5.9 5.9 0 0 1 .95 1.432c.096.197.172.408.239.63.029.11.068.22.09.335.01.057.025.115.035.172.011.057.018.118.025.175.015.06.018.118.025.178.004.061.011.122.015.179.003.122.014.243.007.365a3.663 3.663 0 0 1-.086.735 3.125 3.125 0 0 1-.236.708 2.967 2.967 0 0 1-.396.643c-.322.393-.74.725-1.215.957a4.434 4.434 0 0 1-.747.28 4.426 4.426 0 0 1-.786.12 4.249 4.249 0 0 1-.796-.039c-.065-.014-.133-.018-.197-.035l-.193-.043c-.128-.036-.257-.072-.379-.118a3.69 3.69 0 0 1-.696-.343 3.41 3.41 0 0 1-.579-.482 2.795 2.795 0 0 1-.429-.597c-.028-.054-.06-.107-.086-.164l-.071-.168c-.043-.115-.089-.23-.114-.347-.036-.114-.054-.232-.079-.35-.007-.06-.011-.118-.021-.179-.007-.057-.004-.118-.007-.175a2.66 2.66 0 0 1 .057-.682c.05-.215.118-.425.218-.608.014-.025.021-.05.035-.071l.043-.064c.029-.043.05-.09.082-.129.033-.04.061-.082.097-.121.028-.043.068-.075.1-.115.068-.078.15-.14.221-.207l.122-.09.057-.042.064-.04c.043-.024.083-.05.122-.078.046-.021.089-.043.132-.064.082-.047.172-.072.257-.111.347-.125.693-.16 1.004-.14.311.025.586.118.808.247.114.064.214.143.303.225.05.04.09.082.129.125.036.043.075.086.107.132.136.179.214.361.254.53.039.167.036.331.011.45a1.054 1.054 0 0 1-.154.346c-.072.1-.15.182-.225.25a1.425 1.425 0 0 1-.407.24c-.115.046-.201.06-.268.085-.14.032-.197.093-.229.172-.018.039-.032.078-.018.125.011.046.043.103.129.164a.946.946 0 0 0 .446.136c.211.014.5-.029.818-.197a1.884 1.884 0 0 0 .876-1.025c.1-.286.128-.597.078-.93a2.354 2.354 0 0 0-.382-.985 2.442 2.442 0 0 0-.168-.229 1.933 1.933 0 0 0-.2-.218 2.81 2.81 0 0 0-.486-.393 3.073 3.073 0 0 0-1.811-.453 25.821 25.821 0 0 0-3.591-2.294 26.578 26.578 0 0 0-6.824-2.49 25.31 25.31 0 0 0-4.337-.558 21.46 21.46 0 0 0-4.756.304c-.811.154-1.629.364-2.433.647-.807.282-1.6.643-2.361 1.082-.761.44-1.479.968-2.147 1.569-.361.321-.697.671-1.012 1.043a13.03 13.03 0 0 0-.936-.961 13.247 13.247 0 0 0-2.204-1.68 11.876 11.876 0 0 0-2.497-1.143c-3.502-1.157-7.432-.303-9.89 2.012-.075.075-.15.146-.225.218l-.107.11c-.039.036-.072.079-.107.118l-.204.233-.1.117-.054.058-.042.06a7.272 7.272 0 0 0-.672 1.015 8.16 8.16 0 0 0-.811 2.15 8.107 8.107 0 0 0 .139 4.142 7.079 7.079 0 0 0 .801 1.73c.153.231.31.453.485.656a4.553 4.553 0 0 0-.271 1.604c.003.093.007.18.014.261.004.082.018.165.025.243.014.154.05.297.079.425.125.526.311.858.446 1.072.143.218.258.315.329.361.075.047.118.036.15.014.039-.025.064-.06.061-.146-.007-.082-.047-.21-.107-.433-.061-.217-.161-.528-.208-.986-.007-.114-.021-.235-.021-.367 0-.065-.004-.133 0-.204l.011-.218c.025-.282.075-.593.182-.929a4.173 4.173 0 0 0 .747.507 3.108 3.108 0 0 0 1.182.361l.111.007c.075.007.157 0 .236 0 .082-.003.157-.018.236-.028a2.374 2.374 0 0 0 1.497-.872c.178-.229.314-.507.371-.804a1.74 1.74 0 0 0-.05-.879 2.026 2.026 0 0 0-.414-.696 2.28 2.28 0 0 0-1.236-.683 2.329 2.329 0 0 0-.665-.025 2.763 2.763 0 0 0-1.1.386 3.519 3.519 0 0 0-.772.643 3.172 3.172 0 0 0-.214.25 3.154 3.154 0 0 1-.108-.16 6.608 6.608 0 0 1-.368-.683 7.054 7.054 0 0 1-.285-.757 6.982 6.982 0 0 1-.097-3.523c.139-.622.372-1.24.693-1.83.165-.292.354-.578.565-.85.107-.132.228-.26.339-.396.032-.033.061-.068.089-.1l.097-.093.193-.186c1.047-.986 2.44-1.694 3.962-2.015a9.247 9.247 0 0 1 4.734.225 10.85 10.85 0 0 1 2.265 1.011 12.1 12.1 0 0 1 2.037 1.511c.353.322.689.668 1.011 1.03-.033.042-.065.089-.097.132-.068.092-.121.192-.186.292-.057.097-.121.193-.178.293l-.168.308c-.025.05-.054.1-.079.153l-.075.157a6.66 6.66 0 0 0-.511 1.322c-.121.472-.185.983-.118 1.501.011.068.018.132.033.196.01.065.025.13.046.193.018.068.032.133.057.197s.047.129.079.19c.111.246.257.478.436.682.182.207.396.386.643.525.25.14.536.236.836.26.3.026.607-.024.882-.139.279-.114.518-.285.718-.482a2.807 2.807 0 0 0 .783-2.258 3.861 3.861 0 0 0-.147-.765 6.307 6.307 0 0 0-.596-1.343 13.103 13.103 0 0 0-.375-.597l-.193-.293c-.068-.092-.14-.185-.204-.282a13.03 13.03 0 0 0-.379-.493 11.533 11.533 0 0 1 3.001-2.619 12.983 12.983 0 0 1 2.219-1.079 16.704 16.704 0 0 1 2.322-.675c1.562-.325 3.127-.432 4.624-.407a25.3 25.3 0 0 1 4.273.44 26.605 26.605 0 0 1 6.816 2.279 26.36 26.36 0 0 1 3.566 2.133c-.3.021-.607.082-.907.189-.129.05-.261.093-.386.16-.065.033-.129.062-.19.094-.06.039-.121.075-.185.114l-.093.057-.09.064c-.06.043-.118.09-.178.133-.111.103-.233.196-.336.318-.054.057-.111.11-.157.175-.05.06-.1.125-.147.19-.05.063-.089.135-.132.203l-.064.107c-.022.032-.036.071-.058.107-.15.286-.25.6-.317.922a3.762 3.762 0 0 0-.065.982c.007.082.007.165.022.247.01.082.021.164.035.243.033.164.065.329.118.486.047.16.107.314.172.471.035.075.075.15.111.225.035.079.082.15.121.222.175.29.382.568.632.807.247.24.518.447.811.619.293.17.604.303.926.407.161.053.325.09.486.125l.246.043c.082.014.168.018.247.028.332.032.664.032.993-.003.329-.04.65-.108.961-.207.311-.1.607-.233.89-.393a4.322 4.322 0 0 0 1.4-1.262 3.875 3.875 0 0 0 .654-1.676c.039-.289.054-.575.036-.85-.004-.139-.022-.275-.036-.41-.011-.065-.021-.133-.036-.197a1.57 1.57 0 0 0-.036-.197 4.493 4.493 0 0 1-.046-.193l-.054-.185c-.035-.125-.082-.243-.121-.361a6.007 6.007 0 0 0-.314-.661 5.84 5.84 0 0 0-.701-.983c.261.108.526.208.801.29.396.114.796.2 1.196.246.401.043.797.05 1.19.025a5.634 5.634 0 0 0 1.151-.203 5.044 5.044 0 0 0 1.061-.461c.328-.204.629-.443.886-.718.514-.561.832-1.244.961-1.919.064-.34.089-.679.071-1.011a4.005 4.005 0 0 0-.16-.965 3.713 3.713 0 0 0-.383-.871c-.078-.14-.175-.261-.264-.386l-.15-.172-.075-.085-.082-.08c-.054-.05-.104-.103-.161-.153-.057-.046-.111-.093-.168-.14a1.935 1.935 0 0 0-.175-.128c-.061-.039-.118-.082-.179-.121-.06-.036-.121-.068-.182-.104a1.736 1.736 0 0 1-.089-.053l-.097-.043a7.392 7.392 0 0 0-.186-.09l-.192-.075a4.036 4.036 0 0 0-1.53-.26 3.704 3.704 0 0 0-1.997.64 3.773 3.773 0 0 0-.496.414c-.601.596-.926 1.372-.919 2.104 0 .364.079.697.197.993.121.293.282.55.472.768.189.215.407.39.635.511.229.125.465.2.701.236.057.007.11.007.168.014.028 0 .057.004.082.004a30.31 30.31 0 0 0 .239-.014c.05-.008.1-.018.15-.025a.988.988 0 0 0 .14-.033c.046-.014.089-.025.132-.039.086-.032.164-.06.239-.096.3-.147.518-.329.672-.508.075-.093.143-.175.189-.26.025-.043.05-.083.068-.126.018-.039.032-.078.05-.114a.84.84 0 0 0 .057-.207.545.545 0 0 0 .022-.164.815.815 0 0 0 0-.122.275.275 0 0 0-.022-.09c-.028-.1-.068-.114-.11-.117-.04 0-.086.014-.133.09-.01.017-.025.038-.035.063-.015.026-.036.054-.054.086a.467.467 0 0 1-.061.111c-.028.04-.046.086-.089.129a.44.44 0 0 1-.054.075c-.021.025-.046.046-.068.075-.046.053-.107.103-.171.157a1.653 1.653 0 0 1-.525.29c-.218.078-.486.11-.758.053a1.434 1.434 0 0 1-.8-.536 1.84 1.84 0 0 1-.389-1.193c.014-.454.243-.98.682-1.387a2.4 2.4 0 0 1 .364-.285c.136-.086.279-.165.429-.225a2.728 2.728 0 0 1 1.011-.197c.365 0 .751.064 1.119.218l.139.054c.046.025.093.046.136.067l.068.036c.025.01.046.025.067.04.043.024.09.053.133.078l.128.09c.04.028.082.06.122.096.043.032.078.064.121.1.036.036.075.071.111.11l.057.058.05.06c.036.04.072.08.104.122.06.086.128.171.175.268a2.5 2.5 0 0 1 .261.61 3.052 3.052 0 0 1 .046 1.426 2.812 2.812 0 0 1-.679 1.34c-.186.19-.396.358-.632.5-.24.136-.504.25-.786.336a4.836 4.836 0 0 1-.901.154c-.314.018-.635.01-.964-.029a5.37 5.37 0 0 1-.986-.207c-.082-.025-.161-.05-.247-.079-.082-.028-.164-.06-.246-.092a6.709 6.709 0 0 1-.5-.215c-.665-.307-1.326-.714-2.005-1.168-.343-.229-.686-.468-1.043-.707a24.603 24.603 0 0 0-1.115-.73 23.078 23.078 0 0 0-2.426-1.325 23.762 23.762 0 0 0-2.644-1.068c-.114-.036-.228-.075-.343-.114l-.171-.058-.175-.05c-.232-.071-.465-.139-.697-.207-.475-.121-.95-.25-1.432-.346a25.102 25.102 0 0 0-2.948-.465 28.403 28.403 0 0 0-3.03-.132c-1.018.014-2.043.09-3.065.221l-.386.05-.189.026-.193.032c-.254.046-.508.089-.765.132l-.761.157c-.253.054-.504.118-.757.179a26.312 26.312 0 0 0-2.973.94c-.975.374-1.922.817-2.84 1.31-.232.126-.461.247-.683.383l-.335.2c-.115.068-.225.132-.336.204l-.143.096-.036.025-.071.046c-.018-.01-.032-.042-.047-.064l-.028-.04-.04-.056c-.021-.029-.043-.054-.06-.082a8.407 8.407 0 0 0-2.358-2.166 10.42 10.42 0 0 0-2.891-1.221 11.692 11.692 0 0 0-4.573-.247c-.246.04-.497.071-.74.125l-.364.075c-.125.025-.243.06-.364.09-1.926.482-3.684 1.318-5.281 2.265-1.601.953-3.044 2.022-4.405 3.072-.325.254-.647.504-.965.75-.321.161-.661.318-1.022.458a9.1 9.1 0 0 1-1.611.468 7.567 7.567 0 0 1-1.79.128 5.687 5.687 0 0 1-1.818-.396c-.047-.018-.09-.04-.136-.057.2-.115.393-.247.579-.397.3-.246.571-.554.778-.907.211-.361.358-.765.393-1.219.022-.221.004-.44-.032-.654a2.728 2.728 0 0 0-.182-.625 2.718 2.718 0 0 0-.325-.571l-.104-.133-.053-.064-.061-.06-.121-.119-.133-.11a2.114 2.114 0 0 0-1.411-.461l-.086.007c-.06.007-.121.01-.182.021l-.171.043c-.029.007-.057.011-.086.022l-.082.028-.165.065c-.05.025-.1.05-.15.078-.107.05-.196.118-.289.182-.046.029-.086.068-.129.104a4.628 4.628 0 0 0-.125.107l-.114.122-.057.057-.054.064-.1.129c-.032.043-.057.09-.089.132-.029.046-.061.093-.086.14l-.075.142c-.193.382-.3.815-.286 1.258 0 .057 0 .11.007.164l.018.157c.015.108.043.208.065.308.025.103.057.2.092.3.04.093.072.193.122.282.132.279.304.532.493.761-.336.01-.672-.01-.99-.054a11.661 11.661 0 0 1-1.425-.296c-.45-.118-.861-.243-1.24-.372a21.28 21.28 0 0 1-1.054-.39c-1.283-.517-2.119-.975-2.694-1.275a23.633 23.633 0 0 0-.689-.353 2.583 2.583 0 0 0-.408-.161c-.193-.054-.26-.004-.314.064-.05.064-.079.143.036.318.053.086.146.2.293.34ZM58.986 116.346c.41.538.916 1.004 1.47 1.375a7.887 7.887 0 0 0 1.768.874c.611.215 1.23.367 1.845.473a14.74 14.74 0 0 0 3.584.163 14.959 14.959 0 0 0 3.097-.594c.23-.071.452-.134.664-.219.106-.039.209-.074.311-.113l.152-.057.149-.064c.19-.081.378-.159.555-.236.173-.085.339-.166.502-.244.077-.039.152-.078.226-.12.074-.039.145-.082.216-.117.137-.078.272-.145.385-.223.12-.074.23-.141.332-.201.099-.064.19-.12.269-.177l.491-.343-.52.297c-.08.05-.176.099-.282.152l-.343.173c-.12.067-.258.12-.403.188l-.22.099c-.074.031-.151.067-.233.099a14.942 14.942 0 0 1-5.376 1.088 14.468 14.468 0 0 1-3.386-.371c-1.142-.269-2.273-.693-3.189-1.371a5.173 5.173 0 0 1-1.166-1.188 4.013 4.013 0 0 1-.654-1.435 2.996 2.996 0 0 1 0-1.453c.06-.233.141-.452.24-.657a2.64 2.64 0 0 1 .368-.555c.067-.085.145-.156.216-.23.042-.032.08-.067.12-.099.035-.035.078-.057.116-.088l.06-.043.064-.035c.043-.025.081-.053.124-.071.042-.021.085-.039.124-.056.042-.022.084-.032.127-.05l.063-.021c.022-.007.043-.011.064-.018.046-.01.089-.021.13-.032.09-.01.174-.031.263-.031a2.137 2.137 0 0 1 1.343.325c.233.145.403.325.523.516.226.364.247.792.187 1.127a2.082 2.082 0 0 1-.31.799 2.152 2.152 0 0 1-.354.417c-.11.099-.188.166-.24.216-.117.11-.131.187-.114.272a.197.197 0 0 0 .053.117c.035.032.096.06.195.067.102.011.247-.007.441-.078.191-.07.435-.205.683-.452.24-.251.49-.615.636-1.124.07-.255.113-.548.095-.877a2.403 2.403 0 0 0-.297-1.046 2.674 2.674 0 0 0-.844-.923 3.306 3.306 0 0 0-2.079-.565c-.134.003-.272.032-.41.049-.067.014-.138.032-.208.046-.032.011-.068.018-.103.028-.035.011-.07.022-.106.036-.067.024-.138.042-.205.074-.07.032-.138.064-.209.095-.07.032-.13.071-.197.11l-.096.057-.095.067a1.765 1.765 0 0 0-.184.134c-.06.05-.12.103-.18.152-.114.106-.23.219-.33.343a4.095 4.095 0 0 0-.53.802 4.297 4.297 0 0 0-.424 1.927c.008.343.057.678.142 1.007.17.661.484 1.276.894 1.813Z"/><path fill="#EAE6DF" d="M110.999 118.522c-.003.539-.332 1.111-.775 1.407a1.168 1.168 0 0 1-.693.215c-.057-.007-.114-.004-.172-.022a2.404 2.404 0 0 0-.082-.021.606.606 0 0 0-.082-.029c-.011-.007-.025-.01-.039-.014l-.04-.021-.075-.043c-.025-.018-.05-.032-.075-.05l-.035-.025-.036-.032-.068-.058-.064-.071-.032-.032a.95.95 0 0 1-.029-.039l-.057-.075a1.739 1.739 0 0 1-.182-.347c-.05-.122-.075-.25-.1-.375a1.43 1.43 0 0 1-.004-.375c.021-.233.111-.483.247-.701.139-.221.314-.421.525-.586.207-.167.443-.307.689-.41.107-.05.215-.086.325-.118a2.98 2.98 0 0 1 .683.972l.021.053.022.05.035.107c.018.072.04.143.054.215.011.071.032.143.032.214l.011.107c0 .036-.004.068-.004.104Zm-31.68-6.231a2.633 2.633 0 0 1-.121-.561c-.007-.093-.014-.186-.01-.279 0-.089.007-.171.02-.257.061-.347.226-.686.458-.929.24-.246.532-.375.829-.357.3.018.61.189.847.45.121.129.221.282.296.439.022.04.036.083.054.126.018.039.028.082.04.121.014.043.02.089.031.132.011.047.018.093.025.14.058.368.022.764-.071 1.157-.097.393-.243.79-.429 1.172l-.064.146c-.022.047-.05.093-.075.14l-.147.282c-.05.093-.103.182-.157.275-.04.064-.075.129-.114.193-.057-.071-.115-.139-.168-.211-.06-.089-.129-.175-.193-.261l-.182-.267a8.145 8.145 0 0 1-.35-.544 4.992 4.992 0 0 1-.518-1.107Zm15.914-3.934c-.193.15-.415.279-.647.354-.118.036-.24.064-.364.071a1.157 1.157 0 0 1-.704-.157c-.111-.064-.211-.15-.293-.243-.168-.193-.24-.411-.186-.632a.833.833 0 0 1 .168-.332 1.14 1.14 0 0 1 .346-.286c.14-.079.293-.132.45-.157.04 0 .08-.011.118-.008.04 0 .076-.007.118 0l.068.004.068.011c.043.003.086.014.132.021.358.079.726.29 1.072.583.072.064.143.128.215.196-.022.029-.04.054-.061.079-.14.178-.307.35-.5.496Zm24.395 10.365a6.155 6.155 0 0 0-.615-.522c-.547-.411-1.383-.975-2.722-1.586a18.05 18.05 0 0 0-1.104-.45 15.47 15.47 0 0 0-1.315-.425 11.39 11.39 0 0 0-1.572-.347 6.307 6.307 0 0 0-1.922 0 3.812 3.812 0 0 0-.518.114c-.018-.007-.029-.014-.043-.021-.082-.046-.168-.086-.25-.125-.168-.068-.336-.147-.508-.2-.686-.24-1.39-.325-2.061-.329a8.05 8.05 0 0 0-1.912.254 9.168 9.168 0 0 0-1.247.421 79.656 79.656 0 0 1 1.655-1.254c1.25-.921 2.479-1.729 3.676-2.383.6-.325 1.19-.618 1.776-.861.071-.028.143-.06.214-.093.072-.028.147-.053.218-.082.143-.057.286-.111.425-.168.143-.05.286-.096.425-.143.14-.05.275-.1.415-.135a14.696 14.696 0 0 1 3.037-.608 11.75 11.75 0 0 1 2.325.022c.315.043.597.071.837.128.239.054.443.086.603.14l.49.135s-.168-.053-.486-.15c-.161-.053-.365-.096-.604-.153-.236-.065-.518-.1-.836-.154-.632-.082-1.422-.139-2.34-.082-.915.057-1.958.225-3.08.536-.139.036-.282.082-.425.128l-.432.136c-.14.054-.29.104-.436.157-.072.025-.147.05-.222.079a19.928 19.928 0 0 0-2.036.918c-1.229.633-2.487 1.422-3.769 2.319-1.283.893-2.591 1.897-3.97 2.912-1.379 1.014-2.83 2.04-4.412 2.94-1.583.893-3.301 1.665-5.145 2.09-.114.025-.229.057-.343.075l-.35.065c-.232.05-.468.075-.704.107-.468.06-.943.085-1.418.082a10.918 10.918 0 0 1-2.84-.39 9.588 9.588 0 0 1-2.63-1.164 7.57 7.57 0 0 1-2.069-1.962l-.053-.075-.065-.1a1.755 1.755 0 0 1-.09-.139l-.088-.147-.179-.289-.09-.143-.046-.071-.021-.036c-.004-.022-.018-.011-.029-.004-.346.218-.693.436-1.036.654-.107.068-.214.129-.322.193l-.328.186c-.215.128-.436.239-.657.357-.89.461-1.805.872-2.744 1.215-.94.346-1.894.632-2.866.865-.243.053-.482.114-.725.164l-.733.139-.736.118-.182.029-.185.021-.368.047a27.09 27.09 0 0 1-2.937.178c-.98 0-1.947-.05-2.901-.153a24.258 24.258 0 0 1-2.816-.465c-.46-.096-.91-.221-1.36-.339-.222-.068-.444-.133-.666-.2l-.167-.05-.161-.058A22.935 22.935 0 0 1 56 119.458c-.804-.386-1.58-.8-2.304-1.261-.368-.222-.718-.465-1.072-.704-.354-.24-.704-.479-1.054-.711a17.208 17.208 0 0 0-1.93-1.143 5.882 5.882 0 0 1-.95-1.433 4.244 4.244 0 0 1-.24-.629c-.028-.111-.067-.221-.089-.336-.01-.057-.024-.114-.035-.171-.011-.057-.018-.118-.025-.175-.015-.061-.018-.118-.025-.179-.004-.061-.011-.121-.015-.179-.003-.121-.014-.243-.007-.364a3.66 3.66 0 0 1 .086-.736 3.15 3.15 0 0 1 .236-.707 3.02 3.02 0 0 1 .396-.644 3.64 3.64 0 0 1 1.215-.957c.236-.114.49-.207.747-.279.257-.064.518-.103.786-.121.264-.014.532.003.797.039.064.014.132.018.196.036l.193.043a3.678 3.678 0 0 1 1.075.461c.215.143.408.303.58.482.17.179.31.382.428.597.029.053.06.107.086.164l.071.168c.043.114.09.229.114.346.036.115.054.233.08.351.006.06.01.117.02.178.008.057.004.118.008.175.007.233-.008.465-.058.683-.05.214-.117.425-.217.607-.015.025-.022.05-.036.071l-.043.065c-.029.043-.05.089-.082.128-.032.04-.06.083-.097.122-.028.043-.068.075-.1.114-.068.079-.15.14-.221.207l-.122.09-.057.043-.064.039a1.33 1.33 0 0 0-.122.079c-.046.021-.089.042-.132.064-.082.046-.171.071-.257.111-.347.125-.693.16-1.004.139a1.912 1.912 0 0 1-.807-.247 1.588 1.588 0 0 1-.304-.225 1.04 1.04 0 0 1-.129-.125c-.035-.043-.075-.085-.107-.132a1.404 1.404 0 0 1-.254-.529 1.075 1.075 0 0 1-.01-.45c.028-.125.085-.246.153-.346.072-.1.15-.183.225-.25a1.41 1.41 0 0 1 .408-.24c.114-.046.2-.061.268-.086.139-.032.196-.093.228-.171.018-.039.032-.079.018-.125-.01-.047-.043-.104-.129-.164a.943.943 0 0 0-.446-.136c-.21-.015-.5.028-.818.196a1.87 1.87 0 0 0-.875 1.026c-.1.285-.13.596-.08.929.047.332.172.671.383.986.05.078.107.153.168.228.06.075.125.15.2.218.14.143.304.275.486.393a3.077 3.077 0 0 0 1.811.454 25.804 25.804 0 0 0 3.591 2.294c1.811.964 4.112 1.9 6.824 2.49 1.354.293 2.812.497 4.337.557 1.526.065 3.13-.007 4.756-.303.81-.154 1.629-.365 2.433-.647.807-.282 1.6-.643 2.361-1.083.761-.439 1.48-.968 2.148-1.568.36-.322.696-.672 1.01-1.043.297.335.608.657.937.961.675.632 1.411 1.2 2.204 1.679.79.475 1.626.865 2.498 1.143 3.5 1.158 7.43.304 9.889-2.011.075-.075.15-.147.225-.218l.107-.111c.04-.036.072-.079.107-.118.068-.078.136-.153.204-.232l.1-.118.054-.057.043-.061c.257-.325.478-.664.671-1.015.382-.696.65-1.425.811-2.15a8.108 8.108 0 0 0-.139-4.141 6.947 6.947 0 0 0-.8-1.729 6.496 6.496 0 0 0-.486-.658 4.577 4.577 0 0 0 .272-1.604 5.555 5.555 0 0 0-.015-.261c-.004-.082-.018-.164-.025-.243-.014-.153-.05-.296-.079-.425a3.393 3.393 0 0 0-.446-1.072c-.143-.218-.257-.314-.329-.361-.075-.046-.118-.035-.15-.014-.04.025-.064.061-.06.147.006.082.046.21.107.432.06.218.16.529.207.986.007.114.021.236.021.368 0 .064.004.132 0 .204l-.01.218a4.252 4.252 0 0 1-.183.929l-.007-.008a4.2 4.2 0 0 0-.74-.5 3.142 3.142 0 0 0-.846-.311 2.245 2.245 0 0 0-.222-.035c-.04-.008-.075-.011-.114-.015l-.11-.007c-.076-.007-.158 0-.237 0-.082.004-.157.018-.235.029a2.363 2.363 0 0 0-1.497.872 1.906 1.906 0 0 0-.372.803c-.06.297-.04.604.05.879.093.272.243.508.414.697.35.375.786.593 1.237.682a2.304 2.304 0 0 0 1.257-.118 3.026 3.026 0 0 0 .93-.546 3.54 3.54 0 0 0 .35-.34c.078-.082.146-.164.214-.25.035.05.071.104.107.161.132.214.257.443.368.683.107.242.204.493.286.757a6.987 6.987 0 0 1 .096 3.523 7.06 7.06 0 0 1-.693 1.829 6.827 6.827 0 0 1-.564.85c-.108.132-.23.261-.34.397-.032.032-.06.068-.09.1l-.096.093c-.064.061-.128.125-.193.186-1.046.986-2.44 1.693-3.962 2.015a9.25 9.25 0 0 1-4.734-.225 10.81 10.81 0 0 1-2.265-1.012 12.086 12.086 0 0 1-2.036-1.511 13.61 13.61 0 0 1-1.011-1.029l.096-.132c.068-.093.121-.193.186-.293.057-.096.121-.193.178-.293l.168-.307c.025-.05.054-.1.079-.154l.075-.157c.21-.411.386-.854.51-1.322.122-.472.187-.982.119-1.501-.01-.067-.018-.132-.032-.196a1.264 1.264 0 0 0-.047-.193c-.018-.068-.032-.132-.057-.196-.025-.065-.046-.129-.079-.19a2.732 2.732 0 0 0-.435-.682 2.48 2.48 0 0 0-.644-.525 2.074 2.074 0 0 0-.836-.261 1.91 1.91 0 0 0-.882.139 2.25 2.25 0 0 0-.718.482 2.808 2.808 0 0 0-.783 2.258c.022.265.075.518.147.765.143.489.36.929.597 1.343.121.208.246.404.375.597l.193.293c.067.093.139.186.203.282.122.168.25.333.379.493a11.51 11.51 0 0 1-3.001 2.619c-.711.432-1.45.793-2.219 1.079-.764.286-1.543.507-2.322.675-1.561.325-3.126.433-4.623.408a25.252 25.252 0 0 1-4.273-.44 26.605 26.605 0 0 1-6.817-2.279 26.527 26.527 0 0 1-3.566-2.133c.3-.022.608-.082.908-.19.128-.05.26-.092.386-.16.064-.032.128-.061.189-.093.06-.04.121-.075.186-.115l.093-.057.089-.064c.06-.043.118-.089.178-.132.111-.104.233-.197.336-.318.054-.057.111-.111.157-.175.05-.061.1-.125.147-.19.05-.064.09-.135.132-.203l.064-.107c.022-.033.036-.072.058-.108.15-.285.25-.6.318-.921.068-.322.082-.654.064-.983-.007-.082-.007-.164-.022-.246a3.664 3.664 0 0 0-.154-.729 4.625 4.625 0 0 0-.17-.472c-.036-.075-.076-.15-.111-.225-.036-.079-.082-.15-.122-.221a3.895 3.895 0 0 0-.632-.808 4.228 4.228 0 0 0-.811-.618 4.634 4.634 0 0 0-1.412-.532l-.246-.043c-.082-.015-.168-.018-.246-.029a4.847 4.847 0 0 0-.994.004c-.328.039-.65.107-.96.207-.312.1-.608.232-.89.393a4.32 4.32 0 0 0-1.4 1.261 3.754 3.754 0 0 0-.433.818 3.949 3.949 0 0 0-.222.858c-.04.289-.053.575-.035.85.003.139.021.275.035.411.011.064.022.132.036.197.007.067.021.132.036.196.018.064.032.129.046.193l.054.186c.035.125.082.243.121.361.097.232.197.453.315.661.21.375.453.7.7.982a8.512 8.512 0 0 0-.8-.289 7.407 7.407 0 0 0-1.197-.247c-.4-.043-.797-.05-1.19-.025a5.665 5.665 0 0 0-1.15.204 5 5 0 0 0-1.062.461 4.313 4.313 0 0 0-.886.718 3.945 3.945 0 0 0-.96 1.918c-.065.34-.09.679-.072 1.011.018.329.064.654.16.965.093.307.219.604.383.872.078.139.175.261.264.386l.15.171.075.086.083.079c.053.05.103.103.16.153l.168.14c.057.046.115.089.175.128.061.039.118.082.179.122.06.035.121.067.182.103.032.018.06.036.09.054l.096.043c.064.032.125.06.186.089l.193.075a4.025 4.025 0 0 0 1.529.261 3.704 3.704 0 0 0 1.997-.64c.182-.125.347-.268.497-.414.6-.597.925-1.372.918-2.104 0-.365-.079-.697-.197-.994a2.807 2.807 0 0 0-.471-.768 2.32 2.32 0 0 0-.636-.511 2.116 2.116 0 0 0-.7-.236c-.058-.007-.111-.007-.168-.014-.029 0-.058-.003-.083-.003-.028.003-.053.003-.082.003l-.157.011c-.05.007-.1.018-.15.025a1 1 0 0 0-.14.032c-.046.014-.089.025-.132.039-.085.032-.164.061-.239.097-.3.146-.518.328-.672.507-.075.093-.143.175-.189.261-.025.043-.05.082-.068.125-.018.039-.032.079-.05.114a.876.876 0 0 0-.057.208.547.547 0 0 0-.022.164.674.674 0 0 0 0 .121.28.28 0 0 0 .022.09c.029.1.068.114.11.118.04 0 .086-.015.133-.09.01-.018.025-.039.036-.064.014-.025.035-.054.053-.086a.506.506 0 0 1 .06-.111c.03-.039.047-.085.09-.128a.484.484 0 0 1 .054-.075c.021-.025.046-.047.068-.075.046-.054.107-.104.171-.157a1.63 1.63 0 0 1 .525-.29c.218-.078.486-.111.758-.053.268.064.572.232.8.535a1.864 1.864 0 0 1 .39 1.194c-.015.454-.243.979-.683 1.386a2.35 2.35 0 0 1-.364.286 2.721 2.721 0 0 1-.429.225 2.715 2.715 0 0 1-1.011.196 2.92 2.92 0 0 1-1.118-.217l-.14-.054c-.046-.025-.093-.047-.136-.068l-.067-.036c-.025-.01-.047-.025-.068-.039l-.132-.079c-.043-.028-.086-.06-.129-.089a1.698 1.698 0 0 1-.121-.096c-.043-.033-.08-.065-.122-.1-.036-.036-.075-.072-.11-.111l-.058-.057-.05-.061a1.602 1.602 0 0 1-.103-.122c-.061-.085-.13-.171-.176-.268a2.755 2.755 0 0 1-.368-1.304c-.01-.239.011-.485.061-.732.097-.486.332-.961.679-1.34.186-.189.397-.357.632-.5.24-.136.504-.25.786-.336.286-.078.586-.128.9-.153a5.499 5.499 0 0 1 1.951.235c.083.025.161.05.247.079.082.029.164.061.246.093.168.064.336.136.5.214.665.307 1.326.715 2.005 1.169.343.228.686.468 1.043.707.358.243.726.493 1.115.729.764.486 1.583.922 2.426 1.325.847.408 1.733.758 2.644 1.069.114.035.228.075.343.114l.171.057.175.05c.233.071.465.139.697.207.475.122.95.25 1.433.347.964.207 1.947.371 2.947.464.997.097 2.012.143 3.03.132a26.832 26.832 0 0 0 3.065-.221l.386-.05.19-.025.192-.032c.254-.047.508-.09.765-.132.254-.054.504-.104.761-.158.254-.053.504-.118.757-.178 1.008-.254 2.001-.568 2.973-.94a24.906 24.906 0 0 0 2.84-1.311c.233-.125.461-.247.683-.382l.336-.2c.114-.068.225-.133.335-.204l.143-.097.036-.025.072-.046c.017.011.032.043.046.064l.029.04.039.057c.021.028.043.053.06.082a8.395 8.395 0 0 0 2.359 2.165c.903.561 1.883.961 2.89 1.222 1.007.261 2.037.375 3.055.364.51-.007 1.021-.043 1.518-.118.247-.039.497-.071.74-.125l.364-.075c.125-.025.243-.06.365-.089 1.925-.482 3.683-1.318 5.28-2.265 1.6-.954 3.044-2.022 4.405-3.073l.965-.75c.322-.161.661-.318 1.022-.457a8.995 8.995 0 0 1 1.611-.468 7.536 7.536 0 0 1 1.79-.129 5.684 5.684 0 0 1 1.819.397c.046.018.089.039.135.057-.2.114-.393.246-.578.396a3.41 3.41 0 0 0-.779.908 2.82 2.82 0 0 0-.393 1.218c-.022.222-.004.44.032.654a2.766 2.766 0 0 0 .507 1.197l.104.132.053.064.061.061.122.118.132.111c.357.293.839.464 1.318.464.032 0 .061 0 .093-.003l.086-.007c.061-.008.121-.011.182-.022l.172-.043c.028-.007.057-.01.085-.021l.082-.029.165-.064c.05-.025.1-.05.15-.079.107-.05.196-.118.289-.182.047-.029.086-.068.129-.104.043-.035.086-.071.125-.107l.114-.121.057-.057.054-.065.1-.128c.032-.043.057-.09.089-.132.029-.047.061-.093.086-.14l.075-.143c.193-.382.3-.814.286-1.257 0-.058 0-.111-.007-.165l-.018-.157c-.014-.107-.043-.207-.064-.307a3.065 3.065 0 0 0-.093-.3c-.04-.093-.072-.193-.122-.283a3.652 3.652 0 0 0-.493-.761c.336-.01.672.011.99.054.504.068.979.179 1.425.297a18.458 18.458 0 0 1 2.294.761c1.283.518 2.119.975 2.694 1.275.289.154.514.268.69.354.178.082.307.136.407.161.193.053.261.003.314-.065.05-.064.079-.143-.036-.318a1.847 1.847 0 0 0-.292-.339ZM345.761 21.221c-.17.22-.378.4-.604.543a1.643 1.643 0 0 1-.722.258 1.59 1.59 0 0 1-.385-.007c-.131-.025-.263-.049-.388-.105a1.712 1.712 0 0 1-.354-.184l-.08-.06-.042-.03-.031-.032-.073-.066-.062-.073-.031-.035-.025-.038c-.017-.024-.038-.049-.055-.077l-.042-.08-.021-.038c-.007-.014-.01-.028-.013-.042l-.032-.083a2.665 2.665 0 0 1-.02-.087c-.021-.056-.014-.119-.025-.178-.01-.236.073-.483.222-.713.306-.456.892-.797 1.451-.8.034 0 .069-.004.104-.004l.114.01c.073.004.146.022.219.035.073.014.149.035.222.056l.107.038.056.018.052.024c.281.122.552.293.794.505.073.062.139.132.209.201a3.063 3.063 0 0 1-.545 1.044Zm2.821 29.207c.093-.052.184-.111.284-.163l.288-.15c.049-.024.097-.052.146-.077l.149-.066a6.268 6.268 0 0 1 1.207-.441 3.172 3.172 0 0 1 1.191-.077c.048.01.097.014.145.028.045.01.09.017.136.035a.86.86 0 0 1 .124.041c.046.018.087.032.129.053.163.08.319.18.451.306.27.243.447.567.465.873.017.31-.118.612-.368.856a1.824 1.824 0 0 1-1.221.498 2.67 2.67 0 0 1-.288-.014 3.098 3.098 0 0 1-.576-.122 5.399 5.399 0 0 1-1.142-.536 9.085 9.085 0 0 1-.558-.362l-.274-.191c-.091-.063-.181-.132-.271-.198-.073-.056-.142-.115-.215-.171.066-.042.132-.08.198-.122Zm7.744-13.706c.003.039-.007.08-.011.119-.02.163-.079.323-.159.466-.08.143-.184.268-.295.358a.835.835 0 0 1-.34.174c-.229.053-.458-.02-.656-.191a1.225 1.225 0 0 1-.385-.665c-.028-.125-.035-.233-.028-.365.011-.129.038-.254.08-.376.073-.24.208-.47.361-.668.152-.198.329-.372.513-.518.025-.021.052-.038.08-.06.069.074.139.147.201.22.302.355.521.737.597 1.106a.739.739 0 0 1 .028.14l.01.066.004.07c.003.044 0 .083 0 .124ZM343.863 50.95l-.097.15c-.076.111-.142.23-.212.344l-.205.345c-.138.23-.263.47-.395.706a25.634 25.634 0 0 0-1.346 2.933 26.697 26.697 0 0 0-.968 3.073c-.063.26-.132.518-.188.779-.052.264-.107.525-.159.786l-.136.79-.031.199-.028.198-.052.393a28.932 28.932 0 0 0-.229 3.166c-.01 1.055.035 2.099.136 3.132.097 1.033.267 2.05.479 3.044.1.498.232.989.357 1.476.073.24.142.48.212.72l.055.181.059.177a25.15 25.15 0 0 0 2.578 5.592c.243.4.503.78.753 1.148.246.369.493.724.729 1.075.468.703.884 1.385 1.203 2.074.08.17.153.341.222.512l.094.257.083.254c.098.338.174.679.212 1.02.038.337.045.671.028.995-.024.323-.08.637-.16.929a3.931 3.931 0 0 1-.343.814 3.169 3.169 0 0 1-.517.65 2.836 2.836 0 0 1-1.378.7 3.091 3.091 0 0 1-1.467-.045 2.691 2.691 0 0 1-.632-.268c-.1-.052-.184-.122-.274-.181l-.128-.108-.063-.052-.055-.06-.115-.114a10.606 10.606 0 0 0-.104-.125c-.038-.039-.066-.084-.097-.13a6.433 6.433 0 0 1-.094-.128c-.027-.045-.052-.09-.079-.139a1.092 1.092 0 0 1-.042-.066l-.035-.07-.069-.142c-.021-.05-.042-.094-.059-.143a3.123 3.123 0 0 1-.222-1.155c.003-.376.073-.731.201-1.044.063-.157.142-.306.233-.442.086-.14.187-.261.291-.376.423-.456.961-.689 1.429-.706.236-.01.472.031.681.104.211.073.395.178.551.296.312.237.482.553.548.828.059.282.025.56-.052.783a1.878 1.878 0 0 1-.298.543c-.059.066-.108.129-.163.174-.028.024-.052.052-.076.073-.028.017-.053.038-.077.055-.045.042-.093.063-.135.091a.752.752 0 0 1-.111.066c-.035.017-.063.038-.09.052a.28.28 0 0 0-.066.039c-.077.048-.094.094-.094.135.004.046.021.084.122.115.024.007.055.017.093.021a.763.763 0 0 0 .125 0 .61.61 0 0 0 .17-.02c.063-.015.135-.029.212-.06.038-.017.076-.035.121-.052.042-.018.08-.046.125-.07.09-.049.177-.118.271-.195.184-.16.371-.386.52-.692.035-.08.066-.164.101-.25l.041-.136a.899.899 0 0 0 .032-.147c.01-.048.017-.1.024-.153.007-.052.01-.107.01-.16.004-.027.004-.055.004-.083 0-.031 0-.06-.004-.087a2.65 2.65 0 0 0-.014-.178 2.123 2.123 0 0 0-.242-.72 2.332 2.332 0 0 0-.524-.657 2.843 2.843 0 0 0-1.815-.69c-.756-.006-1.554.328-2.165.95a3.615 3.615 0 0 0-.767 1.12 3.865 3.865 0 0 0-.319 1.455 4.072 4.072 0 0 0 .271 1.58c.021.066.048.132.073.195l.093.195.045.097.052.094c.039.063.073.125.111.188.039.063.08.122.122.184.041.063.083.122.135.181l.142.174c.052.056.104.112.16.167l.08.084.087.076.177.157c.131.09.256.191.399.271.274.17.579.3.898.394.316.1.652.15.992.167.344.02.691-.007 1.041-.077a4.043 4.043 0 0 0 1.974-.988c.285-.268.531-.574.74-.915.197-.341.357-.71.475-1.096.107-.386.18-.783.211-1.19a7.664 7.664 0 0 0-.027-1.229 7.542 7.542 0 0 0-.257-1.235 7.94 7.94 0 0 0-.295-.824 6.06 6.06 0 0 0 1.013.72c.212.125.441.226.68.323.122.042.243.094.371.13.063.017.129.034.195.055.062.014.128.031.194.045.066.017.135.031.201.042.066.01.139.024.205.035.139.014.281.034.42.038.288.017.579.003.878-.038.295-.039.593-.119.884-.23.292-.108.576-.261.84-.445a4.54 4.54 0 0 0 1.301-1.448c.163-.289.298-.598.403-.918a5.039 5.039 0 0 0 .218-2.015c-.01-.087-.017-.17-.031-.257l-.042-.255c-.038-.167-.076-.337-.132-.5a4.668 4.668 0 0 0-.416-.957 4.527 4.527 0 0 0-.638-.839 4.145 4.145 0 0 0-.83-.65c-.076-.042-.149-.091-.229-.13a4.958 4.958 0 0 1-.232-.11c-.163-.067-.319-.133-.486-.178-.163-.056-.329-.087-.499-.122-.084-.014-.167-.024-.25-.038-.087-.014-.174-.014-.257-.021a3.788 3.788 0 0 0-1.01.07c-.329.069-.655.17-.95.326-.035.018-.073.035-.111.056l-.108.066c-.069.046-.146.087-.211.136l-.195.153c-.066.049-.121.108-.18.164-.125.104-.222.23-.326.344-.049.063-.091.125-.136.188l-.069.09-.056.098c-.041.063-.079.129-.117.191-.032.066-.066.129-.098.195-.069.129-.111.265-.166.397-.108.313-.17.63-.194.94a27.37 27.37 0 0 1-2.193-3.682 27.458 27.458 0 0 1-2.349-7.04 25.84 25.84 0 0 1-.455-4.415c-.024-1.544.087-3.159.424-4.77.17-.807.395-1.61.694-2.4.291-.79.666-1.556 1.11-2.29a11.796 11.796 0 0 1 2.696-3.097c.166.132.336.26.506.386.101.073.195.143.295.212l.299.199c.197.136.402.264.614.386.423.247.881.473 1.384.62.253.076.517.128.788.152.135.01.27.014.409.01a2.86 2.86 0 0 0 1.912-.821c.204-.205.381-.455.499-.74a2.03 2.03 0 0 0 .143-.912 2.115 2.115 0 0 0-.268-.86 2.457 2.457 0 0 0-.541-.664 2.757 2.757 0 0 0-.701-.452c-.066-.032-.131-.056-.194-.08-.066-.025-.135-.042-.205-.063-.066-.02-.135-.031-.201-.045-.062-.018-.132-.025-.198-.035-.534-.07-1.061-.004-1.544.122-.485.129-.94.313-1.367.525l-.159.08c-.056.025-.108.056-.16.084l-.312.17c-.104.06-.205.125-.305.188-.101.063-.205.122-.299.191a2.445 2.445 0 0 0-.139.098c-.371-.33-.725-.679-1.058-1.04a12.875 12.875 0 0 1-1.558-2.106 11.483 11.483 0 0 1-1.041-2.341 9.594 9.594 0 0 1-.232-4.885c.333-1.573 1.062-3.01 2.075-4.092.066-.066.128-.133.194-.199l.094-.1c.031-.032.069-.06.104-.091.135-.118.271-.244.409-.352.278-.222.573-.414.875-.58a7.184 7.184 0 0 1 1.88-.717 7.144 7.144 0 0 1 3.629.1 5.956 5.956 0 0 1 1.485.675c.056.035.111.074.163.108-.086.07-.173.14-.26.22-.118.108-.232.23-.343.361a3.16 3.16 0 0 0-.566.96 2.908 2.908 0 0 0-.146.613 2.33 2.33 0 0 0 .729 1.963c.194.18.434.334.718.428.278.094.597.114.902.055.306-.062.594-.202.83-.39.239-.184.433-.417.586-.674.149-.261.26-.554.312-.87.007-.08.024-.157.028-.24 0-.084.003-.167 0-.244l-.007-.115a1.082 1.082 0 0 0-.014-.118 3.116 3.116 0 0 0-.361-1.106 4.507 4.507 0 0 0-.513-.763l-.007-.007c.343-.107.669-.163.957-.187l.222-.01c.073-.004.146 0 .212 0 .135-.004.26.017.378.023.469.046.791.15 1.017.213.229.062.357.104.447.108.084.003.122-.021.146-.06.024-.034.035-.08-.01-.156-.049-.073-.149-.191-.371-.338a3.486 3.486 0 0 0-1.107-.462c-.136-.028-.278-.067-.437-.08-.084-.01-.163-.025-.25-.028l-.267-.014a4.684 4.684 0 0 0-1.253.153 4.031 4.031 0 0 0-.402.129 7.23 7.23 0 0 0-.677-.505 7.638 7.638 0 0 0-.847-.466 7.638 7.638 0 0 0-.933-.358 8.29 8.29 0 0 0-4.264-.143 8.355 8.355 0 0 0-2.214.835c-.36.198-.711.428-1.044.692l-.062.05-.059.051-.122.105c-.08.07-.159.139-.243.208-.038.039-.079.07-.118.108l-.111.115-.225.233c-2.384 2.54-3.265 6.597-2.075 10.209.291.901.69 1.768 1.183 2.582a13.326 13.326 0 0 0 1.725 2.275c.315.338.645.658.988.964-.381.327-.739.675-1.072 1.044a12.918 12.918 0 0 0-1.613 2.22 14.056 14.056 0 0 0-1.117 2.436 16.907 16.907 0 0 0-.663 2.512c-.309 1.68-.382 3.337-.316 4.91.063 1.58.271 3.082.573 4.481a27.75 27.75 0 0 0 2.564 7.05 27.218 27.218 0 0 0 2.363 3.705c-.007.174-.004.348.013.519.049.504.216.967.455 1.35.118.19.257.358.402.504.073.073.15.14.226.205.08.06.153.122.239.174.32.216.67.345 1.01.397.343.049.663.017.958-.084.288-.1.506-.254.676-.414.17-.16.292-.33.378-.49.177-.33.219-.627.205-.846a.926.926 0 0 0-.142-.459c-.059-.09-.122-.125-.167-.136a.198.198 0 0 0-.128.018c-.083.034-.142.097-.18.236-.025.073-.039.16-.087.279-.042.114-.115.26-.247.42-.069.077-.152.16-.256.234-.104.07-.229.129-.358.156a1.095 1.095 0 0 1-.461-.01 1.465 1.465 0 0 1-.545-.261c-.048-.031-.09-.073-.139-.111-.041-.042-.086-.084-.128-.133a1.825 1.825 0 0 1-.232-.313 2.021 2.021 0 0 1-.25-.835 2.532 2.532 0 0 1 .142-1.037c.038-.087.066-.18.114-.264.021-.045.046-.09.066-.136l.08-.129.038-.062.045-.063.094-.122c.07-.076.135-.163.215-.23.038-.034.073-.076.115-.104.041-.034.083-.066.125-.097.041-.035.09-.056.131-.087l.07-.042c.021-.014.045-.024.069-.038.191-.105.406-.174.628-.226.226-.053.465-.066.705-.06.059.004.118 0 .18.011l.18.02c.122.025.243.043.365.08.121.029.236.074.354.116l.173.076c.059.028.115.06.17.087.219.125.43.268.614.446.184.177.351.379.496.598.143.223.261.466.354.72.049.126.084.258.122.387l.045.201c.014.067.021.136.034.202.039.272.053.55.039.825a4.242 4.242 0 0 1-.125.81c-.07.269-.167.526-.285.773-.239.49-.579.922-.989 1.253a3.142 3.142 0 0 1-.659.41 3.385 3.385 0 0 1-.728.244c-.25.052-.504.083-.757.087-.125.007-.25-.004-.374-.007-.063-.004-.122-.01-.184-.018a1.545 1.545 0 0 1-.184-.02l-.181-.028c-.059-.014-.118-.025-.18-.039-.118-.02-.233-.059-.344-.09a4.784 4.784 0 0 1-.648-.247 6.158 6.158 0 0 1-1.475-.981 17.477 17.477 0 0 0-1.173-1.994c-.243-.362-.489-.724-.735-1.086-.247-.365-.496-.73-.725-1.11a22.69 22.69 0 0 1-1.295-2.376 22.766 22.766 0 0 1-1.054-2.592c-.038-.112-.08-.227-.118-.338l-.056-.17-.052-.17-.208-.686c-.121-.466-.246-.933-.347-1.406a25.873 25.873 0 0 1-.479-2.905 28.603 28.603 0 0 1-.159-2.996c.007-1.01.069-2.022.187-3.034l.045-.383.024-.188.028-.191c.042-.25.08-.505.122-.759l.145-.755c.049-.25.111-.5.167-.751a26.1 26.1 0 0 1 .892-2.958c.353-.97.777-1.914 1.252-2.832.118-.227.233-.46.368-.679l.191-.337c.066-.112.125-.227.194-.334.225-.355.451-.714.673-1.069.01-.014.021-.024 0-.03l-.038-.025-.073-.045-.149-.09-.295-.185-.153-.094c-.048-.032-.093-.063-.142-.094l-.104-.066c-.024-.018-.052-.035-.076-.056a7.693 7.693 0 0 1-2.02-2.136 9.8 9.8 0 0 1-1.2-2.714 11.357 11.357 0 0 1-.316-4.398c.035-.244.059-.488.111-.724.021-.122.042-.244.066-.362.017-.122.052-.237.08-.358.434-1.904 1.228-3.678 2.151-5.31.923-1.636 1.981-3.135 3.025-4.555 1.048-1.423 2.079-2.773 2.998-4.099.927-1.322 1.735-2.623 2.387-3.893.323-.637.614-1.26.85-1.876.035-.076.063-.153.094-.23.028-.072.055-.152.083-.226.056-.153.108-.302.16-.452.052-.15.097-.299.142-.445.045-.146.094-.293.132-.439.323-1.158.493-2.233.552-3.18.059-.946 0-1.76-.084-2.418-.055-.327-.093-.616-.159-.86-.059-.247-.101-.459-.156-.622-.101-.33-.157-.501-.157-.501l.143.504c.052.167.086.376.138.623.063.247.091.54.136.863.069.654.104 1.465.024 2.4-.083.94-.281 1.998-.628 3.136-.038.142-.09.285-.139.431-.048.143-.097.289-.149.435-.055.146-.114.292-.17.442-.031.073-.059.15-.087.223-.034.073-.066.15-.097.222-.25.606-.551 1.211-.885 1.83-.676 1.24-1.505 2.51-2.453 3.8-.412.564-.843 1.131-1.29 1.709.166-.404.316-.835.434-1.291.156-.616.253-1.28.26-1.973a6.568 6.568 0 0 0-.34-2.126c-.056-.177-.132-.348-.205-.525a10.26 10.26 0 0 0-.128-.258c-.007-.014-.014-.028-.025-.042.052-.18.094-.362.122-.536a6.57 6.57 0 0 0 0-1.986 12.466 12.466 0 0 0-.358-1.625c-.138-.49-.284-.943-.44-1.357a17.73 17.73 0 0 0-.462-1.142c-.628-1.38-1.211-2.244-1.634-2.807a7.002 7.002 0 0 0-.538-.637 2.025 2.025 0 0 0-.35-.303c-.177-.115-.257-.087-.326-.035-.07.056-.122.126-.066.327.024.101.08.233.166.418.087.18.209.41.365.71.309.598.78 1.461 1.315 2.787.128.33.267.689.395 1.085.136.39.264.818.385 1.28.122.46.236.954.306 1.473.045.33.066.675.055 1.023a3.763 3.763 0 0 0-.784-.512c-.09-.052-.194-.083-.291-.125-.101-.035-.202-.07-.306-.098-.104-.02-.211-.052-.315-.062l-.164-.021a1.368 1.368 0 0 0-.17-.007 2.673 2.673 0 0 0-1.294.296l-.149.08c-.048.024-.094.055-.142.087-.045.031-.094.055-.135.094l-.136.1a.473.473 0 0 1-.066.056l-.059.056-.121.118c-.042.042-.076.087-.115.129-.034.049-.076.087-.107.136-.063.097-.135.191-.184.299-.028.052-.056.1-.083.156l-.063.171-.031.084c-.01.027-.017.059-.024.087l-.042.177c-.01.06-.014.125-.021.188l-.007.09a.267.267 0 0 0-.003.094c0 .494.173.992.475 1.36l.111.14.125.125.063.06c.02.02.045.038.066.055l.135.108c.184.132.381.25.586.334a2.796 2.796 0 0 0 2.571-.181c.368-.22.684-.498.937-.807.156-.188.291-.39.409-.599.018.049.042.094.056.143.253.602.371 1.245.409 1.879a7.868 7.868 0 0 1-.128 1.847 9.638 9.638 0 0 1-.486 1.664c-.142.372-.302.723-.468 1.054-.257.327-.514.661-.774.998-1.079 1.403-2.182 2.895-3.161 4.548-.978 1.65-1.839 3.462-2.335 5.453-.031.125-.066.247-.09.375-.028.126-.052.25-.076.376-.059.254-.091.508-.129.766-.079.511-.118 1.04-.125 1.565-.01 1.051.108 2.116.375 3.156a10.944 10.944 0 0 0 1.26 2.986 8.681 8.681 0 0 0 2.231 2.432l.083.063.059.041.041.028c.021.017.052.031.066.049l-.048.073-.028.038Z"/><path fill="#EAE6DF" d="M345.449 58.53a2.57 2.57 0 0 1 .104-.243c.034-.078.067-.155.101-.226.067-.149.125-.29.192-.416.064-.128.121-.246.179-.354a5.41 5.41 0 0 1 .154-.294l.307-.533-.354.506c-.057.081-.114.176-.178.28-.068.105-.135.216-.212.338-.078.121-.145.26-.226.402a12.757 12.757 0 0 0-.246.456l-.252.516c-.081.183-.158.378-.246.578-.02.05-.04.098-.064.152-.017.05-.037.1-.057.155-.037.105-.078.213-.118.32-.084.22-.152.45-.226.686a15.527 15.527 0 0 0-.609 3.198 15.25 15.25 0 0 0 .168 3.7c.108.635.266 1.274.488 1.905.223.631.516 1.253.899 1.827a6.172 6.172 0 0 0 1.415 1.516c.552.425 1.188.75 1.865.925.34.088.683.139 1.037.145.354.01.7-.03 1.03-.104a4.038 4.038 0 0 0 1.781-.881c.132-.102.243-.223.354-.338.054-.061.104-.122.155-.186.054-.057.094-.128.141-.19l.068-.097c.016-.034.037-.067.057-.101.037-.071.081-.132.114-.206a6.71 6.71 0 0 1 .098-.213c.03-.07.051-.145.077-.216l.034-.105c.014-.037.02-.074.03-.108.014-.074.034-.145.048-.216.02-.142.047-.28.05-.422a3.436 3.436 0 0 0-.579-2.148 2.805 2.805 0 0 0-.953-.87 2.518 2.518 0 0 0-1.077-.308 2.804 2.804 0 0 0-.903.101 2.643 2.643 0 0 0-1.155.659 1.945 1.945 0 0 0-.468.702 1.09 1.09 0 0 0-.08.453.32.32 0 0 0 .07.202c.034.037.074.047.118.057.088.017.168.004.28-.114.053-.058.121-.139.222-.25a2.192 2.192 0 0 1 1.252-.689c.347-.06.788-.04 1.162.196.199.121.38.3.535.537.152.236.266.533.317.868.017.168.037.344.017.523 0 .088-.024.175-.034.267-.014.044-.024.09-.034.135-.006.023-.01.044-.017.067l-.023.064c-.017.044-.027.092-.047.132l-.061.128c-.02.04-.05.085-.074.129l-.034.064-.047.06c-.03.041-.054.085-.091.126-.03.04-.064.08-.101.121-.074.075-.148.156-.235.223a2.743 2.743 0 0 1-.573.378c-.209.105-.437.19-.677.247-.235.06-.484.094-.734.094a3.3 3.3 0 0 1-.761-.09 4.124 4.124 0 0 1-1.478-.676 5.375 5.375 0 0 1-1.222-1.202c-.7-.95-1.138-2.118-1.411-3.296a15.034 15.034 0 0 1-.383-3.498 15.468 15.468 0 0 1 1.121-5.548ZM311.822 111.63a6.378 6.378 0 0 0-1.514-1.42 8.164 8.164 0 0 0-1.82-.902 11.767 11.767 0 0 0-1.9-.489 15.164 15.164 0 0 0-3.69-.168c-1.169.099-2.25.325-3.188.614-.237.073-.466.138-.685.226-.109.04-.214.076-.32.117l-.156.058c-.051.022-.099.044-.153.066-.197.084-.39.164-.572.244-.178.088-.349.172-.517.252-.08.04-.156.08-.232.124-.077.04-.15.084-.222.121-.142.08-.281.149-.397.23-.124.076-.237.146-.342.208-.102.065-.197.124-.277.182-.327.23-.506.354-.506.354l.535-.306c.084-.052.182-.103.291-.157l.353-.179c.124-.07.266-.124.415-.194l.226-.102c.076-.033.156-.069.24-.102a15.244 15.244 0 0 1 5.536-1.124 14.849 14.849 0 0 1 3.486.383c1.176.277 2.341.715 3.283 1.416.473.351.877.763 1.201 1.226.328.46.557.968.674 1.482a3.105 3.105 0 0 1 0 1.5 3.647 3.647 0 0 1-.248.679 2.776 2.776 0 0 1-.378.573c-.07.088-.15.161-.222.238-.044.032-.084.069-.124.102-.037.036-.08.058-.12.091l-.062.044-.066.036c-.043.026-.083.055-.127.073-.044.022-.087.04-.127.059-.044.022-.088.033-.131.051l-.066.022c-.022.007-.044.011-.065.018l-.135.033c-.091.011-.179.033-.27.033-.178.022-.353.003-.52-.015a2.21 2.21 0 0 1-.862-.321 1.673 1.673 0 0 1-.539-.533c-.233-.376-.255-.818-.193-1.164.058-.354.193-.628.32-.825.131-.201.259-.332.364-.431.113-.102.193-.171.248-.223.12-.113.134-.193.116-.281a.202.202 0 0 0-.054-.12c-.037-.033-.099-.062-.201-.069a1.056 1.056 0 0 0-.455.08 1.981 1.981 0 0 0-.702.467 2.78 2.78 0 0 0-.753 2.066c.018.336.102.715.305 1.08.193.358.492.694.87.953.379.263.834.452 1.343.544.255.036.521.062.797.04.139-.004.28-.033.422-.051.07-.015.142-.033.215-.048.033-.011.069-.018.106-.029.036-.011.072-.022.109-.036.069-.026.142-.044.211-.077l.215-.099c.072-.032.134-.073.203-.113.033-.018.066-.04.099-.058l.098-.069a1.77 1.77 0 0 0 .189-.139c.062-.051.124-.106.186-.157a4.216 4.216 0 0 0 .884-1.183 4.446 4.446 0 0 0 .437-1.989 4.483 4.483 0 0 0-.146-1.04 5.242 5.242 0 0 0-.92-1.872Z"/><path fill="#EAE6DF" d="M258.267 109.383c.004-.557.342-1.147.799-1.453.228-.151.474-.232.713-.221.059.007.118.003.177.022l.084.022a.566.566 0 0 0 .085.029c.011.008.026.011.041.015l.04.022.077.044c.026.019.052.034.078.052l.036.026.037.033.07.059.066.074.033.033.03.041.059.077c.073.115.139.229.187.358.052.126.077.258.103.387.015.133.022.262.004.388-.022.24-.114.498-.254.723a2.341 2.341 0 0 1-.541.605 2.949 2.949 0 0 1-.71.424c-.11.052-.22.089-.334.122a3.07 3.07 0 0 1-.703-1.004l-.022-.055-.022-.052-.037-.11c-.018-.074-.04-.148-.055-.222-.011-.073-.033-.147-.033-.221l-.011-.111c0-.036.003-.07.003-.107Zm32.619 6.434c.062.192.106.388.125.579.007.096.015.192.011.288 0 .092-.007.177-.022.266a1.893 1.893 0 0 1-.471.959c-.247.255-.548.387-.853.369-.309-.019-.63-.196-.872-.465a1.803 1.803 0 0 1-.306-.454c-.022-.04-.036-.085-.055-.129-.018-.04-.029-.085-.04-.125-.015-.045-.022-.092-.033-.137a1.814 1.814 0 0 1-.026-.144c-.059-.38-.022-.789.073-1.195.1-.406.251-.815.442-1.21l.066-.151c.022-.048.052-.096.077-.144l.151-.291c.052-.096.107-.189.162-.285.04-.066.077-.132.118-.199.059.074.117.144.173.218.062.092.132.181.198.269l.188.277c.129.184.25.373.36.561.225.372.416.756.534 1.143Zm-16.385 4.062a2.21 2.21 0 0 1 .666-.365c.121-.037.246-.067.375-.074.133-.011.239-.004.364.022.122.03.247.074.361.14.114.067.217.155.302.251.172.199.246.424.191.653a.863.863 0 0 1-.173.343 1.156 1.156 0 0 1-.357.295 1.377 1.377 0 0 1-.463.163c-.041 0-.081.011-.122.007-.04 0-.077.007-.121 0l-.07-.004-.07-.011c-.044-.003-.088-.014-.136-.022-.368-.081-.747-.299-1.104-.601-.073-.067-.147-.133-.22-.203.022-.03.04-.055.062-.081.144-.185.317-.362.515-.513Zm-25.118-10.702c.148.147.354.324.633.538.563.425 1.424 1.008 2.803 1.638.346.152.721.314 1.137.465.412.155.861.303 1.354.439.485.14 1.022.273 1.618.358a6.457 6.457 0 0 0 1.979 0c.177-.026.357-.066.534-.118.018.007.029.015.044.022.085.048.173.089.258.129.172.07.345.152.522.207.706.247 1.431.336 2.122.339a8.252 8.252 0 0 0 1.969-.262 9.332 9.332 0 0 0 1.283-.435c-.574.45-1.144.882-1.703 1.295-1.287.952-2.553 1.785-3.785 2.461-.618.335-1.225.638-1.828.889a3.883 3.883 0 0 0-.221.096c-.074.029-.151.055-.225.084-.147.059-.294.115-.437.174-.147.051-.295.099-.438.147-.144.052-.283.104-.427.141a15.11 15.11 0 0 1-3.127.627c-.934.085-1.74.048-2.394-.022-.324-.045-.615-.074-.861-.133-.247-.056-.456-.089-.622-.144l-.504-.14s.173.055.5.155c.166.055.376.099.622.158.243.067.534.104.861.159.651.085 1.464.144 2.409.085a15.585 15.585 0 0 0 3.609-.686l.445-.141c.144-.055.298-.107.449-.162.074-.026.151-.052.228-.081a4.17 4.17 0 0 1 .228-.092c.615-.24 1.236-.532 1.869-.856 1.265-.653 2.56-1.468 3.881-2.394 1.321-.923 2.667-1.959 4.087-3.007s2.913-2.107 4.543-3.036c1.63-.923 3.399-1.719 5.297-2.158.118-.026.236-.059.353-.078l.361-.066c.239-.052.482-.078.725-.111.481-.063.971-.088 1.46-.085.982.008 1.968.137 2.924.402a9.844 9.844 0 0 1 2.708 1.203 7.829 7.829 0 0 1 2.13 2.025l.055.078.066.103c.033.048.063.092.092.144l.092.151.184.299.092.148.048.073.022.037c.004.022.018.011.029.004.357-.225.714-.45 1.067-.675.111-.07.221-.133.331-.199l.339-.192c.22-.133.449-.247.677-.369.916-.476 1.857-.9 2.825-1.254a25.812 25.812 0 0 1 2.95-.893c.25-.055.497-.118.747-.17l.754-.144.758-.121.187-.03.192-.022.379-.048a27.915 27.915 0 0 1 3.023-.185c1.008 0 2.005.052 2.987.159.986.1 1.954.269 2.899.48.475.099.938.228 1.402.35l.684.207.173.051.165.059a23.37 23.37 0 0 1 2.921 1.17c.828.398 1.626.826 2.373 1.302.379.229.739.48 1.103.727.365.247.725.494 1.086.734a17.81 17.81 0 0 0 1.986 1.181c.357.405.71.892.979 1.479.099.203.176.42.246.649.03.115.07.229.092.347.011.059.026.118.037.177s.018.122.026.181c.014.063.018.122.025.184.004.063.011.126.015.185.004.125.015.251.007.376a3.754 3.754 0 0 1-.088.76 3.261 3.261 0 0 1-.243.73 3.019 3.019 0 0 1-.408.664 3.747 3.747 0 0 1-1.251.989 4.57 4.57 0 0 1-.769.288 4.543 4.543 0 0 1-.809.125 4.335 4.335 0 0 1-.82-.04c-.066-.015-.136-.019-.202-.037l-.199-.044a3.795 3.795 0 0 1-1.107-.476 3.57 3.57 0 0 1-.596-.498 2.93 2.93 0 0 1-.442-.616c-.029-.056-.062-.111-.088-.17l-.074-.174c-.044-.118-.092-.236-.117-.357-.037-.118-.056-.24-.081-.362-.008-.063-.011-.122-.022-.184-.008-.059-.004-.122-.008-.181-.007-.24.008-.48.059-.705.052-.221.122-.439.225-.627.014-.026.022-.052.036-.074l.044-.066c.03-.044.052-.092.085-.133.033-.04.063-.085.099-.125.03-.045.07-.078.103-.118.07-.082.155-.144.228-.214l.126-.093.058-.044.067-.04c.044-.026.084-.052.125-.082.048-.022.092-.044.136-.066.084-.048.176-.074.265-.114a2.533 2.533 0 0 1 1.033-.144c.32.026.604.122.832.254.117.067.22.148.312.233.052.04.092.085.133.129.037.044.077.088.11.136.14.185.221.373.261.546.041.174.037.343.011.465a1.072 1.072 0 0 1-.158.358 1.6 1.6 0 0 1-.231.258 1.454 1.454 0 0 1-.42.247c-.118.048-.206.063-.276.089-.143.033-.202.096-.235.177-.019.041-.033.081-.019.129.011.048.045.107.133.17a.984.984 0 0 0 .46.14c.217.015.515-.029.842-.203a2.08 2.08 0 0 0 .489-.38c.159-.173.313-.391.412-.679.103-.295.133-.616.081-.959a2.447 2.447 0 0 0-.393-1.018 2.738 2.738 0 0 0-.379-.461 2.901 2.901 0 0 0-.501-.406 3.144 3.144 0 0 0-1.865-.468 26.44 26.44 0 0 0-3.697-2.369 27.338 27.338 0 0 0-7.026-2.571 25.963 25.963 0 0 0-4.466-.576c-1.57-.066-3.222.008-4.896.314-.835.159-1.677.376-2.505.668-.831.291-1.648.664-2.432 1.117-.783.454-1.523 1-2.21 1.62-.372.332-.718.694-1.042 1.077a13.462 13.462 0 0 0-.963-.992 13.65 13.65 0 0 0-2.27-1.734 12.195 12.195 0 0 0-2.571-1.181c-3.605-1.195-7.652-.313-10.183 2.077a8.125 8.125 0 0 1-.232.225l-.11.115c-.04.037-.073.081-.11.121-.07.082-.14.159-.21.24l-.103.122-.055.059-.044.063a7.578 7.578 0 0 0-.692 1.047 8.467 8.467 0 0 0-.835 2.221 8.385 8.385 0 0 0 .144 4.276c.099.325.22.635.356.933a6.78 6.78 0 0 0 .968 1.531 4.748 4.748 0 0 0-.28 1.657c.004.096.008.184.015.269.004.085.018.17.026.251.014.159.051.306.081.439.128.542.32.885.459 1.107.148.225.265.324.339.372.077.048.121.037.154.015.041-.026.067-.063.063-.151-.007-.085-.048-.218-.11-.447-.063-.225-.166-.546-.214-1.018-.007-.118-.022-.243-.022-.38 0-.066-.004-.136 0-.21l.011-.225c.026-.292.077-.612.188-.959l.007.007c.232.196.489.373.762.517.268.144.562.258.871.321.074.014.151.029.229.036.04.008.077.012.117.015l.114.008c.078.007.162 0 .243 0 .085-.004.162-.019.243-.03a2.452 2.452 0 0 0 1.541-.9c.184-.236.324-.524.383-.83.062-.306.04-.624-.052-.908a2.089 2.089 0 0 0-.426-.719 2.358 2.358 0 0 0-1.273-.705 2.368 2.368 0 0 0-.684-.025 2.83 2.83 0 0 0-1.133.398 3.626 3.626 0 0 0-.795.664c-.081.085-.151.17-.221.258a2.99 2.99 0 0 1-.11-.166 6.728 6.728 0 0 1-.379-.704c-.11-.251-.21-.51-.294-.783a7.235 7.235 0 0 1-.1-3.637 7.32 7.32 0 0 1 .714-1.889c.169-.302.364-.597.581-.878.111-.136.236-.269.35-.409.033-.034.062-.07.092-.104l.099-.096c.066-.062.132-.129.199-.191 1.077-1.019 2.512-1.749 4.079-2.081a9.475 9.475 0 0 1 2.424-.203 9.435 9.435 0 0 1 2.45.435c.802.251 1.59.605 2.333 1.044.746.439 1.449.967 2.096 1.561.365.332.71.69 1.042 1.062l-.1.137c-.07.096-.125.199-.191.302-.059.1-.125.2-.184.303l-.173.317c-.026.052-.055.103-.081.159l-.077.162a6.922 6.922 0 0 0-.526 1.365c-.125.487-.191 1.015-.122 1.55.012.07.019.136.034.202.011.067.025.133.047.2.019.07.034.136.059.203.026.066.048.132.081.195.114.255.265.494.449.705.188.214.408.398.662.542.258.144.552.243.861.269a1.96 1.96 0 0 0 .909-.144c.286-.118.533-.295.739-.498a2.893 2.893 0 0 0 .82-1.922 4.042 4.042 0 0 0-.165-1.199c-.147-.505-.372-.959-.615-1.387a11.95 11.95 0 0 0-.386-.616l-.198-.302c-.07-.096-.144-.192-.21-.292a13.968 13.968 0 0 0-.39-.509 11.865 11.865 0 0 1 3.09-2.704 13.388 13.388 0 0 1 2.284-1.114c.788-.295 1.59-.524 2.392-.697 1.607-.336 3.218-.447 4.76-.421 1.541.026 3.02.192 4.399.454a27.284 27.284 0 0 1 7.019 2.354 27.042 27.042 0 0 1 3.671 2.202 3.538 3.538 0 0 0-.934.195c-.132.052-.269.096-.397.166-.067.034-.133.063-.195.096-.063.041-.125.078-.192.118l-.095.059-.092.067c-.063.044-.122.092-.184.136-.114.107-.239.203-.346.329-.055.059-.114.114-.162.18a4.85 4.85 0 0 0-.151.196c-.051.066-.092.14-.136.21l-.066.111c-.022.033-.037.074-.059.111a3.703 3.703 0 0 0-.327.951 3.88 3.88 0 0 0-.066 1.015c.007.085.007.17.022.254.011.085.022.17.037.251a4.89 4.89 0 0 0 .297.989c.037.077.078.155.114.232.037.082.085.155.126.229.18.299.393.587.651.834.254.247.533.461.835.638.301.177.621.314.953.421.165.055.334.092.5.129l.254.044c.084.015.173.019.253.03.343.033.685.033 1.023-.004.339-.041.67-.111.99-.214.32-.103.625-.24.916-.406a4.456 4.456 0 0 0 1.442-1.302c.184-.266.334-.55.445-.845.11-.291.187-.59.228-.885a4.5 4.5 0 0 0 .037-.878c-.004-.144-.022-.284-.037-.425-.011-.066-.022-.136-.037-.203-.007-.07-.022-.136-.037-.202a4.834 4.834 0 0 1-.048-.2l-.055-.191c-.037-.13-.084-.251-.125-.373a5.972 5.972 0 0 0-.324-.683 6.024 6.024 0 0 0-.721-1.014c.269.111.541.214.824.299a7.65 7.65 0 0 0 1.233.254c.412.045.82.052 1.225.026a5.714 5.714 0 0 0 1.184-.21 5.154 5.154 0 0 0 1.093-.476c.338-.21.647-.458.912-.742.53-.579.857-1.283.99-1.981.066-.35.092-.701.073-1.044a4.116 4.116 0 0 0-.165-.996 3.896 3.896 0 0 0-.394-.9c-.081-.144-.18-.269-.272-.398l-.155-.177-.077-.089-.084-.081c-.056-.052-.107-.107-.166-.159l-.173-.144a2.02 2.02 0 0 0-.18-.132c-.063-.041-.121-.085-.184-.126l-.188-.107c-.033-.018-.062-.037-.092-.055l-.099-.044c-.066-.034-.129-.063-.191-.093a16.273 16.273 0 0 1-.199-.077 4.147 4.147 0 0 0-1.574-.269 3.781 3.781 0 0 0-2.057.66 3.898 3.898 0 0 0-.511.428c-.618.616-.953 1.417-.945 2.173 0 .376.081.719.202 1.025.125.303.291.568.485.794.195.221.42.402.655.527.236.129.478.207.721.244.059.007.114.007.173.014.03 0 .059.004.085.004.029-.004.055-.004.084-.004l.162-.011c.052-.007.103-.018.155-.026a.922.922 0 0 0 .143-.033c.048-.015.092-.026.136-.04.089-.034.17-.063.247-.1.309-.151.533-.339.691-.524.078-.096.148-.181.195-.269.026-.044.052-.085.07-.129.019-.041.033-.081.052-.118a.912.912 0 0 0 .059-.214.58.58 0 0 0 .022-.17.862.862 0 0 0 0-.125.295.295 0 0 0-.022-.093c-.03-.103-.07-.118-.114-.121-.041 0-.089.014-.137.092-.011.018-.025.04-.036.066-.015.026-.037.056-.056.089a.479.479 0 0 1-.062.114c-.029.041-.048.089-.092.133a.476.476 0 0 1-.055.077c-.022.026-.048.048-.07.078-.048.055-.11.107-.177.162a1.669 1.669 0 0 1-.54.299 1.445 1.445 0 0 1-.78.055 1.47 1.47 0 0 1-.824-.553 1.881 1.881 0 0 1-.298-.55 1.82 1.82 0 0 1-.103-.682c.014-.469.25-1.011.702-1.432.114-.107.239-.21.376-.295.139-.088.287-.169.441-.232a2.81 2.81 0 0 1 1.041-.203c.375 0 .773.066 1.151.225l.144.055c.048.026.096.048.14.07l.07.037c.025.011.047.026.07.041l.136.081c.044.03.088.063.132.092.041.03.085.063.125.1.044.033.081.066.125.103.037.037.077.074.114.115l.059.059.052.062c.036.041.073.082.106.126.063.088.133.177.181.276a2.848 2.848 0 0 1 .378 1.347c.011.247-.011.502-.062.756a2.91 2.91 0 0 1-.699 1.384 3.303 3.303 0 0 1-.651.516c-.247.14-.519.258-.809.347a5.013 5.013 0 0 1-.927.159 5.643 5.643 0 0 1-.994-.03 5.565 5.565 0 0 1-1.015-.214 12.17 12.17 0 0 1-.254-.081 10.02 10.02 0 0 1-.769-.317c-.684-.318-1.364-.738-2.063-1.207-.354-.236-.707-.483-1.075-.73a25.602 25.602 0 0 0-1.147-.753 23.952 23.952 0 0 0-2.498-1.368 24.499 24.499 0 0 0-2.722-1.103c-.118-.037-.236-.078-.353-.118l-.177-.06-.18-.051a45.426 45.426 0 0 0-.718-.214c-.489-.126-.978-.258-1.475-.358a25.75 25.75 0 0 0-3.035-.48 29.328 29.328 0 0 0-3.119-.136 27.517 27.517 0 0 0-3.156.229l-.398.051-.195.026-.198.033c-.261.048-.523.093-.787.137l-.784.162c-.261.055-.519.122-.78.185-1.037.262-2.06.586-3.06.97-1.005.387-1.98.845-2.925 1.354-.239.129-.475.254-.703.395l-.345.206c-.118.07-.232.137-.346.21l-.147.1-.037.026-.074.048c-.018-.011-.033-.044-.047-.067l-.03-.04-.04-.059c-.022-.03-.045-.056-.063-.085a8.654 8.654 0 0 0-2.428-2.236 10.704 10.704 0 0 0-2.976-1.261 11.983 11.983 0 0 0-4.708-.255c-.254.041-.512.074-.762.129l-.375.078c-.129.025-.25.062-.375.092-1.983.498-3.793 1.361-5.437 2.339-1.648.985-3.135 2.088-4.536 3.172l-.993.775c-.331.166-.681.328-1.052.472a9.39 9.39 0 0 1-1.66.484 7.756 7.756 0 0 1-1.842.132c-.63-.04-1.27-.158-1.873-.409-.048-.018-.092-.041-.14-.059.206-.118.405-.255.596-.41.309-.254.589-.571.802-.937.217-.372.368-.789.405-1.258a2.626 2.626 0 0 0-.033-.675 2.84 2.84 0 0 0-.188-.645 2.829 2.829 0 0 0-.335-.591l-.106-.136-.056-.066-.062-.063-.125-.122-.136-.114a2.174 2.174 0 0 0-1.358-.48c-.033 0-.062 0-.095.004l-.089.007c-.062.008-.125.011-.187.022l-.177.045c-.029.007-.059.011-.088.022l-.085.029-.169.067a2.281 2.281 0 0 0-.154.081c-.111.051-.203.122-.298.188-.048.029-.089.07-.133.107-.044.037-.088.074-.129.111l-.117.125-.059.059-.055.066-.103.133c-.033.045-.059.093-.092.137-.03.048-.063.096-.089.144l-.077.147a2.709 2.709 0 0 0-.294 1.299c0 .059 0 .114.007.169l.019.163c.014.11.044.214.066.317.026.107.059.207.096.31.04.096.073.199.125.291.136.288.312.55.507.786a6.22 6.22 0 0 1-1.019-.055 12.084 12.084 0 0 1-1.467-.306 18.593 18.593 0 0 1-1.277-.384c-.394-.133-.75-.269-1.085-.402-1.321-.535-2.182-1.007-2.774-1.317-.298-.159-.53-.277-.71-.365a2.546 2.546 0 0 0-.419-.166c-.199-.056-.269-.004-.324.066-.051.066-.081.148.037.328.055.089.151.207.301.351ZM346.605 110.078c-.818-.452-1.682-.536-2.387-.354-.707.176-1.236.653-1.472 1.099a2.34 2.34 0 0 0-.328 1.204c.019.685.306.996.441 1.109.163.113.225.076.283.029.062-.048.101-.113.077-.259-.011-.153-.099-.391-.029-.832.079-.409.351-1.171 1.262-1.365.449-.094 1.049-.029 1.625.307.564.328 1.094.945 1.307 1.817.219.861.119 1.908-.389 2.751-.517.839-1.468 1.459-2.529 1.667-1.062.219-2.204.04-3.124-.525-.939-.551-1.659-1.416-2.096-2.343a6.048 6.048 0 0 1-.586-2.805c.026-.89.219-1.675.444-2.306a8.887 8.887 0 0 1 .67-1.434c.189-.321.312-.485.312-.485s-.134.153-.353.46a8.443 8.443 0 0 0-.789 1.393 7.656 7.656 0 0 0-.629 2.35 6.392 6.392 0 0 0 .429 3.046c.415 1.04 1.15 2.058 2.194 2.758 1.036.716 2.408 1.015 3.689.803 1.285-.193 2.523-.905 3.252-2.014.71-1.116.85-2.448.566-3.583-.279-1.149-1.017-2.035-1.84-2.488Z"/><path fill="#EAE6DF" d="M333.329 107.028c.423-.219 1.079-.102 1.563.278.11.077.208.172.299.271a3.116 3.116 0 0 1-.244.413c-.142.197-.31.372-.507.508a1.404 1.404 0 0 1-.641.226c-.496.059-.977-.157-1.079-.53-.127-.351.161-.95.609-1.166Zm8.911-12.408c.062-.493.538-.958.914-.943.381-.026.74.362.84.855.057.238.043.48-.012.684a2.184 2.184 0 0 1-.318.64 3.71 3.71 0 0 1-.314.365 2.373 2.373 0 0 1-.351-.197c-.515-.344-.832-.933-.759-1.404Zm-9.611 14.985c.426.205.867.256 1.283.212.415-.04.809-.186 1.148-.417.302-.212.543-.467.74-.731.029.092.054.187.08.286.357 1.363.047 2.945.379 4.524a7.557 7.557 0 0 0 2.19 3.904 6.973 6.973 0 0 0 3.473 1.813 7.431 7.431 0 0 0 3.108-.055 7.228 7.228 0 0 0 1.911-.753c.211-.117.364-.223.467-.296l.157-.106-.165.098a5.482 5.482 0 0 1-.481.264 7.234 7.234 0 0 1-1.922.625 7.295 7.295 0 0 1-2.998-.114 6.59 6.59 0 0 1-3.163-1.867 7.019 7.019 0 0 1-1.845-3.652c-.247-1.392.132-2.942-.211-4.594a4.378 4.378 0 0 0-.412-1.162c.08-.216.146-.428.201-.632.269-1.049.371-1.967.397-2.763.04-1.598-.186-2.672-.379-3.385-.175-.621-.332-.972-.452-1.173.226.055.609.091 1.254.062.729-.044 1.822-.168 3.316-.713a12.566 12.566 0 0 0 2.49-1.25c.175-.117.356-.248.534-.39.416.069.836.069 1.228.021 1.672-.197 3.021-1.049 4.415-1.253 1.4-.223 2.84.025 4.036.599a6.546 6.546 0 0 1 2.767 2.416 7.27 7.27 0 0 1 1.056 2.814 7.13 7.13 0 0 1-.119 2.756l.054-.183a4.78 4.78 0 0 0 .129-.537 7.125 7.125 0 0 0 .107-2.054 7.487 7.487 0 0 0-.929-2.975 6.95 6.95 0 0 0-2.819-2.727 7.492 7.492 0 0 0-4.385-.851c-1.595.186-2.997.98-4.4 1.074a3.97 3.97 0 0 1-.293.011c.188-.27.353-.577.456-.932.111-.398.126-.815.03-1.224a2.365 2.365 0 0 0-.604-1.155 1.804 1.804 0 0 0-1.34-.548c-.523.018-.988.277-1.309.62a2.262 2.262 0 0 0-.608 1.273c-.109 1.027.51 1.893 1.246 2.368.022.011.044.026.066.04-.776.508-1.52.874-2.172 1.144-1.367.556-2.369.75-3.043.885-1.371.234-1.491.307-1.487.479-.161.05-.193.186.018 1.56.087.687.219 1.703.127 3.176a12.916 12.916 0 0 1-.393 2.431l-.062-.051c-.678-.549-1.695-.863-2.631-.435a2.271 2.271 0 0 0-1.01.983 1.912 1.912 0 0 0-.175 1.44c.142.501.521.899.944 1.1Z"/><path fill="#EAE6DF" d="M343.223 107.061c-.493.194-1.184.111-1.802-.337-.623-.431-1.184-1.094-1.62-1.697a9.307 9.307 0 0 1-.934-1.657c-.193-.444-.282-.728-.282-.728s.021.294.118.782c.096.481.286 1.159.625 1.88.351.72.805 1.499 1.52 2.148.362.319.794.584 1.299.71a2.517 2.517 0 0 0 1.466-.075 1.984 1.984 0 0 0 1.019-.84c.208-.369.243-.724.222-1.011a1.79 1.79 0 0 0-.054-.291 1.748 1.748 0 0 0 1.18-.573c.276-.316.451-.75.469-1.238a2.51 2.51 0 0 0-.39-1.416 3.117 3.117 0 0 0-1.084-1.008c-.84-.477-1.72-.66-2.51-.768a8.2 8.2 0 0 0-1.981 0c-.49.061-.773.133-.773.133s.297-.004.776.039a9.225 9.225 0 0 1 1.863.366c.709.223 1.513.549 2.118 1.001.618.448.919 1.079.886 1.61-.035.535-.286.732-.547.84-.264.104-.457.089-.586.086a1.106 1.106 0 0 0-.276-.015.305.305 0 0 0-.146.015c-.068.021-.097.068-.122.118a.198.198 0 0 0-.071.154.307.307 0 0 0 .032.144c.018.071.05.15.1.254.047.122.122.298.107.585-.021.283-.125.584-.622.789ZM354.422 98.59c-.995-.773-2.187-1.15-3.301-1.214a6.303 6.303 0 0 0-3.017.555 7.6 7.6 0 0 0-2.025 1.343c-.5.466-.846.895-1.067 1.196-.222.301-.325.476-.325.476s.118-.164.364-.447a7.959 7.959 0 0 1 1.139-1.092 7.413 7.413 0 0 1 2.042-1.153 6.005 6.005 0 0 1 2.838-.333c1.015.125 2.061.537 2.88 1.253.826.698 1.356 1.726 1.485 2.807.141 1.074-.147 2.177-.775 2.933-.637.752-1.594 1.174-2.476 1.239-.894.075-1.647-.233-2.135-.666-.499-.441-.753-.992-.806-1.447-.104-.931.532-1.429.891-1.636.397-.204.65-.194.797-.233.145-.025.196-.082.224-.154.026-.072.038-.143-.119-.261-.153-.097-.536-.269-1.19-.072a2.33 2.33 0 0 0-1.035.695c-.347.365-.629 1.02-.575 1.747.053.731.407 1.525 1.096 2.159.687.641 1.758 1.064 2.931.964 1.164-.09 2.38-.645 3.212-1.673.818-1.045 1.098-2.449.874-3.731-.205-1.285-.922-2.496-1.927-3.255ZM14.24 103.779c.17-.22.377-.401.603-.543a1.605 1.605 0 0 1 1.107-.251c.131.025.263.049.388.105.125.045.243.111.354.184l.08.059.042.032.03.031.074.066.062.073.031.035.025.038c.017.024.038.049.055.077l.042.08.02.038c.008.014.011.028.015.042l.03.083c.008.028.015.059.021.087.021.056.014.119.025.178.01.236-.073.483-.222.713-.306.456-.892.797-1.45.8-.035 0-.07.004-.105.004l-.114-.011c-.073-.003-.146-.021-.219-.035a2.249 2.249 0 0 1-.222-.055l-.107-.038-.056-.018-.052-.024a3.056 3.056 0 0 1-.794-.505c-.073-.062-.14-.132-.209-.202a3.037 3.037 0 0 1 .545-1.043Zm-2.822-29.207c-.093.052-.183.111-.284.163l-.288.15c-.049.024-.097.052-.146.076l-.149.067a6.237 6.237 0 0 1-1.207.441 3.168 3.168 0 0 1-1.19.077c-.05-.01-.098-.014-.146-.028-.045-.01-.09-.017-.136-.035a.872.872 0 0 1-.124-.041c-.046-.018-.087-.032-.129-.052a1.81 1.81 0 0 1-.45-.307c-.271-.243-.448-.567-.466-.873-.017-.31.118-.612.368-.856a1.825 1.825 0 0 1 1.221-.498c.097 0 .191.004.288.014.191.021.385.063.576.122.389.122.77.313 1.142.536.187.111.374.233.558.362l.274.191c.09.063.18.132.271.198.073.056.142.115.215.171-.066.042-.132.08-.198.122ZM3.674 88.278c-.003-.039.007-.08.01-.119.021-.163.08-.323.16-.466.08-.143.184-.268.295-.358a.835.835 0 0 1 .34-.174c.23-.053.458.02.656.191a1.222 1.222 0 0 1 .385.665c.028.125.035.233.028.365-.01.129-.038.254-.08.376-.073.24-.208.47-.36.668-.153.198-.33.372-.514.518-.025.021-.052.038-.08.06a5.708 5.708 0 0 1-.201-.22c-.302-.355-.52-.738-.597-1.106a.707.707 0 0 1-.028-.14l-.01-.066-.004-.07c-.003-.044 0-.083 0-.124ZM16.137 74.05l.097-.15c.076-.111.142-.23.212-.344l.204-.345c.14-.23.264-.47.396-.706a25.739 25.739 0 0 0 2.314-6.006c.063-.26.132-.518.188-.779.052-.264.107-.525.16-.786.044-.265.09-.526.135-.79l.03-.199.028-.198.053-.393c.135-1.058.211-2.116.229-3.166a29.313 29.313 0 0 0-.136-3.132 26.594 26.594 0 0 0-.479-3.044c-.1-.498-.232-.989-.357-1.476-.073-.24-.142-.48-.212-.72l-.055-.181-.06-.177a25.112 25.112 0 0 0-2.578-5.592c-.242-.4-.502-.78-.752-1.148-.246-.369-.493-.724-.729-1.075-.468-.703-.884-1.385-1.203-2.074-.08-.17-.153-.341-.223-.512a19.389 19.389 0 0 0-.093-.257l-.083-.254a6.19 6.19 0 0 1-.212-1.02 5.995 5.995 0 0 1-.028-.995c.024-.323.08-.636.16-.929.086-.295.204-.563.343-.814.15-.243.32-.463.517-.65a2.834 2.834 0 0 1 1.378-.7 3.095 3.095 0 0 1 1.467.045c.226.066.44.153.632.268.1.052.184.122.274.181l.128.108.063.052.055.06.115.114.104.125c.038.039.066.084.097.13.031.04.062.083.094.128l.08.139.041.066.035.07c.024.048.045.094.07.142.02.05.04.094.058.143.153.383.222.78.222 1.155-.003.376-.073.731-.201 1.044a2.42 2.42 0 0 1-.233.442c-.086.14-.187.261-.291.376-.423.456-.961.689-1.43.706a1.835 1.835 0 0 1-.68-.104 1.988 1.988 0 0 1-.551-.296 1.485 1.485 0 0 1-.548-.828 1.499 1.499 0 0 1 .052-.783c.08-.226.19-.407.298-.543.06-.066.108-.129.163-.174.028-.024.052-.052.077-.073.027-.017.052-.038.076-.056.045-.041.094-.062.135-.09a.779.779 0 0 1 .111-.066c.035-.017.063-.038.09-.052a.304.304 0 0 0 .066-.039c.077-.048.094-.094.094-.135-.003-.045-.02-.084-.121-.115-.025-.007-.056-.018-.094-.021a.76.76 0 0 0-.125 0 .613.613 0 0 0-.17.02c-.063.015-.135.029-.212.06a2.14 2.14 0 0 1-.121.052c-.042.018-.08.045-.125.07a1.8 1.8 0 0 0-.27.195 2.17 2.17 0 0 0-.521.692c-.035.08-.066.164-.1.25l-.042.136a.898.898 0 0 0-.032.147c-.01.048-.017.1-.024.153-.007.052-.01.107-.01.16-.004.028-.004.055-.004.083 0 .031 0 .06.004.087.003.06.007.118.014.178a2.328 2.328 0 0 0 .767 1.378c.225.194.489.361.79.483.306.125.65.205 1.024.205.756.007 1.554-.327 2.165-.95.153-.153.302-.323.427-.511a3.56 3.56 0 0 0 .34-.609c.194-.438.305-.936.319-1.454a4.09 4.09 0 0 0-.27-1.58c-.021-.066-.05-.132-.073-.195l-.094-.195-.045-.097-.052-.094-.111-.188c-.039-.063-.08-.122-.122-.184a1.646 1.646 0 0 0-.135-.181l-.142-.174c-.052-.056-.104-.112-.16-.167l-.08-.084-.087-.076-.177-.157c-.131-.09-.256-.191-.399-.271-.274-.17-.579-.3-.898-.393-.316-.101-.652-.15-.992-.168-.344-.02-.69.007-1.041.077a4.046 4.046 0 0 0-1.974.988 4.4 4.4 0 0 0-.74.915c-.197.341-.357.71-.475 1.096-.107.387-.18.783-.211 1.19-.025.404-.014.814.027 1.229.049.41.136.824.257 1.235.083.285.184.556.295.824a6.033 6.033 0 0 0-1.013-.72 5.096 5.096 0 0 0-.68-.323c-.122-.042-.243-.094-.372-.13-.062-.017-.128-.034-.194-.055-.062-.014-.128-.031-.194-.045a2.055 2.055 0 0 0-.201-.042c-.066-.01-.14-.024-.205-.035-.139-.014-.281-.034-.42-.038a4.395 4.395 0 0 0-.878.038 3.906 3.906 0 0 0-.884.23 3.751 3.751 0 0 0-.84.445 4.53 4.53 0 0 0-1.301 1.448 5.045 5.045 0 0 0-.621 2.933c.01.087.017.17.031.258l.042.254c.038.167.076.337.132.5.104.331.239.655.416.957a4.124 4.124 0 0 0 1.468 1.49c.076.041.149.09.229.128.08.035.156.074.232.112.163.066.32.132.486.177.163.056.33.087.5.122.083.014.166.024.25.038.086.014.173.014.256.021.336.018.68.004 1.01-.07.33-.069.655-.17.95-.326.035-.018.073-.035.111-.056l.108-.066c.07-.045.145-.087.211-.136l.195-.153c.066-.049.121-.108.18-.164.125-.104.222-.23.326-.344.049-.063.09-.125.136-.188l.069-.09.056-.098c.041-.063.08-.129.118-.191.03-.066.065-.129.097-.195.069-.129.11-.264.166-.397.108-.313.17-.63.195-.94.641.905 1.422 2.13 2.192 3.682a27.5 27.5 0 0 1 2.35 7.04 25.8 25.8 0 0 1 .454 4.415c.024 1.544-.087 3.159-.424 4.77-.17.807-.395 1.61-.694 2.4-.291.79-.666 1.556-1.11 2.29a11.81 11.81 0 0 1-2.696 3.097 17.92 17.92 0 0 0-.506-.386c-.1-.073-.194-.143-.295-.212l-.299-.199a9.182 9.182 0 0 0-.614-.386 6.171 6.171 0 0 0-1.384-.62 3.943 3.943 0 0 0-.788-.152c-.135-.01-.27-.014-.409-.01a2.86 2.86 0 0 0-1.912.821 2.304 2.304 0 0 0-.5.74 2.033 2.033 0 0 0-.142.912c.025.31.125.605.268.86.142.257.33.48.54.664.212.188.448.337.702.452.066.032.131.056.194.08.066.025.135.042.205.063.066.02.135.031.2.045.063.018.133.025.199.035.534.07 1.061.004 1.544-.122.485-.129.94-.313 1.367-.525l.16-.08c.055-.024.107-.056.159-.084l.312-.17c.104-.06.205-.125.305-.188.101-.063.205-.122.299-.191.048-.032.094-.063.139-.098.37.33.725.679 1.058 1.04a12.84 12.84 0 0 1 1.558 2.106c.437.748.787 1.534 1.04 2.341a9.608 9.608 0 0 1 .233 4.885c-.333 1.573-1.062 3.01-2.075 4.092-.066.067-.128.133-.194.199l-.094.1c-.031.032-.07.06-.104.091-.135.118-.27.244-.41.352a6.15 6.15 0 0 1-.874.58 7.191 7.191 0 0 1-1.88.717 7.145 7.145 0 0 1-3.63-.1 5.939 5.939 0 0 1-1.485-.675c-.055-.035-.11-.074-.162-.108.086-.07.173-.14.26-.22a3.816 3.816 0 0 0 .66-.8 2.87 2.87 0 0 0 .396-1.134 2.317 2.317 0 0 0-.73-1.963 1.95 1.95 0 0 0-.718-.428 1.79 1.79 0 0 0-.902-.055 1.985 1.985 0 0 0-.83.39 2.37 2.37 0 0 0-.586.674c-.15.261-.26.554-.312.87-.007.08-.024.157-.028.24 0 .084-.003.167 0 .244l.007.115c.004.041.007.08.014.118a3.092 3.092 0 0 0 .36 1.106 4.507 4.507 0 0 0 .521.77c-.343.107-.67.163-.957.187l-.222.01c-.073.004-.146 0-.212 0-.135.004-.26-.017-.378-.023-.469-.046-.791-.15-1.017-.213-.229-.062-.357-.104-.447-.108-.084-.003-.122.021-.146.06-.024.034-.035.08.01.156.049.073.15.192.371.338.226.142.566.334 1.107.462.136.028.278.067.437.08.084.01.163.025.25.028l.267.014c.372.004.791-.031 1.253-.153.132-.035.264-.077.402-.129.212.181.438.345.677.505.267.17.552.327.847.466.301.136.61.261.933.358a8.29 8.29 0 0 0 4.264.143 8.348 8.348 0 0 0 2.214-.835c.36-.198.71-.428 1.044-.692l.062-.05.06-.051.12-.105c.08-.07.16-.139.244-.208.038-.039.08-.07.118-.108l.11-.115.226-.233c2.384-2.54 3.265-6.597 2.075-10.209a12.309 12.309 0 0 0-1.183-2.582 13.348 13.348 0 0 0-1.725-2.275 15.233 15.233 0 0 0-.988-.964 11.7 11.7 0 0 0 1.072-1.044 12.92 12.92 0 0 0 1.613-2.22c.455-.786.83-1.604 1.117-2.436.292-.831.507-1.673.663-2.512.309-1.68.382-3.337.316-4.91a26.153 26.153 0 0 0-.573-4.481 27.764 27.764 0 0 0-2.564-7.05 27.317 27.317 0 0 0-2.363-3.705 3.667 3.667 0 0 0-.014-.518 3.116 3.116 0 0 0-.454-1.35 2.79 2.79 0 0 0-.402-.505c-.073-.073-.15-.14-.226-.205-.08-.06-.153-.122-.24-.174a2.481 2.481 0 0 0-1.009-.397 2.037 2.037 0 0 0-.958.084 1.943 1.943 0 0 0-1.055.905c-.176.33-.218.625-.204.845a.925.925 0 0 0 .142.459c.06.09.122.125.167.136.048.01.09 0 .128-.018.083-.035.142-.097.18-.236.025-.073.039-.16.087-.279.042-.114.115-.26.247-.42.069-.077.152-.16.256-.234.104-.07.23-.129.358-.156.121-.025.288-.032.461.01.174.042.361.122.545.261.048.031.09.073.139.111.041.042.086.084.128.133.083.09.163.194.232.313.129.23.226.515.25.835.025.316-.014.675-.142 1.037-.038.087-.066.18-.114.264-.021.045-.046.09-.066.136l-.08.129-.038.062-.045.063-.094.122c-.07.076-.135.163-.215.23-.038.034-.073.076-.115.104a3.103 3.103 0 0 1-.125.097c-.041.035-.09.056-.132.087l-.069.042c-.02.014-.045.024-.07.038-.19.105-.405.174-.627.226a2.78 2.78 0 0 1-.705.06c-.059-.004-.118 0-.18-.011l-.18-.02c-.122-.025-.243-.043-.365-.08-.121-.029-.236-.074-.354-.116l-.173-.076c-.06-.028-.115-.06-.17-.087a3.071 3.071 0 0 1-.614-.446 3.603 3.603 0 0 1-.496-.598 3.751 3.751 0 0 1-.354-.72c-.049-.126-.084-.258-.122-.387l-.045-.201c-.014-.067-.02-.136-.034-.202a4.366 4.366 0 0 1-.039-.825 4.24 4.24 0 0 1 .125-.81 4.29 4.29 0 0 1 .285-.773c.24-.49.58-.922.989-1.253.204-.163.423-.302.659-.41.232-.108.479-.192.728-.244a3.97 3.97 0 0 1 .757-.087c.125-.007.25.004.374.007.063.004.122.01.184.018.063.003.125.01.184.02l.18.028c.06.014.119.025.181.039.118.02.233.059.344.09.225.07.444.15.648.247a6.157 6.157 0 0 1 1.475.981c.336.69.742 1.347 1.173 1.994.243.362.489.724.735 1.086.247.365.496.73.725 1.11a22.52 22.52 0 0 1 1.294 2.376c.403.828.75 1.698 1.055 2.592.038.112.08.227.118.338l.056.17.052.17c.07.227.139.457.208.686.121.467.246.933.347 1.406.208.95.378 1.917.479 2.905.104.989.16 1.987.16 2.996a27.853 27.853 0 0 1-.188 3.034l-.045.383-.024.188-.028.191c-.042.25-.08.505-.122.759l-.145.755c-.049.25-.111.5-.167.751-.24 1-.534 1.987-.892 2.958-.353.97-.777 1.914-1.252 2.832-.118.226-.232.46-.368.679l-.19.337c-.067.112-.126.227-.195.334-.226.355-.451.714-.673 1.069-.01.013-.02.024 0 .03l.038.025.073.046.15.09.294.184.153.094c.048.032.093.063.142.094l.104.066c.024.018.052.035.076.056a7.687 7.687 0 0 1 2.02 2.136 9.8 9.8 0 0 1 1.2 2.714 11.365 11.365 0 0 1 .316 4.398c-.035.244-.059.488-.111.724-.02.122-.042.244-.066.362-.017.122-.052.237-.08.359-.434 1.903-1.228 3.677-2.151 5.31-.923 1.634-1.981 3.134-3.025 4.554-1.048 1.423-2.079 2.773-2.998 4.099-.927 1.322-1.735 2.623-2.387 3.893-.323.637-.614 1.26-.85 1.876-.035.076-.063.153-.094.229-.028.073-.055.153-.083.226-.056.154-.108.303-.16.453-.052.149-.097.299-.142.445-.045.146-.094.292-.132.439a15.508 15.508 0 0 0-.552 3.18c-.059.946 0 1.76.084 2.418.055.327.093.616.16.86.058.247.1.459.155.622.101.331.157.501.157.501l-.143-.504c-.052-.167-.086-.376-.138-.623-.063-.247-.09-.539-.136-.863a12.571 12.571 0 0 1-.024-2.401c.083-.939.281-1.997.628-3.135.038-.142.09-.285.139-.431.048-.143.097-.289.149-.435.055-.146.114-.292.17-.442.031-.073.059-.15.087-.223.034-.073.066-.149.097-.222.25-.606.551-1.211.885-1.831.676-1.238 1.505-2.508 2.452-3.799.413-.564.844-1.131 1.291-1.709a9.86 9.86 0 0 0-.433 1.291 8.384 8.384 0 0 0-.26 1.973 6.54 6.54 0 0 0 .34 2.126c.055.178.131.348.204.525a8.835 8.835 0 0 0 .153.3 4.548 4.548 0 0 0-.122.536 6.562 6.562 0 0 0 0 1.986c.087.599.219 1.135.358 1.625.138.491.284.943.44 1.357.15.414.309.794.462 1.142.628 1.381 1.21 2.244 1.634 2.807.215.282.392.488.538.637.142.15.26.244.35.303.177.115.257.087.326.035.07-.056.122-.126.066-.327a2.444 2.444 0 0 0-.166-.418c-.087-.181-.209-.41-.365-.71-.309-.598-.78-1.461-1.315-2.787a19.64 19.64 0 0 1-.395-1.085c-.136-.39-.264-.818-.385-1.281a11.925 11.925 0 0 1-.306-1.472 6.214 6.214 0 0 1-.055-1.023c.236.199.496.373.784.512.09.052.194.083.291.125.101.035.202.07.306.098.104.02.211.052.315.062l.164.021c.055.007.11.007.17.007.454.014.898-.094 1.294-.296l.149-.08c.048-.024.094-.055.142-.087.045-.031.094-.055.135-.094l.136-.101a.541.541 0 0 1 .066-.055l.059-.056.121-.118c.042-.042.076-.087.115-.129.034-.049.076-.087.107-.136.063-.097.136-.191.184-.299.028-.052.055-.101.083-.156l.063-.171.031-.083c.01-.028.017-.06.024-.087l.042-.178c.01-.059.014-.125.02-.188l.008-.09a.283.283 0 0 0 .003-.094c0-.494-.173-.992-.475-1.361l-.111-.139-.125-.125-.063-.059c-.02-.021-.045-.039-.066-.056l-.135-.108a2.929 2.929 0 0 0-1.232-.525 2.778 2.778 0 0 0-1.925.372 3.592 3.592 0 0 0-.937.807c-.156.188-.291.39-.41.599-.017-.049-.041-.094-.055-.143-.253-.602-.371-1.246-.41-1.879a7.912 7.912 0 0 1 .13-1.847 9.567 9.567 0 0 1 .485-1.664c.142-.372.302-.723.468-1.054.257-.327.514-.661.774-.998 1.079-1.403 2.182-2.895 3.16-4.548.98-1.65 1.84-3.462 2.336-5.452.031-.126.066-.248.09-.376.028-.126.052-.25.076-.376.06-.254.09-.508.129-.766.08-.511.118-1.04.125-1.565.01-1.051-.108-2.116-.375-3.156a10.93 10.93 0 0 0-1.26-2.986 8.693 8.693 0 0 0-2.23-2.432l-.084-.063-.059-.041-.041-.028c-.021-.017-.052-.031-.066-.049l.048-.073.028-.038Z"/><path fill="#EAE6DF" d="M14.551 66.47c-.03.084-.067.165-.104.243a7.627 7.627 0 0 1-.101.226c-.068.149-.125.29-.192.416-.064.128-.121.246-.178.354a5.682 5.682 0 0 1-.155.294c-.199.344-.307.534-.307.534l.354-.507c.057-.081.114-.176.178-.28.068-.105.135-.216.212-.338.078-.122.145-.26.226-.402.04-.07.08-.145.121-.22a5.18 5.18 0 0 0 .125-.236l.252-.516c.081-.183.159-.378.246-.578.02-.05.04-.098.064-.152.017-.05.037-.1.057-.155.037-.105.078-.213.118-.32.084-.22.152-.45.226-.686.286-.942.511-2.026.61-3.198.09-1.168.046-2.428-.17-3.7a11.547 11.547 0 0 0-.487-1.905 8.143 8.143 0 0 0-.9-1.827 6.166 6.166 0 0 0-1.414-1.516 5.23 5.23 0 0 0-1.865-.925 4.468 4.468 0 0 0-1.037-.145c-.354-.01-.7.03-1.03.104-.334.078-.654.19-.953.335-.3.148-.58.334-.828.547-.132.1-.243.222-.354.337-.054.061-.104.122-.155.186-.054.057-.094.128-.141.19l-.068.097c-.016.034-.037.068-.057.101-.037.071-.08.132-.114.206-.03.071-.064.142-.098.213-.03.07-.05.145-.077.216l-.034.105c-.014.037-.02.074-.03.108-.014.074-.034.145-.048.216-.02.142-.047.28-.05.422a3.425 3.425 0 0 0 .58 2.148c.258.378.595.675.952.87.364.203.74.288 1.077.308.337.017.637-.027.903-.101.525-.149.899-.406 1.155-.659s.394-.503.468-.702a1.1 1.1 0 0 0 .08-.453c-.006-.104-.037-.165-.07-.202-.034-.037-.074-.047-.118-.058-.088-.016-.168-.003-.28.115-.053.058-.12.139-.222.25a2.335 2.335 0 0 1-.43.368c-.2.129-.472.26-.822.321-.347.06-.788.04-1.162-.196-.199-.121-.38-.3-.535-.537a2.233 2.233 0 0 1-.317-.867c-.017-.17-.037-.345-.017-.524 0-.088.024-.176.034-.267.014-.044.024-.09.034-.135.006-.023.01-.044.017-.067l.023-.064c.017-.044.027-.092.047-.132.02-.04.04-.084.06-.128.021-.04.051-.085.075-.129l.034-.064.047-.06c.03-.041.054-.085.09-.126.031-.04.065-.08.102-.121.074-.074.148-.155.235-.223.169-.145.36-.274.573-.378.209-.105.437-.19.677-.247.235-.06.484-.094.733-.094.25 0 .506.03.761.09.512.116 1.02.349 1.479.676.46.324.875.733 1.222 1.202.7.95 1.138 2.117 1.41 3.296.273 1.182.395 2.37.384 3.498a15.548 15.548 0 0 1-.367 3.124c-.208.938-.478 1.759-.754 2.424ZM48.178 13.37a6.36 6.36 0 0 0 1.514 1.42 8.13 8.13 0 0 0 1.82.902c.63.222 1.267.38 1.9.489 1.27.215 2.526.259 3.69.168a15.317 15.317 0 0 0 3.189-.614c.236-.072.465-.138.684-.226.109-.04.214-.076.32-.117.05-.018.105-.04.157-.058.05-.022.098-.044.152-.066.197-.084.39-.164.572-.244.178-.088.35-.172.517-.252.08-.04.156-.08.233-.124.076-.04.149-.084.221-.12.142-.08.28-.15.397-.23.124-.077.237-.146.342-.209.102-.065.197-.124.277-.182.327-.23.506-.354.506-.354s-.19.11-.535.306a4.072 4.072 0 0 1-.291.157c-.11.055-.226.114-.353.18-.124.069-.266.123-.415.193l-.226.102c-.076.033-.156.07-.24.102a15.262 15.262 0 0 1-5.536 1.124 14.871 14.871 0 0 1-3.486-.383c-1.176-.277-2.34-.715-3.283-1.416a5.32 5.32 0 0 1-1.201-1.226 4.147 4.147 0 0 1-.674-1.482 3.095 3.095 0 0 1 0-1.5c.062-.241.146-.468.248-.68a2.74 2.74 0 0 1 .379-.572c.069-.088.149-.16.222-.238.043-.032.083-.069.123-.102.037-.036.08-.058.12-.091l.062-.044.066-.036c.043-.026.083-.055.127-.073.044-.022.087-.04.127-.059.044-.022.088-.033.132-.05l.065-.023c.022-.007.044-.01.066-.018.047-.01.09-.022.134-.033.091-.01.178-.033.27-.033.178-.022.352-.003.52.015.331.051.626.168.862.321.24.15.415.336.54.533.232.376.254.818.192 1.164a2.153 2.153 0 0 1-.32.825c-.131.2-.259.332-.364.43-.113.103-.193.172-.248.223-.12.114-.134.194-.116.282a.203.203 0 0 0 .054.12c.037.033.099.062.2.07.106.01.255-.008.456-.08a1.97 1.97 0 0 0 .702-.468c.247-.26.506-.635.655-1.16.073-.264.116-.566.098-.906a2.488 2.488 0 0 0-.305-1.08 2.761 2.761 0 0 0-.87-.953 3.397 3.397 0 0 0-1.343-.544 3.583 3.583 0 0 0-.797-.04c-.139.004-.28.033-.422.051-.07.015-.142.033-.215.048-.033.01-.07.018-.106.029-.036.01-.072.022-.109.036-.069.026-.142.044-.21.077l-.216.099c-.072.032-.134.073-.203.113-.033.018-.066.04-.099.058l-.098.07a1.811 1.811 0 0 0-.19.138c-.061.051-.123.106-.185.157a4.233 4.233 0 0 0-.884 1.183 4.442 4.442 0 0 0-.437 1.99c.007.353.058.7.146 1.039.174.683.498 1.318.92 1.872Z"/><path fill="#EAE6DF" d="M101.733 15.617c-.004.557-.342 1.147-.799 1.453a1.202 1.202 0 0 1-.713.221c-.059-.007-.118-.003-.177-.022l-.084-.022a.569.569 0 0 0-.085-.03c-.011-.007-.026-.01-.04-.014l-.041-.022-.077-.044c-.026-.019-.052-.034-.078-.052l-.036-.026-.037-.033-.07-.06-.066-.073-.033-.033-.03-.04-.059-.078a1.84 1.84 0 0 1-.187-.358c-.052-.125-.078-.258-.103-.388a1.52 1.52 0 0 1-.004-.387 1.71 1.71 0 0 1 .254-.723c.143-.229.324-.435.54-.605.214-.173.457-.317.711-.424.11-.052.22-.089.334-.122a3.076 3.076 0 0 1 .703 1.004l.022.055.022.051.037.111c.018.074.04.148.055.222.011.073.033.147.033.22l.011.112c0 .037-.003.07-.003.107ZM69.114 9.183a2.723 2.723 0 0 1-.125-.58c-.007-.095-.015-.191-.01-.287 0-.092.007-.177.021-.266.063-.358.232-.708.471-.959.246-.255.548-.387.853-.369.31.018.63.196.872.465.125.133.228.291.306.454.022.04.036.085.055.129.018.04.03.085.04.125.015.045.022.092.033.137.011.048.019.096.026.144.059.38.022.79-.073 1.195-.1.406-.25.815-.442 1.21l-.066.151c-.022.048-.052.096-.077.144l-.151.292c-.052.095-.107.188-.162.284-.04.066-.077.132-.118.199-.059-.074-.117-.144-.173-.218-.062-.092-.132-.18-.198-.27l-.188-.276a8.52 8.52 0 0 1-.36-.56 5.173 5.173 0 0 1-.534-1.144ZM85.5 5.12a2.216 2.216 0 0 1-.666.365 1.61 1.61 0 0 1-.375.074 1.197 1.197 0 0 1-.725-.162 1.244 1.244 0 0 1-.302-.251c-.172-.2-.246-.424-.19-.653a.864.864 0 0 1 .172-.343c.092-.115.213-.218.357-.295.143-.082.302-.137.463-.163.04 0 .081-.01.122-.007.04 0 .077-.007.121 0l.07.004.07.01c.044.004.088.015.136.023.368.081.747.299 1.104.601.073.067.147.133.22.203-.022.03-.04.055-.062.081a2.832 2.832 0 0 1-.515.513Zm25.118 10.702a6.59 6.59 0 0 0-.633-.538c-.563-.425-1.424-1.008-2.803-1.638a18.96 18.96 0 0 0-1.137-.465 15.882 15.882 0 0 0-1.354-.44 11.718 11.718 0 0 0-1.618-.357 6.457 6.457 0 0 0-1.979 0 3.962 3.962 0 0 0-.534.118c-.018-.007-.029-.015-.044-.022-.085-.048-.173-.089-.258-.13-.172-.07-.345-.15-.522-.206-.706-.247-1.43-.336-2.122-.34a8.286 8.286 0 0 0-1.969.263 9.376 9.376 0 0 0-1.283.435 74.72 74.72 0 0 1 1.703-1.295c1.287-.952 2.553-1.785 3.785-2.46a19.727 19.727 0 0 1 1.828-.89c.074-.03.148-.062.221-.096.074-.03.151-.055.225-.084.147-.06.294-.115.437-.174.147-.051.295-.1.438-.147.144-.052.283-.104.427-.14a15.09 15.09 0 0 1 3.127-.628c.934-.085 1.74-.048 2.394.022.324.045.615.074.861.133.247.056.456.089.622.144l.504.14s-.173-.055-.5-.155c-.166-.055-.376-.1-.622-.158-.243-.067-.534-.104-.861-.159a12.494 12.494 0 0 0-2.409-.085c-.942.06-2.016.233-3.171.554-.144.036-.291.084-.438.132l-.445.14c-.144.056-.298.108-.449.163-.074.026-.151.052-.228.081a4.436 4.436 0 0 1-.228.092c-.615.24-1.236.532-1.869.856-1.265.653-2.56 1.468-3.88 2.394-1.322.923-2.668 1.96-4.088 3.007-1.42 1.048-2.913 2.107-4.543 3.036-1.63.923-3.399 1.72-5.297 2.158-.118.026-.236.06-.353.078l-.36.066c-.24.052-.483.078-.725.11-.482.064-.972.09-1.461.086a11.247 11.247 0 0 1-2.924-.402 9.847 9.847 0 0 1-2.708-1.203 7.803 7.803 0 0 1-2.13-2.025l-.055-.078-.066-.103a1.903 1.903 0 0 1-.092-.144l-.092-.151-.184-.3-.092-.147-.048-.073-.022-.037c-.004-.022-.018-.011-.03-.004-.356.225-.713.45-1.066.675-.11.07-.22.133-.331.2l-.339.191c-.22.133-.448.247-.677.37-.916.475-1.857.9-2.825 1.253-.967.358-1.95.653-2.95.893-.25.056-.497.118-.747.17l-.754.144c-.254.04-.504.08-.758.122l-.187.029-.192.022-.379.048a27.79 27.79 0 0 1-3.023.184c-1.008 0-2.005-.051-2.987-.158-.986-.1-1.954-.27-2.9-.48-.474-.1-.937-.228-1.4-.35-.229-.07-.457-.137-.685-.207l-.173-.051-.165-.06a23.499 23.499 0 0 1-2.92-1.17 22.868 22.868 0 0 1-2.374-1.301c-.379-.229-.74-.48-1.104-.727-.364-.247-.724-.494-1.085-.734a17.81 17.81 0 0 0-1.986-1.18 6.066 6.066 0 0 1-.979-1.48c-.099-.203-.176-.42-.246-.65-.03-.114-.07-.228-.092-.346-.011-.059-.026-.118-.037-.177-.01-.06-.018-.122-.026-.18-.014-.064-.018-.123-.025-.185-.004-.063-.011-.126-.015-.185-.004-.125-.015-.25-.007-.376.003-.255.033-.51.088-.76.048-.25.136-.494.243-.73.106-.237.242-.458.408-.664a3.753 3.753 0 0 1 1.25-.99c.243-.117.505-.213.77-.287.264-.066.533-.107.809-.125a4.37 4.37 0 0 1 .82.04c.066.015.136.019.202.037l.2.044a3.819 3.819 0 0 1 1.107.476c.22.148.419.314.595.498.177.185.32.395.442.616.03.056.062.111.088.17l.074.173c.044.119.092.237.117.358.037.118.056.24.081.362.008.063.011.122.022.184.008.06.004.122.008.181.007.24-.008.48-.06.705a2.489 2.489 0 0 1-.224.627c-.014.026-.022.051-.036.074l-.044.066c-.03.044-.052.092-.085.133-.033.04-.063.085-.1.125-.029.045-.07.078-.102.118-.07.081-.155.144-.228.214l-.126.093-.058.044-.067.04a1.463 1.463 0 0 0-.125.082l-.136.066c-.084.048-.176.074-.265.114-.356.13-.713.166-1.033.144a1.97 1.97 0 0 1-.832-.254 1.686 1.686 0 0 1-.313-.233c-.051-.04-.091-.085-.132-.129-.037-.044-.077-.088-.11-.136a1.45 1.45 0 0 1-.261-.546 1.114 1.114 0 0 1-.011-.465c.029-.13.088-.255.158-.358.073-.103.154-.188.232-.258.158-.133.305-.203.419-.247.118-.048.206-.063.276-.089.143-.033.202-.096.235-.177.019-.04.033-.081.019-.13-.012-.047-.045-.106-.133-.169a.979.979 0 0 0-.46-.14 1.596 1.596 0 0 0-.842.203 1.929 1.929 0 0 0-.901 1.059 1.983 1.983 0 0 0-.081.959c.047.343.176.693.393 1.018.052.081.11.159.173.236.063.078.129.155.206.225a2.9 2.9 0 0 0 .5.406 3.16 3.16 0 0 0 1.866.468c.89.683 2.115 1.528 3.697 2.369a27.328 27.328 0 0 0 7.026 2.571c1.394.303 2.895.513 4.466.576 1.57.066 3.222-.008 4.896-.314a17.228 17.228 0 0 0 2.505-.668 14.278 14.278 0 0 0 2.432-1.117c.783-.454 1.523-1 2.21-1.62.372-.332.718-.694 1.041-1.077.306.347.626.679.964.992.696.653 1.453 1.24 2.27 1.734.813.49 1.674.893 2.571 1.18 3.605 1.196 7.652.314 10.183-2.076.077-.078.154-.152.232-.225l.11-.115c.04-.037.073-.08.11-.122.07-.08.14-.158.21-.24l.103-.121.055-.06.044-.062a7.57 7.57 0 0 0 .692-1.048c.394-.719.67-1.472.835-2.22a8.394 8.394 0 0 0-.143-4.276 7.294 7.294 0 0 0-.824-1.786 6.736 6.736 0 0 0-.5-.678 4.736 4.736 0 0 0 .28-1.656 5.51 5.51 0 0 0-.016-.27c-.004-.085-.018-.17-.026-.251-.014-.159-.051-.306-.08-.439a3.498 3.498 0 0 0-.46-1.107c-.148-.225-.265-.324-.339-.372-.077-.048-.121-.037-.154-.015-.04.026-.067.063-.063.151.007.085.048.218.11.447.063.225.166.546.214 1.018.007.118.022.243.022.38 0 .066.004.136 0 .21l-.011.225a4.398 4.398 0 0 1-.188.96l-.007-.008a4.326 4.326 0 0 0-.762-.517 3.21 3.21 0 0 0-.871-.32 2.256 2.256 0 0 0-.229-.037 1.28 1.28 0 0 0-.117-.015l-.114-.008c-.078-.007-.162 0-.243 0-.085.004-.162.019-.243.03a2.448 2.448 0 0 0-1.541.9 1.976 1.976 0 0 0-.383.83c-.062.306-.04.624.052.908.095.28.25.523.426.719.36.387.81.612 1.273.705.228.044.475.048.684.025a2.845 2.845 0 0 0 1.134-.398 3.653 3.653 0 0 0 .794-.664c.081-.085.15-.17.22-.258.037.051.074.107.111.166.136.221.265.457.379.704.11.251.21.51.294.783a7.234 7.234 0 0 1 .1 3.637 7.288 7.288 0 0 1-.714 1.889c-.17.302-.364.597-.581.878-.11.136-.236.27-.35.41-.033.033-.062.07-.092.103l-.099.095c-.066.063-.132.13-.199.192-1.078 1.019-2.512 1.749-4.08 2.081a9.494 9.494 0 0 1-4.873-.232c-.802-.251-1.59-.605-2.333-1.044a12.445 12.445 0 0 1-2.097-1.56c-.364-.333-.71-.69-1.04-1.063l.099-.137c.07-.096.125-.2.191-.302.059-.1.125-.2.184-.303l.173-.317c.026-.052.055-.103.08-.159l.078-.162c.217-.424.397-.882.526-1.365.125-.487.191-1.015.122-1.55-.011-.07-.019-.136-.034-.202a1.298 1.298 0 0 0-.047-.2c-.019-.07-.034-.136-.06-.203-.025-.066-.047-.132-.08-.195a2.827 2.827 0 0 0-.449-.705A2.557 2.557 0 0 0 71.259 6a2.142 2.142 0 0 0-.861-.27 1.958 1.958 0 0 0-.909.145 2.313 2.313 0 0 0-.739.498 2.9 2.9 0 0 0-.806 2.331c.022.273.078.535.151.79.147.505.372.959.615 1.387.125.214.253.417.386.616l.198.302c.07.096.144.192.21.292.125.173.258.343.39.509a11.872 11.872 0 0 1-3.09 2.704c-.732.446-1.493.819-2.284 1.114-.788.295-1.59.524-2.391.697-1.608.336-3.22.447-4.76.42a25.966 25.966 0 0 1-4.4-.453 27.343 27.343 0 0 1-7.02-2.354 27.196 27.196 0 0 1-3.67-2.202c.309-.022.625-.085.934-.196.132-.051.268-.095.397-.165.066-.034.133-.063.195-.096.063-.041.125-.078.192-.118l.095-.06.092-.066c.063-.044.122-.092.184-.136.114-.107.24-.203.346-.329.055-.059.114-.114.162-.18.051-.063.103-.13.15-.196.052-.066.092-.14.137-.21l.066-.11c.022-.034.037-.075.059-.112.154-.295.257-.62.327-.951a3.91 3.91 0 0 0 .066-1.015c-.007-.085-.007-.17-.022-.254-.01-.085-.022-.17-.036-.251-.034-.17-.067-.34-.122-.502a4.824 4.824 0 0 0-.176-.487c-.037-.078-.078-.155-.114-.232-.037-.082-.085-.155-.126-.23a4.04 4.04 0 0 0-.65-.833 4.36 4.36 0 0 0-.836-.638 4.769 4.769 0 0 0-.952-.42c-.166-.056-.335-.093-.5-.13l-.255-.044c-.084-.015-.173-.019-.254-.03a4.985 4.985 0 0 0-1.022.004c-.338.04-.67.11-.99.214-.32.103-.625.24-.916.406a4.455 4.455 0 0 0-1.442 1.302c-.184.266-.334.55-.445.845-.11.291-.187.59-.228.885a4.43 4.43 0 0 0-.037.878c.004.144.022.284.037.425.011.066.022.136.037.203.007.07.022.136.037.202.018.067.033.133.048.2l.055.191c.037.13.084.251.125.373.1.24.202.469.324.683.217.387.467.723.72 1.014a8.746 8.746 0 0 0-.824-.299 7.628 7.628 0 0 0-1.232-.254 7.17 7.17 0 0 0-1.225-.026c-.404.03-.802.1-1.184.21-.387.118-.75.277-1.093.476-.338.21-.647.458-.912.742a4.079 4.079 0 0 0-.99 1.98 4.37 4.37 0 0 0-.073 1.045c.018.34.066.675.165.996.096.317.225.623.394.9.08.144.18.27.272.398l.155.177.077.089.084.081c.056.052.107.107.166.159l.173.144c.059.047.118.092.18.132.063.041.122.085.184.126l.188.107c.033.018.062.037.092.055l.099.044c.066.034.129.063.191.093l.199.077c.519.2 1.056.28 1.574.27a3.802 3.802 0 0 0 2.057-.66c.187-.13.356-.278.511-.429.618-.616.953-1.416.945-2.173 0-.376-.08-.72-.202-1.025a2.898 2.898 0 0 0-.486-.793 2.372 2.372 0 0 0-.654-.528 2.167 2.167 0 0 0-.721-.244c-.06-.007-.114-.007-.173-.014-.03 0-.059-.004-.085-.004-.03.004-.055.004-.084.004l-.162.01c-.052.008-.103.02-.155.027a1.003 1.003 0 0 0-.143.033c-.048.014-.092.026-.136.04-.089.034-.17.063-.247.1-.309.151-.533.34-.691.524-.078.096-.147.18-.195.27-.026.043-.052.084-.07.128-.019.04-.033.081-.052.118a.894.894 0 0 0-.059.214.566.566 0 0 0-.022.17.704.704 0 0 0 0 .125c.004.037.011.07.022.093.03.103.07.118.114.121.04 0 .089-.014.137-.092.01-.018.025-.04.036-.066.015-.026.037-.056.056-.089a.507.507 0 0 1 .062-.114c.03-.04.048-.089.092-.133a.5.5 0 0 1 .055-.077c.022-.026.048-.048.07-.078.048-.055.11-.107.177-.162.132-.11.312-.222.54-.3.225-.08.5-.113.78-.054.276.066.589.24.824.553a1.916 1.916 0 0 1 .401 1.232c-.014.469-.25 1.011-.702 1.431-.114.107-.24.21-.376.296a2.8 2.8 0 0 1-.441.232 2.8 2.8 0 0 1-1.041.203c-.375 0-.773-.066-1.151-.225l-.144-.055c-.048-.026-.096-.048-.14-.07l-.07-.037a.432.432 0 0 1-.07-.041l-.136-.081c-.044-.03-.088-.063-.132-.092a1.478 1.478 0 0 1-.125-.1c-.044-.033-.081-.066-.125-.103-.037-.037-.078-.074-.114-.115l-.06-.059-.05-.062c-.037-.04-.074-.081-.107-.126-.063-.088-.133-.177-.18-.276a2.849 2.849 0 0 1-.379-1.346 3.118 3.118 0 0 1 .062-.757c.1-.502.342-.993.699-1.384.191-.195.408-.369.651-.516.247-.14.519-.258.81-.347.294-.081.603-.133.926-.159.324-.018.655-.01.994.03.338.037.677.11 1.015.214.085.026.166.052.254.081.084.03.17.063.254.096a7 7 0 0 1 .515.221c.684.318 1.364.738 2.063 1.207.353.236.707.483 1.074.73.368.251.747.51 1.148.753.788.501 1.63.951 2.498 1.368a24.571 24.571 0 0 0 3.075 1.221l.177.06.18.051c.24.074.478.144.718.214.489.125.978.258 1.475.358.993.214 2.005.384 3.034.48 1.027.1 2.072.147 3.12.136a27.562 27.562 0 0 0 3.156-.229l.398-.051.195-.026.198-.033c.261-.048.523-.093.787-.137l.784-.162c.261-.055.519-.122.78-.185a27.034 27.034 0 0 0 3.06-.97 25.625 25.625 0 0 0 2.925-1.354c.24-.129.475-.254.703-.394l.345-.207c.118-.07.232-.137.346-.21l.147-.1.037-.026.074-.048c.018.011.033.044.047.067l.03.04.04.06c.022.029.044.055.063.084.658.904 1.5 1.66 2.428 2.236.93.579 1.938.992 2.976 1.261a12.013 12.013 0 0 0 4.708.255c.254-.04.512-.074.762-.13.125-.025.25-.05.375-.077.129-.025.25-.062.375-.092 1.983-.498 3.793-1.361 5.437-2.339 1.648-.985 3.135-2.088 4.536-3.173l.993-.774c.331-.166.68-.329 1.053-.472a9.356 9.356 0 0 1 1.659-.484 7.775 7.775 0 0 1 1.843-.133c.629.041 1.269.16 1.872.41.048.018.092.04.14.06a4.505 4.505 0 0 0-.596.409 3.535 3.535 0 0 0-.802.937c-.217.372-.368.79-.405 1.258-.022.228-.004.453.033.675.04.221.096.439.188.645.085.21.202.406.335.59l.106.137.055.066.063.063.125.122.136.114a2.175 2.175 0 0 0 1.453.476l.089-.007c.062-.008.125-.011.187-.022l.177-.045c.029-.007.059-.01.088-.022l.085-.03.169-.066c.051-.026.103-.051.154-.08.111-.053.203-.123.298-.189.048-.03.089-.07.133-.107l.129-.11.117-.126.059-.06c.019-.021.037-.043.055-.066l.103-.132c.033-.045.059-.092.092-.137.03-.048.063-.096.089-.144l.077-.147c.198-.395.309-.841.294-1.299 0-.059 0-.114-.007-.17l-.019-.162c-.014-.11-.044-.214-.066-.317a3.026 3.026 0 0 0-.096-.31c-.04-.096-.073-.2-.125-.291a3.77 3.77 0 0 0-.507-.786c.346-.011.691.01 1.019.055.518.07 1.008.185 1.468.306.463.122.886.251 1.276.384.394.133.75.27 1.085.402 1.321.535 2.182 1.007 2.774 1.317.298.159.53.277.71.365.184.085.316.14.419.166.199.056.269.004.324-.066.051-.066.081-.148-.037-.328a1.925 1.925 0 0 0-.301-.35ZM13.395 14.922c.818.452 1.682.536 2.387.354.707-.175 1.236-.653 1.472-1.098.262-.45.328-.869.328-1.205-.018-.685-.306-.996-.44-1.109-.164-.113-.226-.076-.284-.029-.062.048-.1.113-.077.26.011.152.099.39.03.831-.08.409-.352 1.171-1.263 1.365-.45.094-1.05.029-1.625-.307-.564-.328-1.094-.945-1.307-1.817-.218-.86-.12-1.908.39-2.75.516-.84 1.467-1.46 2.528-1.668 1.062-.219 2.204-.04 3.124.525.94.551 1.66 1.416 2.096 2.343.451.926.611 1.915.586 2.805a7.5 7.5 0 0 1-.444 2.306 8.943 8.943 0 0 1-.67 1.434c-.189.32-.312.485-.312.485s.134-.153.352-.46c.215-.306.51-.77.79-1.393.276-.624.538-1.42.63-2.35a6.405 6.405 0 0 0-.43-3.046c-.415-1.04-1.15-2.058-2.194-2.758-1.037-.716-2.408-1.015-3.69-.803-1.284.193-2.522.905-3.25 2.014-.711 1.116-.85 2.448-.567 3.582.279 1.15 1.017 2.036 1.84 2.489Z"/><path fill="#EAE6DF" d="M26.671 17.972c-.422.219-1.078.102-1.563-.278a1.91 1.91 0 0 1-.3-.27c.074-.147.154-.286.245-.414.142-.197.31-.373.507-.508.175-.117.4-.204.641-.226.496-.059.977.157 1.079.53.127.35-.16.95-.609 1.166Zm-8.91 12.408c-.063.493-.54.957-.915.943-.38.026-.74-.362-.84-.855a1.386 1.386 0 0 1 .012-.684c.066-.226.179-.442.318-.64.095-.127.2-.248.314-.365.123.058.242.12.351.197.515.344.832.933.76 1.404Zm9.61-14.985a2.358 2.358 0 0 0-1.283-.212c-.415.04-.809.186-1.148.417a3.277 3.277 0 0 0-.74.73 5.275 5.275 0 0 1-.08-.284c-.357-1.364-.047-2.946-.379-4.525a7.555 7.555 0 0 0-2.19-3.904 6.97 6.97 0 0 0-3.473-1.813 7.411 7.411 0 0 0-3.108.055 7.201 7.201 0 0 0-1.911.753c-.21.117-.364.223-.467.296l-.157.106.165-.098a5.72 5.72 0 0 1 .48-.264 7.224 7.224 0 0 1 1.923-.625 7.293 7.293 0 0 1 2.998.114 6.6 6.6 0 0 1 3.163 1.867 7.014 7.014 0 0 1 1.845 3.652c.247 1.392-.132 2.942.21 4.594.081.39.216.79.413 1.162-.08.216-.146.428-.2.632a12.586 12.586 0 0 0-.398 2.763c-.04 1.598.186 2.672.38 3.385.174.621.33.972.451 1.173-.226-.055-.609-.091-1.254-.062-.729.044-1.822.168-3.316.713-.747.277-1.582.661-2.49 1.25a7.887 7.887 0 0 0-.534.39 4.331 4.331 0 0 0-1.228-.021c-1.672.197-3.02 1.049-4.415 1.253a6.935 6.935 0 0 1-4.036-.599 6.546 6.546 0 0 1-2.767-2.416 7.276 7.276 0 0 1-1.056-2.814 7.131 7.131 0 0 1 .119-2.756l-.054.183a7.168 7.168 0 0 0-.236 2.591c.087.874.333 1.93.93 2.975a6.952 6.952 0 0 0 2.818 2.727 7.494 7.494 0 0 0 4.385.851c1.595-.186 2.997-.98 4.4-1.074.099-.008.196-.011.293-.011-.188.27-.353.577-.456.932a2.455 2.455 0 0 0-.03 1.224c.087.41.278.815.604 1.155.325.336.822.57 1.34.548.523-.018.988-.277 1.308-.62.328-.345.543-.783.61-1.273.108-1.027-.511-1.893-1.247-2.368a.654.654 0 0 1-.066-.04c.776-.508 1.52-.874 2.172-1.144 1.367-.556 2.37-.75 3.043-.885 1.37-.234 1.491-.307 1.487-.479.16-.05.194-.186-.018-1.56-.087-.687-.219-1.704-.127-3.176.047-.706.156-1.528.393-2.43l.062.05c.678.549 1.695.863 2.631.435a2.27 2.27 0 0 0 1.01-.983c.226-.41.32-.936.175-1.44-.142-.5-.521-.9-.944-1.1Z"/><path fill="#EAE6DF" d="M16.777 17.94c.493-.195 1.184-.112 1.802.336.623.43 1.184 1.094 1.62 1.697.433.61.74 1.212.934 1.657.193.444.282.728.282.728s-.021-.294-.118-.782a8.365 8.365 0 0 0-.625-1.88c-.35-.72-.805-1.499-1.52-2.148a3.103 3.103 0 0 0-1.299-.71 2.513 2.513 0 0 0-1.466.075 1.982 1.982 0 0 0-1.02.84 1.76 1.76 0 0 0-.22 1.011c.01.104.028.2.053.29a1.749 1.749 0 0 0-1.18.574c-.276.316-.451.75-.469 1.238-.018.484.118.982.39 1.416.279.438.669.768 1.084 1.008.84.477 1.72.66 2.51.768.794.096 1.491.06 1.981 0 .49-.061.773-.133.773-.133s-.297.004-.776-.04a9.127 9.127 0 0 1-1.863-.365c-.708-.223-1.513-.549-2.118-1-.618-.45-.919-1.08-.886-1.611.035-.535.286-.732.547-.84.264-.104.457-.09.586-.086.115.018.2.022.276.015.057.007.107 0 .146-.015.068-.021.097-.068.122-.118a.199.199 0 0 0 .071-.154.308.308 0 0 0-.032-.144 1.367 1.367 0 0 0-.1-.254c-.047-.122-.122-.298-.107-.585.021-.283.125-.585.622-.789ZM5.578 26.41c.995.773 2.187 1.15 3.3 1.214a6.305 6.305 0 0 0 3.018-.555 7.6 7.6 0 0 0 2.025-1.343c.5-.466.846-.895 1.067-1.196.222-.3.325-.476.325-.476s-.118.164-.364.447c-.24.283-.614.677-1.139 1.092a7.415 7.415 0 0 1-2.042 1.153 6.001 6.001 0 0 1-2.838.333c-1.015-.125-2.061-.537-2.88-1.253-.826-.698-1.356-1.726-1.485-2.807-.141-1.074.147-2.177.775-2.933.637-.752 1.594-1.174 2.476-1.239.894-.075 1.647.233 2.135.666.5.44.753.992.806 1.447.104.93-.532 1.428-.891 1.636-.397.204-.65.194-.797.233-.145.025-.196.082-.224.154-.026.072-.038.143.119.261.153.097.536.269 1.19.072a2.341 2.341 0 0 0 1.035-.695c.347-.365.629-1.02.575-1.747-.053-.73-.407-1.525-1.096-2.16-.687-.64-1.758-1.063-2.931-.962a4.617 4.617 0 0 0-3.212 1.672c-.818 1.045-1.098 2.449-.874 3.73.205 1.286.922 2.497 1.927 3.256Z"/></svg>