<svg width="25" height="24" viewBox="0 0 25 24" fill="none" xmlns="http://www.w3.org/2000/svg">
<path d="M14.1852 6.50214C15.1926 6.49765 15.8847 6.4957 16.412 6.55328C16.5833 6.57199 16.7265 6.5961 16.8481 6.62525L6.21967 17.2537C5.92678 17.5466 5.92678 18.0215 6.21967 18.3144C6.51256 18.6073 6.98744 18.6073 7.28033 18.3144L17.9088 7.68591C17.9379 7.80751 17.9621 7.95071 17.9808 8.12206C18.0383 8.64929 18.0364 9.34144 18.0319 10.3488L18.0208 12.8309C18.019 13.2452 18.3533 13.5824 18.7675 13.5843C19.1817 13.5861 19.519 13.2519 19.5208 12.8376L19.5321 10.3108C19.5363 9.35908 19.5398 8.58125 19.4719 7.95921C19.4013 7.31239 19.2457 6.73972 18.8643 6.24694C18.7818 6.14026 18.6927 6.03898 18.5977 5.94364C18.5002 5.84587 18.3965 5.75437 18.2871 5.66971C17.7943 5.28835 17.2217 5.13278 16.5748 5.06214C15.9528 4.99421 15.175 4.9977 14.2233 5.00196L11.6964 5.01323C11.2822 5.01508 10.9479 5.35236 10.9498 5.76657C10.9516 6.18078 11.2889 6.51507 11.7031 6.51322L14.1852 6.50214Z" fill="white"/>
</svg>
