<svg width="262" height="29" viewBox="0 0 262 29" fill="none" xmlns="http://www.w3.org/2000/svg">
<path d="M54.758 14.8095C54.79 14.9561 54.798 15.1027 54.6062 15.2726C54.5583 15.3076 54.4944 15.35 54.4065 15.3842C54.3267 15.4158 54.2308 15.4583 54.103 15.4733C53.8634 15.5158 53.5359 15.52 53.1285 15.4042C52.7291 15.2884 52.2658 15.0486 51.8025 14.6163C51.5788 14.4006 51.3552 14.134 51.1475 13.8134C50.9478 13.4894 50.7641 13.1113 50.6443 12.6557C50.5244 12.2043 50.4605 11.6754 50.5404 11.0957C50.5564 10.9533 50.5883 10.8068 50.6283 10.656C50.6682 10.5094 50.7081 10.3587 50.772 10.2237C50.804 10.1546 50.836 10.0846 50.8599 10.0155C50.8999 9.94223 50.9238 9.87227 50.9638 9.8073C51.0437 9.67155 51.1235 9.53245 51.2114 9.40169C51.5708 8.87698 52.0741 8.42474 52.6731 8.09659C53.2643 7.76927 53.9513 7.56022 54.6942 7.51024C55.437 7.4636 56.2358 7.5719 56.9866 7.94669C57.0745 7.99666 57.1703 8.04245 57.2662 8.09325C57.3541 8.14322 57.434 8.20154 57.5218 8.25901C57.6976 8.36729 57.8494 8.50221 58.0091 8.6338C58.089 8.69544 58.1609 8.7729 58.2407 8.84536C58.3046 8.91865 58.3846 8.98856 58.4485 9.06935C58.5843 9.22427 58.728 9.38258 58.8398 9.55248C59.0875 9.88813 59.2792 10.2587 59.4549 10.6327C59.5268 10.8259 59.6067 11.0191 59.6626 11.2157C59.7025 11.3165 59.7345 11.4123 59.7585 11.5131L59.8304 11.8137C59.8623 11.9144 59.8703 12.0186 59.8943 12.1193C59.9102 12.2234 59.9262 12.3234 59.9422 12.4275C59.9661 12.6366 59.9901 12.8406 59.9901 13.0496C60.0141 13.4661 59.9821 13.8833 59.9182 14.2956C59.7904 15.126 59.5188 15.898 59.1434 16.5968C58.7599 17.2956 58.2887 17.9128 57.7615 18.4458C56.7071 19.5069 55.469 20.2324 54.2548 20.6921C53.0247 21.1402 51.8425 21.3367 50.7801 21.4292C49.7177 21.5183 48.7751 21.5066 47.9922 21.4833C47.2094 21.4525 46.5943 21.4142 46.163 21.3834C45.7316 21.3526 45.5 21.3325 45.5 21.3325C45.5 21.3325 45.7316 21.3176 46.163 21.2867C46.5943 21.2559 47.2095 21.2134 47.9843 21.1359C48.7591 21.0585 49.6777 20.9511 50.6842 20.7387C51.6907 20.5263 52.785 20.1982 53.8474 19.6727C54.9018 19.1404 55.9163 18.3759 56.7151 17.4072C57.1145 16.925 57.45 16.392 57.6976 15.8248C57.7615 15.6857 57.8174 15.5391 57.8653 15.3925C57.9212 15.2492 57.9612 15.0993 58.0011 14.9519C58.041 14.8095 58.065 14.6555 58.097 14.5081C58.1289 14.3581 58.1369 14.2115 58.1529 14.0641C58.2408 12.8873 57.8893 11.6596 57.2343 10.8417C57.1624 10.7334 57.0665 10.6444 56.9866 10.5519C56.9467 10.502 56.8908 10.4628 56.8509 10.4203C56.803 10.382 56.763 10.332 56.707 10.3012C56.6112 10.2279 56.5234 10.1463 56.4195 10.0921C56.3636 10.0613 56.3156 10.0271 56.2677 9.99966L56.116 9.93061C55.7246 9.74155 55.2612 9.68319 54.8299 9.71068C54.3906 9.73733 53.9832 9.86057 53.6477 10.038C53.3122 10.2162 53.0566 10.4478 52.8728 10.691C52.8249 10.7526 52.793 10.8184 52.753 10.88C52.7211 10.9067 52.7131 10.9417 52.6972 10.9767C52.6812 11.0075 52.6732 11.0383 52.6572 11.0691C52.5853 11.1966 52.5613 11.3048 52.5294 11.4281C52.4814 11.6713 52.4895 11.9261 52.5374 12.1651C52.6253 12.6482 52.8409 13.053 53.0646 13.3428C53.2803 13.636 53.504 13.8293 53.6957 13.96C53.8874 14.0958 54.0471 14.1765 54.1829 14.2423C54.2468 14.2806 54.3027 14.304 54.3586 14.339C54.4146 14.3614 54.4625 14.3922 54.5024 14.4197C54.6622 14.5238 54.7261 14.6587 54.758 14.8095Z" fill="#E5E5E5"/>
<path d="M65.2408 14.809C65.2085 14.9562 65.1924 15.1025 65.386 15.2724C65.4424 15.3077 65.5069 15.3497 65.5876 15.3842C65.6683 15.4153 65.7731 15.4574 65.8941 15.4734C66.136 15.5155 66.4587 15.5197 66.87 15.4036C67.2733 15.2876 67.733 15.0487 68.1927 14.6164C68.4186 14.4003 68.6445 14.1337 68.8461 13.8133C69.0477 13.4896 69.2332 13.1112 69.3542 12.6554C69.4752 12.2038 69.5316 11.6748 69.459 11.0962C69.4429 10.9533 69.4107 10.8069 69.3704 10.6556C69.33 10.5092 69.2816 10.3587 69.2251 10.2233C69.1929 10.1544 69.1687 10.0845 69.1284 10.0156C69.1042 9.94155 69.0719 9.87264 69.0316 9.80704C68.9509 9.67165 68.8783 9.53286 68.7815 9.40167C68.4186 8.87691 67.9185 8.42536 67.3217 8.09654C66.7329 7.76857 66.0473 7.55995 65.3053 7.51033C64.5633 7.46324 63.7648 7.57178 63.0147 7.94601C62.9179 7.99646 62.8292 8.04272 62.7324 8.09317C62.6436 8.14279 62.5631 8.20079 62.4743 8.25882C62.305 8.3673 62.1436 8.50187 61.9904 8.63306C61.9017 8.6953 61.8371 8.7726 61.7645 8.84577C61.6919 8.91893 61.6113 8.98874 61.5468 9.06948C61.4097 9.22421 61.2725 9.38233 61.1596 9.55221C60.9096 9.88775 60.716 10.2586 60.5466 10.6328C60.4741 10.8254 60.3853 11.0189 60.3289 11.2156C60.2966 11.3157 60.2644 11.4124 60.2402 11.5134L60.1675 11.8135C60.1433 11.9144 60.1272 12.0187 60.103 12.1188C60.0869 12.2231 60.0708 12.3232 60.0547 12.4275C60.0385 12.636 60.0062 12.8404 60.0062 13.0489C59.982 13.466 60.0143 13.8832 60.0707 14.2961C60.2079 15.1261 60.4741 15.898 60.8612 16.5969C61.2322 17.2949 61.7081 17.913 62.2324 18.4454C63.289 19.5066 64.523 20.2324 65.7409 20.6916C66.9749 21.1398 68.1605 21.3366 69.2171 21.4291C70.2817 21.5183 71.2254 21.5064 72.0077 21.4837C72.782 21.4526 73.4111 21.4139 73.8386 21.3828C74.2661 21.3517 74.5 21.3324 74.5 21.3324C74.5 21.3324 74.2661 21.3173 73.8386 21.2861C73.4111 21.2559 72.7821 21.213 72.0158 21.1356C71.2415 21.0591 70.3221 20.9505 69.3139 20.7386C68.3057 20.5258 67.2088 20.1979 66.1522 19.6731C65.1037 19.14 64.0794 18.3756 63.2809 17.4068C62.8857 16.9249 62.5469 16.3917 62.3049 15.8249C62.2323 15.6853 62.1839 15.539 62.1275 15.3919C62.0791 15.2489 62.0388 15.0992 61.9984 14.952C61.95 14.809 61.9339 14.6551 61.9016 14.508C61.8694 14.3574 61.8613 14.2112 61.8452 14.064C61.7564 12.8866 62.1033 11.6597 62.7566 10.8414C62.8373 10.7329 62.9259 10.6446 63.0147 10.5513C63.055 10.5016 63.1034 10.463 63.1518 10.4209C63.2002 10.3822 63.2405 10.3318 63.2889 10.3007C63.3857 10.2275 63.4825 10.1468 63.5792 10.0921C63.6357 10.0618 63.6841 10.0265 63.7325 9.99962L63.8858 9.93064C64.2729 9.74142 64.7326 9.68339 65.1682 9.7103C65.6037 9.73721 66.0151 9.86086 66.3458 10.0383C66.6845 10.2157 66.9426 10.4478 67.1281 10.6909C67.1684 10.7523 67.2007 10.8179 67.2491 10.8801C67.2733 10.907 67.2814 10.9414 67.2975 10.9759C67.3136 11.007 67.3297 11.0382 67.3459 11.0693C67.4104 11.1963 67.4427 11.3047 67.4669 11.4275C67.5152 11.6714 67.5072 11.9263 67.4588 12.1651C67.3701 12.6478 67.1523 13.0531 66.9346 13.3424C66.7168 13.6359 66.491 13.8293 66.3055 13.9597C66.1119 14.0951 65.9506 14.1766 65.8215 14.2422C65.7489 14.2809 65.6924 14.3036 65.636 14.3381C65.5876 14.3617 65.5392 14.3928 65.4989 14.4197C65.3376 14.5239 65.2731 14.6585 65.2408 14.809Z" fill="#E5E5E5"/>
<path d="M0.5 14.5C4.6691 14.0854 8.83495 13.8662 13.0008 13.7229C15.0837 13.6271 17.1667 13.6072 19.2528 13.556L25.5016 13.5L31.7504 13.5512L36.4386 13.6594L37.9992 13.7191C42.1683 13.8662 46.3341 14.0816 50.5 14.5C46.3341 14.9137 42.1683 15.1337 37.9992 15.2808L36.4386 15.3405L31.7504 15.4477L25.5016 15.5L19.2528 15.4439C17.1667 15.388 15.0837 15.3681 13.0008 15.277C8.83495 15.129 4.6691 14.9137 0.5 14.5Z" fill="#E5E5E5"/>
<path d="M103.648 9.73047C103.648 12.293 102.906 14.457 101.422 16.2227C100.086 17.8164 98.6445 18.6133 97.0977 18.6133C95.8789 18.6133 95.0078 18.0234 94.4844 16.8438H94.332C94.1992 17.8516 93.9297 18.7148 93.5234 19.4336C92.9922 20.3711 92.4414 21.0586 91.8711 21.4961L91.8945 21.5664H96.1133V22H91.0977C90.082 22 89.3789 21.8398 88.9883 21.5195L89.2227 21.1328C89.6367 21.4219 89.9727 21.5664 90.2305 21.5664C91.1133 21.5664 91.7852 21.0156 92.2461 19.9141C92.4102 19.5391 92.6992 18.5156 93.1133 16.8438L93.1367 16.7383H92.9727C92.0586 17.5195 91.5273 17.9609 91.3789 18.0625C90.8008 18.4297 90.1406 18.6133 89.3984 18.6133C88.4219 18.6133 87.6211 18.2578 86.9961 17.5469C86.293 16.7266 85.9414 15.5625 85.9414 14.0547C85.9414 12.2578 86.4922 10.4258 87.5938 8.55859C88.9141 6.31641 90.5469 5.19531 92.4922 5.19531C93.6016 5.19531 94.4727 5.78125 95.1055 6.95312H95.2695C95.5508 5.1875 96.0977 3.80469 96.9102 2.80469C97.6523 1.875 98.5625 1.41016 99.6406 1.41016C100.586 1.41016 101.234 1.81641 101.586 2.62891L101.176 2.875C100.855 2.23437 100.406 1.91406 99.8281 1.91406C99 1.91406 98.3477 2.17578 97.8711 2.69922C97.4883 3.12109 97.1992 3.77734 97.0039 4.66797L96.4766 7.07031H96.6172C97.2812 6.40625 97.8086 5.95703 98.1992 5.72266C98.7852 5.37109 99.4414 5.19531 100.168 5.19531C101.262 5.19531 102.113 5.60937 102.723 6.4375C103.34 7.25781 103.648 8.35547 103.648 9.73047ZM102.453 8.32422C102.453 7.43359 102.211 6.75781 101.727 6.29688C101.312 5.89844 100.793 5.69922 100.168 5.69922C99.1758 5.69922 98.2695 6.09766 97.4492 6.89453C96.7383 7.58203 96.293 8.32031 96.1133 9.10938L94.6719 15.5195C94.7422 16.2461 95.0156 16.8594 95.4922 17.3594C95.9688 17.8594 96.5117 18.1094 97.1211 18.1094C98.543 18.1094 99.7031 17.2227 100.602 15.4492C101.836 13.0039 102.453 10.6289 102.453 8.32422ZM94.918 8.30078C94.8711 7.58203 94.6016 6.96875 94.1094 6.46094C93.6172 5.95313 93.0703 5.69922 92.4688 5.69922C91.0312 5.69922 89.8711 6.58984 88.9883 8.37109C87.7539 10.8477 87.1367 13.2227 87.1367 15.4961C87.1367 17.2383 87.8906 18.1094 89.3984 18.1094C90.2812 18.1094 91.1211 17.7773 91.918 17.1133C92.7227 16.4414 93.2344 15.6289 93.4531 14.6758L94.918 8.30078ZM109.895 15.3555C109.895 16.4727 109.551 17.6953 108.863 19.0234C108.426 19.8672 107.918 20.582 107.34 21.168C106.629 21.8789 105.945 22.2344 105.289 22.2344C104.156 22.2344 103.59 21.3633 103.59 19.6211C103.59 18.3242 104.02 16.8984 104.879 15.3438C105.871 13.5703 106.977 12.6836 108.195 12.6836C109.328 12.6836 109.895 13.5742 109.895 15.3555ZM109.027 14.1484C109.027 13.4141 108.758 13.0469 108.219 13.0469C107.547 13.0469 106.816 13.8164 106.027 15.3555C104.973 17.418 104.445 19.1758 104.445 20.6289C104.445 21.4648 104.742 21.8828 105.336 21.8828C105.719 21.8828 106.082 21.6758 106.426 21.2617C106.879 20.7148 107.402 19.6953 107.996 18.2031C108.684 16.4922 109.027 15.1406 109.027 14.1484ZM122 13.3164H120.629L118.109 20.3711C117.852 21.082 117.723 21.4961 117.723 21.6133C117.723 21.793 117.805 21.8828 117.969 21.8828C118.102 21.8828 118.324 21.7305 118.637 21.4258C118.902 21.168 119.254 20.6797 119.691 19.9609L120.922 17.9453L121.18 18.0859L120.055 19.9609C119.141 21.4766 118.402 22.2344 117.84 22.2344C117.238 22.2344 116.938 21.8203 116.938 20.9922C116.938 20.7969 117.062 20.332 117.312 19.5977L119.527 13.3164H117.219L114.312 22H113.211L116.141 13.3164H113.832L110.902 22H109.824L112.73 13.3164H111.195V12.9531H122V13.3164ZM127.918 15.3555C127.918 16.4727 127.574 17.6953 126.887 19.0234C126.449 19.8672 125.941 20.582 125.363 21.168C124.652 21.8789 123.969 22.2344 123.312 22.2344C122.18 22.2344 121.613 21.3633 121.613 19.6211C121.613 18.3242 122.043 16.8984 122.902 15.3438C123.895 13.5703 125 12.6836 126.219 12.6836C127.352 12.6836 127.918 13.5742 127.918 15.3555ZM127.051 14.1484C127.051 13.4141 126.781 13.0469 126.242 13.0469C125.57 13.0469 124.84 13.8164 124.051 15.3555C122.996 17.418 122.469 19.1758 122.469 20.6289C122.469 21.4648 122.766 21.8828 123.359 21.8828C123.742 21.8828 124.105 21.6758 124.449 21.2617C124.902 20.7148 125.426 19.6953 126.02 18.2031C126.707 16.4922 127.051 15.1406 127.051 14.1484ZM136.367 18.1094L135.312 20.0078C134.484 21.4922 133.797 22.2344 133.25 22.2344C132.672 22.2344 132.383 21.8594 132.383 21.1094C132.383 20.7422 132.449 20.3828 132.582 20.0312L133.543 17.418H133.449C131.48 20.6289 129.965 22.2344 128.902 22.2344C128.199 22.2344 127.848 21.6289 127.848 20.418C127.848 19.543 128.266 18.4688 129.102 17.1953C129.898 15.9688 130.844 14.9102 131.938 14.0195C133.031 13.1289 133.887 12.6836 134.504 12.6836C135.207 12.6836 135.559 13.0117 135.559 13.668C135.559 13.8945 135.461 14.2969 135.266 14.875L133.543 20.0312C133.27 20.8438 133.133 21.3633 133.133 21.5898C133.133 21.7852 133.195 21.8828 133.32 21.8828C133.68 21.8828 134.25 21.2031 135.031 19.8438L136.086 17.9922L136.367 18.1094ZM134.832 13.3867C134.832 13.1602 134.695 13.0469 134.422 13.0469C134.164 13.0469 133.789 13.2422 133.297 13.6328C132.641 14.1484 131.957 14.8945 131.246 15.8711C130.543 16.8398 129.914 17.8633 129.359 18.9414C128.773 20.0664 128.48 20.8477 128.48 21.2852C128.48 21.6836 128.629 21.8828 128.926 21.8828C129.441 21.8828 130.156 21.3359 131.07 20.2422C132.211 18.8828 133.172 17.3555 133.953 15.6602C134.539 14.3711 134.832 13.6133 134.832 13.3867ZM145.438 13.3164H144.16L141.664 20.3711C141.555 20.6602 141.426 21.0117 141.277 21.4258V21.6133C141.301 21.793 141.375 21.8828 141.5 21.8828C141.711 21.8828 141.941 21.7305 142.191 21.4258C142.543 21.0039 142.887 20.5156 143.223 19.9609L144.453 17.9453L144.711 18.0859L143.586 19.9609C142.672 21.4766 141.938 22.2344 141.383 22.2344C141.102 22.2344 140.875 22.0977 140.703 21.8242C140.547 21.582 140.469 21.3047 140.469 20.9922C140.469 20.7891 140.598 20.3242 140.855 19.5977L143.082 13.3164H141.184L140.703 14.7227C139.938 16.9883 139.082 18.8633 138.137 20.3477C137.332 21.6055 136.59 22.2344 135.91 22.2344C135.332 22.2344 135.043 21.9805 135.043 21.4727C135.043 21.0742 135.25 20.875 135.664 20.875C136.047 20.875 136.238 21.0664 136.238 21.4492C136.238 21.5977 136.199 21.7266 136.121 21.8359L136.145 21.8594C136.668 21.6797 137.238 21.0781 137.855 20.0547C138.645 18.7266 139.469 16.8945 140.328 14.5586L140.773 13.3164H138.477V12.9531H145.438V13.3164ZM151.566 17.3477C151.566 18.4102 151.086 19.5117 150.125 20.6523C149.242 21.707 148.324 22.2344 147.371 22.2344C146.441 22.2344 145.977 21.6602 145.977 20.5117C145.977 20.0586 146.113 19.5 146.387 18.8359C146.645 18.2266 147.172 17.168 147.969 15.6602C148.164 15.293 148.359 14.9258 148.555 14.5586C148.797 14.082 148.938 13.7148 148.977 13.457V13.293C148.922 13.1289 148.828 13.0469 148.695 13.0469C148.43 13.0469 147.883 13.4766 147.055 14.3359C146.438 14.9844 145.863 15.6445 145.332 16.3164L145.086 16.0938C146.445 14.5938 147.324 13.6602 147.723 13.293C148.168 12.8867 148.562 12.6836 148.906 12.6836C149.438 12.6836 149.703 12.9727 149.703 13.5508C149.703 14.3789 149.133 15.6445 147.992 17.3477L148.156 17.4414C148.898 16.418 149.668 15.9062 150.465 15.9062C151.199 15.9062 151.566 16.3867 151.566 17.3477ZM150.945 16.7383C150.945 16.4258 150.777 16.2695 150.441 16.2695C149.863 16.2695 149.102 16.875 148.156 18.0859C147.172 19.3672 146.68 20.3984 146.68 21.1797C146.68 21.6484 146.902 21.8828 147.348 21.8828C148.027 21.8828 148.844 21.1367 149.797 19.6445C150.562 18.4414 150.945 17.4727 150.945 16.7383ZM161.762 5.21875C161.762 6.89063 160.332 8.5625 157.473 10.2344C156.527 10.7891 155.832 11.3008 155.387 11.7695C154.66 12.5508 154.297 13.4414 154.297 14.4414V14.6289L154.426 14.6992C155.23 13.3555 156.062 12.6836 156.922 12.6836C158.039 12.6836 158.598 13.5 158.598 15.1328C158.598 16.7578 158.062 18.3906 156.992 20.0312C156.031 21.5 155.031 22.2344 153.992 22.2344C152.891 22.2344 152.34 21.3242 152.34 19.5039C152.34 18.7852 152.602 17.5234 153.125 15.7188C153.656 13.9062 154.145 12.6172 154.59 11.8516C155.27 10.6797 156.234 9.72266 157.484 8.98047C158.406 8.47266 159.328 7.96875 160.25 7.46875C161.07 6.89063 161.48 6.10156 161.48 5.10156C161.48 4.88281 161.434 4.67578 161.34 4.48047L161.598 4.36328C161.707 4.85547 161.762 5.14062 161.762 5.21875ZM157.73 14.4414C157.754 14.2305 157.754 14.0547 157.73 13.9141C157.66 13.3359 157.391 13.0469 156.922 13.0469C156.328 13.0469 155.664 13.7734 154.93 15.2266C153.773 17.5078 153.195 19.3008 153.195 20.6055C153.195 21.457 153.461 21.8828 153.992 21.8828C154.625 21.8828 155.23 21.3203 155.809 20.1953C156.176 19.4922 156.504 18.7852 156.793 18.0742C157.332 16.6992 157.645 15.4883 157.73 14.4414ZM165.441 15.3555C165.441 16.4727 165.098 17.6953 164.41 19.0234C163.973 19.8672 163.465 20.582 162.887 21.168C162.176 21.8789 161.492 22.2344 160.836 22.2344C159.703 22.2344 159.137 21.3633 159.137 19.6211C159.137 18.3242 159.566 16.8984 160.426 15.3438C161.418 13.5703 162.523 12.6836 163.742 12.6836C164.875 12.6836 165.441 13.5742 165.441 15.3555ZM164.574 14.1484C164.574 13.4141 164.305 13.0469 163.766 13.0469C163.094 13.0469 162.363 13.8164 161.574 15.3555C160.52 17.418 159.992 19.1758 159.992 20.6289C159.992 21.4648 160.289 21.8828 160.883 21.8828C161.266 21.8828 161.629 21.6758 161.973 21.2617C162.426 20.7148 162.949 19.6953 163.543 18.2031C164.23 16.4922 164.574 15.1406 164.574 14.1484ZM177.23 18.0859L176.105 19.9609C175.191 21.4766 174.453 22.2344 173.891 22.2344C173.289 22.2344 172.988 21.8203 172.988 20.9922C172.988 20.7891 173.113 20.3242 173.363 19.5977L175.484 13.5977H175.285L170.34 19.7969L170.035 19.7148L169.484 13.5977H169.309L167.727 18.8594C167.414 19.8828 167.133 20.6172 166.883 21.0625C166.43 21.8438 165.879 22.2344 165.23 22.2344C164.652 22.2344 164.363 21.9805 164.363 21.4727C164.363 21.0742 164.574 20.875 164.996 20.875C165.395 20.875 165.594 21.0742 165.594 21.4727C165.594 21.5977 165.543 21.7266 165.441 21.8594L165.477 21.8828C166.188 21.6953 166.816 20.6953 167.363 18.8828L169.051 13.3164H167.246V12.9531H169.508C170.227 12.9531 170.625 13.4648 170.703 14.4883L170.996 18.332L175.379 12.9531H176.797L174.16 20.3711C173.902 21.0898 173.773 21.5039 173.773 21.6133C173.773 21.793 173.855 21.8828 174.02 21.8828C174.152 21.8828 174.375 21.7305 174.688 21.4258C174.953 21.168 175.305 20.6797 175.742 19.9609L176.973 17.9453L177.23 18.0859Z" fill="#11682F"/>
<path d="M196.758 14.8095C196.79 14.9561 196.798 15.1027 196.606 15.2726C196.558 15.3076 196.494 15.35 196.407 15.3842C196.327 15.4158 196.231 15.4583 196.103 15.4733C195.863 15.5158 195.536 15.52 195.128 15.4042C194.729 15.2884 194.266 15.0486 193.803 14.6163C193.579 14.4006 193.355 14.134 193.147 13.8134C192.948 13.4894 192.764 13.1113 192.644 12.6557C192.524 12.2043 192.461 11.6754 192.54 11.0957C192.556 10.9533 192.588 10.8068 192.628 10.656C192.668 10.5094 192.708 10.3587 192.772 10.2237C192.804 10.1546 192.836 10.0846 192.86 10.0155C192.9 9.94223 192.924 9.87227 192.964 9.8073C193.044 9.67155 193.124 9.53245 193.211 9.40169C193.571 8.87698 194.074 8.42474 194.673 8.09659C195.264 7.76927 195.951 7.56022 196.694 7.51024C197.437 7.4636 198.236 7.5719 198.987 7.94669C199.074 7.99666 199.17 8.04245 199.266 8.09325C199.354 8.14322 199.434 8.20154 199.522 8.25901C199.698 8.36729 199.849 8.50221 200.009 8.6338C200.089 8.69544 200.161 8.7729 200.241 8.84536C200.305 8.91865 200.385 8.98856 200.448 9.06935C200.584 9.22427 200.728 9.38258 200.84 9.55248C201.087 9.88813 201.279 10.2587 201.455 10.6327C201.527 10.8259 201.607 11.0191 201.663 11.2157C201.703 11.3165 201.734 11.4123 201.758 11.5131L201.83 11.8137C201.862 11.9144 201.87 12.0186 201.894 12.1193C201.91 12.2234 201.926 12.3234 201.942 12.4275C201.966 12.6366 201.99 12.8406 201.99 13.0496C202.014 13.4661 201.982 13.8833 201.918 14.2956C201.79 15.126 201.519 15.898 201.143 16.5968C200.76 17.2956 200.289 17.9128 199.761 18.4458C198.707 19.5069 197.469 20.2324 196.255 20.6921C195.025 21.1402 193.842 21.3367 192.78 21.4292C191.718 21.5183 190.775 21.5066 189.992 21.4833C189.209 21.4525 188.594 21.4142 188.163 21.3834C187.732 21.3526 187.5 21.3325 187.5 21.3325C187.5 21.3325 187.732 21.3176 188.163 21.2867C188.594 21.2559 189.209 21.2134 189.984 21.1359C190.759 21.0585 191.678 20.9511 192.684 20.7387C193.691 20.5263 194.785 20.1982 195.847 19.6727C196.902 19.1404 197.916 18.3759 198.715 17.4072C199.114 16.925 199.45 16.392 199.698 15.8248C199.761 15.6857 199.817 15.5391 199.865 15.3925C199.921 15.2492 199.961 15.0993 200.001 14.9519C200.041 14.8095 200.065 14.6555 200.097 14.5081C200.129 14.3581 200.137 14.2115 200.153 14.0641C200.241 12.8873 199.889 11.6596 199.234 10.8417C199.162 10.7334 199.067 10.6444 198.987 10.5519C198.947 10.502 198.891 10.4628 198.851 10.4203C198.803 10.382 198.763 10.332 198.707 10.3012C198.611 10.2279 198.523 10.1463 198.42 10.0921C198.364 10.0613 198.316 10.0271 198.268 9.99966L198.116 9.93061C197.725 9.74155 197.261 9.68319 196.83 9.71068C196.391 9.73733 195.983 9.86057 195.648 10.038C195.312 10.2162 195.057 10.4478 194.873 10.691C194.825 10.7526 194.793 10.8184 194.753 10.88C194.721 10.9067 194.713 10.9417 194.697 10.9767C194.681 11.0075 194.673 11.0383 194.657 11.0691C194.585 11.1966 194.561 11.3048 194.529 11.4281C194.481 11.6713 194.489 11.9261 194.537 12.1651C194.625 12.6482 194.841 13.053 195.065 13.3428C195.28 13.636 195.504 13.8293 195.696 13.96C195.887 14.0958 196.047 14.1765 196.183 14.2423C196.247 14.2806 196.303 14.304 196.359 14.339C196.415 14.3614 196.462 14.3922 196.502 14.4197C196.662 14.5238 196.726 14.6587 196.758 14.8095Z" fill="#E5E5E5"/>
<path d="M207.241 14.809C207.209 14.9562 207.192 15.1025 207.386 15.2724C207.442 15.3077 207.507 15.3497 207.588 15.3842C207.668 15.4153 207.773 15.4574 207.894 15.4734C208.136 15.5155 208.459 15.5197 208.87 15.4036C209.273 15.2876 209.733 15.0487 210.193 14.6164C210.419 14.4003 210.644 14.1337 210.846 13.8133C211.048 13.4896 211.233 13.1112 211.354 12.6554C211.475 12.2038 211.532 11.6748 211.459 11.0962C211.443 10.9533 211.411 10.8069 211.37 10.6556C211.33 10.5092 211.282 10.3587 211.225 10.2233C211.193 10.1544 211.169 10.0845 211.128 10.0156C211.104 9.94155 211.072 9.87264 211.032 9.80704C210.951 9.67165 210.878 9.53286 210.782 9.40167C210.419 8.87691 209.919 8.42536 209.322 8.09654C208.733 7.76857 208.047 7.55995 207.305 7.51033C206.563 7.46324 205.765 7.57178 205.015 7.94601C204.918 7.99646 204.829 8.04272 204.732 8.09317C204.644 8.14279 204.563 8.20079 204.474 8.25882C204.305 8.3673 204.144 8.50187 203.99 8.63306C203.902 8.6953 203.837 8.7726 203.765 8.84577C203.692 8.91893 203.611 8.98874 203.547 9.06948C203.41 9.22421 203.273 9.38233 203.16 9.55221C202.91 9.88775 202.716 10.2586 202.547 10.6328C202.474 10.8254 202.385 11.0189 202.329 11.2156C202.297 11.3157 202.264 11.4124 202.24 11.5134L202.168 11.8135C202.143 11.9144 202.127 12.0187 202.103 12.1188C202.087 12.2231 202.071 12.3232 202.055 12.4275C202.039 12.636 202.006 12.8404 202.006 13.0489C201.982 13.466 202.014 13.8832 202.071 14.2961C202.208 15.1261 202.474 15.898 202.861 16.5969C203.232 17.2949 203.708 17.913 204.232 18.4454C205.289 19.5066 206.523 20.2324 207.741 20.6916C208.975 21.1398 210.16 21.3366 211.217 21.4291C212.282 21.5183 213.225 21.5064 214.008 21.4837C214.782 21.4526 215.411 21.4139 215.839 21.3828C216.266 21.3517 216.5 21.3324 216.5 21.3324C216.5 21.3324 216.266 21.3173 215.839 21.2861C215.411 21.2559 214.782 21.213 214.016 21.1356C213.242 21.0591 212.322 20.9505 211.314 20.7386C210.306 20.5258 209.209 20.1979 208.152 19.6731C207.104 19.14 206.079 18.3756 205.281 17.4068C204.886 16.9249 204.547 16.3917 204.305 15.8249C204.232 15.6853 204.184 15.539 204.127 15.3919C204.079 15.2489 204.039 15.0992 203.998 14.952C203.95 14.809 203.934 14.6551 203.902 14.508C203.869 14.3574 203.861 14.2112 203.845 14.064C203.756 12.8866 204.103 11.6597 204.757 10.8414C204.837 10.7329 204.926 10.6446 205.015 10.5513C205.055 10.5016 205.103 10.463 205.152 10.4209C205.2 10.3822 205.241 10.3318 205.289 10.3007C205.386 10.2275 205.482 10.1468 205.579 10.0921C205.636 10.0618 205.684 10.0265 205.733 9.99962L205.886 9.93064C206.273 9.74142 206.733 9.68339 207.168 9.7103C207.604 9.73721 208.015 9.86086 208.346 10.0383C208.685 10.2157 208.943 10.4478 209.128 10.6909C209.168 10.7523 209.201 10.8179 209.249 10.8801C209.273 10.907 209.281 10.9414 209.298 10.9759C209.314 11.007 209.33 11.0382 209.346 11.0693C209.41 11.1963 209.443 11.3047 209.467 11.4275C209.515 11.6714 209.507 11.9263 209.459 12.1651C209.37 12.6478 209.152 13.0531 208.935 13.3424C208.717 13.6359 208.491 13.8293 208.305 13.9597C208.112 14.0951 207.951 14.1766 207.822 14.2422C207.749 14.2809 207.692 14.3036 207.636 14.3381C207.588 14.3617 207.539 14.3928 207.499 14.4197C207.338 14.5239 207.273 14.6585 207.241 14.809Z" fill="#E5E5E5"/>
<path d="M211.5 14.5C215.669 14.0854 219.835 13.8662 224.001 13.7229C226.084 13.6271 228.167 13.6072 230.253 13.556L236.502 13.5L242.75 13.5512L247.439 13.6594L248.999 13.7191C253.168 13.8662 257.334 14.0816 261.5 14.5C257.334 14.9137 253.168 15.1337 248.999 15.2808L247.439 15.3405L242.75 15.4477L236.502 15.5L230.253 15.4439C228.167 15.388 226.084 15.3681 224.001 15.277C219.835 15.129 215.669 14.9137 211.5 14.5Z" fill="#E5E5E5"/>
</svg>
