<svg width="257" height="29" viewBox="0 0 257 29" fill="none" xmlns="http://www.w3.org/2000/svg">
<path d="M54.758 14.8095C54.79 14.9561 54.798 15.1027 54.6062 15.2726C54.5583 15.3076 54.4944 15.35 54.4065 15.3842C54.3267 15.4158 54.2308 15.4583 54.103 15.4733C53.8634 15.5158 53.5359 15.52 53.1285 15.4042C52.7291 15.2884 52.2658 15.0486 51.8025 14.6163C51.5788 14.4006 51.3552 14.134 51.1475 13.8134C50.9478 13.4894 50.7641 13.1113 50.6443 12.6557C50.5244 12.2043 50.4605 11.6754 50.5404 11.0957C50.5564 10.9533 50.5883 10.8068 50.6283 10.656C50.6682 10.5094 50.7081 10.3587 50.772 10.2237C50.804 10.1546 50.836 10.0846 50.8599 10.0155C50.8999 9.94223 50.9238 9.87227 50.9638 9.8073C51.0437 9.67155 51.1235 9.53245 51.2114 9.40169C51.5708 8.87698 52.0741 8.42474 52.6731 8.09659C53.2643 7.76927 53.9513 7.56022 54.6942 7.51024C55.437 7.4636 56.2358 7.5719 56.9866 7.94669C57.0745 7.99666 57.1703 8.04245 57.2662 8.09325C57.3541 8.14322 57.434 8.20154 57.5218 8.25901C57.6976 8.36729 57.8494 8.50221 58.0091 8.6338C58.089 8.69544 58.1609 8.7729 58.2407 8.84536C58.3046 8.91865 58.3846 8.98856 58.4485 9.06935C58.5843 9.22427 58.728 9.38258 58.8398 9.55248C59.0875 9.88813 59.2792 10.2587 59.4549 10.6327C59.5268 10.8259 59.6067 11.0191 59.6626 11.2157C59.7025 11.3165 59.7345 11.4123 59.7585 11.5131L59.8304 11.8137C59.8623 11.9144 59.8703 12.0186 59.8943 12.1193C59.9102 12.2234 59.9262 12.3234 59.9422 12.4275C59.9661 12.6366 59.9901 12.8406 59.9901 13.0496C60.0141 13.4661 59.9821 13.8833 59.9182 14.2956C59.7904 15.126 59.5188 15.898 59.1434 16.5968C58.7599 17.2956 58.2887 17.9128 57.7615 18.4458C56.7071 19.5069 55.469 20.2324 54.2548 20.6921C53.0247 21.1402 51.8425 21.3367 50.7801 21.4292C49.7177 21.5183 48.7751 21.5066 47.9922 21.4833C47.2094 21.4525 46.5943 21.4142 46.163 21.3834C45.7316 21.3526 45.5 21.3325 45.5 21.3325C45.5 21.3325 45.7316 21.3176 46.163 21.2867C46.5943 21.2559 47.2095 21.2134 47.9843 21.1359C48.7591 21.0585 49.6777 20.9511 50.6842 20.7387C51.6907 20.5263 52.785 20.1982 53.8474 19.6727C54.9018 19.1404 55.9163 18.3759 56.7151 17.4072C57.1145 16.925 57.45 16.392 57.6976 15.8248C57.7615 15.6857 57.8174 15.5391 57.8653 15.3925C57.9212 15.2492 57.9612 15.0993 58.0011 14.9519C58.041 14.8095 58.065 14.6555 58.097 14.5081C58.1289 14.3581 58.1369 14.2115 58.1529 14.0641C58.2408 12.8873 57.8893 11.6596 57.2343 10.8417C57.1624 10.7334 57.0665 10.6444 56.9866 10.5519C56.9467 10.502 56.8908 10.4628 56.8509 10.4203C56.803 10.382 56.763 10.332 56.707 10.3012C56.6112 10.2279 56.5234 10.1463 56.4195 10.0921C56.3636 10.0613 56.3156 10.0271 56.2677 9.99966L56.116 9.93061C55.7246 9.74155 55.2612 9.68319 54.8299 9.71068C54.3906 9.73733 53.9832 9.86057 53.6477 10.038C53.3122 10.2162 53.0566 10.4478 52.8728 10.691C52.8249 10.7526 52.793 10.8184 52.753 10.88C52.7211 10.9067 52.7131 10.9417 52.6972 10.9767C52.6812 11.0075 52.6732 11.0383 52.6572 11.0691C52.5853 11.1966 52.5613 11.3048 52.5294 11.4281C52.4814 11.6713 52.4895 11.9261 52.5374 12.1651C52.6253 12.6482 52.8409 13.053 53.0646 13.3428C53.2803 13.636 53.504 13.8293 53.6957 13.96C53.8874 14.0958 54.0471 14.1765 54.1829 14.2423C54.2468 14.2806 54.3027 14.304 54.3586 14.339C54.4146 14.3614 54.4625 14.3922 54.5024 14.4197C54.6622 14.5238 54.7261 14.6587 54.758 14.8095Z" fill="#E5E5E5"/>
<path d="M65.2408 14.809C65.2085 14.9562 65.1924 15.1025 65.386 15.2724C65.4424 15.3077 65.5069 15.3497 65.5876 15.3842C65.6683 15.4153 65.7731 15.4574 65.8941 15.4734C66.136 15.5155 66.4587 15.5197 66.87 15.4036C67.2733 15.2876 67.733 15.0487 68.1927 14.6164C68.4186 14.4003 68.6445 14.1337 68.8461 13.8133C69.0477 13.4896 69.2332 13.1112 69.3542 12.6554C69.4752 12.2038 69.5316 11.6748 69.459 11.0962C69.4429 10.9533 69.4107 10.8069 69.3704 10.6556C69.33 10.5092 69.2816 10.3587 69.2251 10.2233C69.1929 10.1544 69.1687 10.0845 69.1284 10.0156C69.1042 9.94155 69.0719 9.87264 69.0316 9.80704C68.9509 9.67165 68.8783 9.53286 68.7815 9.40167C68.4186 8.87691 67.9185 8.42536 67.3217 8.09654C66.7329 7.76857 66.0473 7.55995 65.3053 7.51033C64.5633 7.46324 63.7648 7.57178 63.0147 7.94601C62.9179 7.99646 62.8292 8.04272 62.7324 8.09317C62.6436 8.14279 62.5631 8.20079 62.4743 8.25882C62.305 8.3673 62.1436 8.50187 61.9904 8.63306C61.9017 8.6953 61.8371 8.7726 61.7645 8.84577C61.6919 8.91893 61.6113 8.98874 61.5468 9.06948C61.4097 9.22421 61.2725 9.38233 61.1596 9.55221C60.9096 9.88775 60.716 10.2586 60.5466 10.6328C60.4741 10.8254 60.3853 11.0189 60.3289 11.2156C60.2966 11.3157 60.2644 11.4124 60.2402 11.5134L60.1675 11.8135C60.1433 11.9144 60.1272 12.0187 60.103 12.1188C60.0869 12.2231 60.0708 12.3232 60.0547 12.4275C60.0385 12.636 60.0062 12.8404 60.0062 13.0489C59.982 13.466 60.0143 13.8832 60.0707 14.2961C60.2079 15.1261 60.4741 15.898 60.8612 16.5969C61.2322 17.2949 61.7081 17.913 62.2324 18.4454C63.289 19.5066 64.523 20.2324 65.7409 20.6916C66.9749 21.1398 68.1605 21.3366 69.2171 21.4291C70.2817 21.5183 71.2254 21.5064 72.0077 21.4837C72.782 21.4526 73.4111 21.4139 73.8386 21.3828C74.2661 21.3517 74.5 21.3324 74.5 21.3324C74.5 21.3324 74.2661 21.3173 73.8386 21.2861C73.4111 21.2559 72.7821 21.213 72.0158 21.1356C71.2415 21.0591 70.3221 20.9505 69.3139 20.7386C68.3057 20.5258 67.2088 20.1979 66.1522 19.6731C65.1037 19.14 64.0794 18.3756 63.2809 17.4068C62.8857 16.9249 62.5469 16.3917 62.3049 15.8249C62.2323 15.6853 62.1839 15.539 62.1275 15.3919C62.0791 15.2489 62.0388 15.0992 61.9984 14.952C61.95 14.809 61.9339 14.6551 61.9016 14.508C61.8694 14.3574 61.8613 14.2112 61.8452 14.064C61.7564 12.8866 62.1033 11.6597 62.7566 10.8414C62.8373 10.7329 62.9259 10.6446 63.0147 10.5513C63.055 10.5016 63.1034 10.463 63.1518 10.4209C63.2002 10.3822 63.2405 10.3318 63.2889 10.3007C63.3857 10.2275 63.4825 10.1468 63.5792 10.0921C63.6357 10.0618 63.6841 10.0265 63.7325 9.99962L63.8858 9.93064C64.2729 9.74142 64.7326 9.68339 65.1682 9.7103C65.6037 9.73721 66.0151 9.86086 66.3458 10.0383C66.6845 10.2157 66.9426 10.4478 67.1281 10.6909C67.1684 10.7523 67.2007 10.8179 67.2491 10.8801C67.2733 10.907 67.2814 10.9414 67.2975 10.9759C67.3136 11.007 67.3297 11.0382 67.3459 11.0693C67.4104 11.1963 67.4427 11.3047 67.4669 11.4275C67.5152 11.6714 67.5072 11.9263 67.4588 12.1651C67.3701 12.6478 67.1523 13.0531 66.9346 13.3424C66.7168 13.6359 66.491 13.8293 66.3055 13.9597C66.1119 14.0951 65.9506 14.1766 65.8215 14.2422C65.7489 14.2809 65.6924 14.3036 65.636 14.3381C65.5876 14.3617 65.5392 14.3928 65.4989 14.4197C65.3376 14.5239 65.2731 14.6585 65.2408 14.809Z" fill="#E5E5E5"/>
<path d="M0.5 14.5C4.6691 14.0854 8.83495 13.8662 13.0008 13.7229C15.0837 13.6271 17.1667 13.6072 19.2528 13.556L25.5016 13.5L31.7504 13.5512L36.4386 13.6594L37.9992 13.7191C42.1683 13.8662 46.3341 14.0816 50.5 14.5C46.3341 14.9137 42.1683 15.1337 37.9992 15.2808L36.4386 15.3405L31.7504 15.4477L25.5016 15.5L19.2528 15.4439C17.1667 15.388 15.0837 15.3681 13.0008 15.277C8.83495 15.129 4.6691 14.9137 0.5 14.5Z" fill="#E5E5E5"/>
<path d="M103.047 6.66016C103.047 7.11328 102.906 7.47266 102.625 7.73828C102.352 7.99609 101.988 8.125 101.535 8.125C101.168 8.125 100.801 7.87891 100.434 7.38672L100.773 7.11719C100.898 7.5 101.191 7.69141 101.652 7.69141C102.262 7.69141 102.566 7.33984 102.566 6.63672C102.566 5.98047 102.145 5.65234 101.301 5.65234C100.707 5.65234 100.137 5.82812 99.5898 6.17969C98.9805 6.57031 98.2383 7.26953 97.3633 8.27734C97.0117 8.67578 96.6484 9.14062 96.2734 9.67188C95.5156 10.7266 94.8711 11.8203 94.3398 12.9531C96.3242 13.4609 97.5391 14.9648 97.9844 17.4648C98.125 18.4805 98.2656 19.4922 98.4062 20.5C98.625 21.3906 99.1328 21.8359 99.9297 21.8359C100.422 21.8359 100.82 21.6445 101.125 21.2617L101.395 21.5195C101.223 21.7539 100.949 21.9648 100.574 22.1523C99.8945 22.5742 99.2891 23.3008 98.7578 24.332C98.0391 25.7227 97.4961 26.6484 97.1289 27.1094C96.2383 28.1875 95.207 28.7266 94.0352 28.7266C93.4492 28.7266 92.8555 28.5898 92.2539 28.3164L92.3711 27.9531C92.8008 28.2266 93.3438 28.3633 94 28.3633C94.9766 28.3633 95.6445 28.0469 96.0039 27.4141C96.3008 26.6562 96.5938 25.8984 96.8828 25.1406C97.4062 24.0625 98.2617 23.1641 99.4492 22.4453C99.5273 22.3906 99.5234 22.3477 99.4375 22.3164C97.9531 22.1523 97.0195 20.957 96.6367 18.7305C96.543 18.0508 96.4453 17.3711 96.3438 16.6914C96.2031 15.8867 95.9883 15.2422 95.6992 14.7578C95.3164 14.125 94.7656 13.6602 94.0469 13.3633L91.9141 17.418C91.8281 17.5742 91.4766 18.2812 90.8594 19.5391C90.6172 20.0312 90.3359 20.4844 90.0156 20.8984C89.2656 21.8594 88.3789 22.3398 87.3555 22.3398C86.1992 22.3398 85.6211 21.8125 85.6211 20.7578C85.6211 20.4766 85.6797 20.25 85.7969 20.0781H86.2305C86.1133 20.2656 86.0547 20.4922 86.0547 20.7578C86.0547 21.4766 86.4805 21.8359 87.332 21.8359C88.1055 21.8359 88.6641 21.3945 89.0078 20.5117C89.1562 20.1289 89.5469 18.5352 90.1797 15.7305C90.9688 12.3008 91.4062 10.4336 91.4922 10.1289C92.1094 7.94922 92.8242 6.47266 93.6367 5.69922V5.53516C93.418 5.53516 93.3086 5.53516 93.3086 5.53516C91.7305 5.62109 90.3203 6.15625 89.0781 7.14062C87.5938 8.32812 86.8516 9.81641 86.8516 11.6055C86.8516 12.5898 87.2812 13.5508 88.1406 14.4883L87.8828 14.7578C86.9062 13.8984 86.418 12.8477 86.418 11.6055C86.418 9.65234 87.2656 8.02734 88.9609 6.73047C90.2266 5.76953 91.6914 5.25781 93.3555 5.19531C93.3555 5.19531 93.5781 5.19531 94.0234 5.19531C94.2656 5.19531 94.4648 5.22266 94.6211 5.27734V5.53516L94.5039 5.55859C94.0586 5.58203 93.6523 6.26172 93.2852 7.59766C92.6055 10.0273 91.875 13.332 91.0938 17.5117H91.3867L93.7422 12.9297C94.8203 10.8203 95.9297 9.10938 97.0703 7.79688C98.5703 6.0625 99.9805 5.19531 101.301 5.19531C102.465 5.19531 103.047 5.68359 103.047 6.66016ZM110.207 15.2617L107.172 21.0742C106.977 21.3477 106.738 21.7773 106.457 22.3633L106.398 22.5391H109.328V23.0195H106.223L104.84 26.8281C104.621 27.4219 104.52 27.8281 104.535 28.0469C104.551 28.2578 104.648 28.3555 104.828 28.3398C105.219 28.3164 105.754 27.6367 106.434 26.3008L107.523 24.2031L107.793 24.332L106.797 26.2773C105.992 27.8555 105.305 28.6641 104.734 28.7031C104.438 28.7266 104.195 28.6094 104.008 28.3516C103.852 28.1406 103.762 27.9062 103.738 27.6484C103.715 27.25 103.855 26.6211 104.16 25.7617L105.156 23.0078H102.191V22.5273H105.32C105.398 22.1602 105.43 21.7695 105.414 21.3555C105.383 20.4727 105.367 20.0977 105.367 20.2305C105.367 19.5039 105.258 17.2695 105.039 13.5273C105.039 13.4727 105.02 13.3828 104.98 13.2578C104.949 13.1328 104.82 13.0703 104.594 13.0703C104.414 13.0703 104.176 13.2344 103.879 13.5625C103.59 13.8828 103.25 14.3672 102.859 15.0156L101.641 17.0312L101.348 16.8789L102.508 14.9922C103.359 13.5781 104.094 12.8164 104.711 12.707C104.922 12.668 105.117 12.668 105.297 12.707C105.531 12.793 105.699 12.9961 105.801 13.3164C105.996 15.3789 106.094 16.7812 106.094 17.5234C106.094 19.8125 106.082 21.0938 106.059 21.3672L106.352 21.4844L109.645 15.2617C109.73 15.0273 109.773 14.8281 109.773 14.6641C109.773 14.4375 109.68 14.2695 109.492 14.1602C109.086 13.9336 108.883 13.6523 108.883 13.3164C108.883 13.2148 108.902 13.1055 108.941 12.9883C109.074 12.6289 109.359 12.5273 109.797 12.6836C110.242 12.8477 110.465 13.2773 110.465 13.9727C110.465 14.3555 110.379 14.7852 110.207 15.2617ZM118.469 14.1484C118.469 14.9531 118.215 15.8984 117.707 16.9844C117.238 17.9922 116.668 18.8945 115.996 19.6914C114.613 21.332 113.262 22.1797 111.941 22.2344L110.02 28.7148H108.988L111.027 22.2695C110.684 22.2695 110.289 22.1719 109.844 21.9766L109.926 21.543C110.223 21.6836 110.492 21.7734 110.734 21.8125L110.828 21.8359H111.168L114.988 9.63672H114.906L111.332 15.5898L111.004 15.4492L114.883 8.99219C115.336 8.25 115.715 7.39453 116.02 6.42578L116.664 4.36328H117.145L113.688 16.1875H113.805C114.078 15.7109 114.656 14.8789 115.539 13.6914C116.117 13.0195 116.66 12.6836 117.168 12.6836C118.035 12.6836 118.469 13.1719 118.469 14.1484ZM117.602 13.8672C117.602 13.3203 117.426 13.0469 117.074 13.0469C116.582 13.0469 115.957 13.5977 115.199 14.6992C113.973 16.4883 113.148 18.0898 112.727 19.5039L112.035 21.8594C113.387 21.6484 114.617 20.5742 115.727 18.6367C116.125 17.9492 116.523 17.1172 116.922 16.1406C117.375 15.0469 117.602 14.2891 117.602 13.8672ZM129.988 18.0859L128.863 19.9609C127.949 21.4766 127.211 22.2344 126.648 22.2344C126.047 22.2344 125.746 21.8203 125.746 20.9922C125.746 20.7891 125.871 20.3242 126.121 19.5977L128.242 13.5977H128.043L123.098 19.7969L122.793 19.7148L122.242 13.5977H122.066L120.484 18.8594C120.172 19.8828 119.891 20.6172 119.641 21.0625C119.188 21.8438 118.637 22.2344 117.988 22.2344C117.41 22.2344 117.121 21.9805 117.121 21.4727C117.121 21.0742 117.332 20.875 117.754 20.875C118.152 20.875 118.352 21.0742 118.352 21.4727C118.352 21.5977 118.301 21.7266 118.199 21.8594L118.234 21.8828C118.945 21.6953 119.574 20.6953 120.121 18.8828L121.809 13.3164H120.004V12.9531H122.266C122.984 12.9531 123.383 13.4648 123.461 14.4883L123.754 18.332L128.137 12.9531H129.555L126.918 20.3711C126.66 21.0898 126.531 21.5039 126.531 21.6133C126.531 21.793 126.613 21.8828 126.777 21.8828C126.91 21.8828 127.133 21.7305 127.445 21.4258C127.711 21.168 128.062 20.6797 128.5 19.9609L129.73 17.9453L129.988 18.0859ZM136.398 13.9375C136.398 14.7891 136 15.7148 135.203 16.7148C134.258 17.8945 133.027 18.7539 131.512 19.293C131.363 19.8633 131.289 20.3828 131.289 20.8516C131.289 21.5391 131.547 21.8828 132.062 21.8828C132.625 21.8828 133.242 21.5234 133.914 20.8047C134.586 20.0781 135.098 19.2109 135.449 18.2031L135.801 18.3555C135.363 19.5352 134.777 20.4922 134.043 21.2266C133.355 21.8984 132.703 22.2344 132.086 22.2344C131.656 22.2344 131.289 22.0938 130.984 21.8125C130.617 21.4609 130.434 20.9648 130.434 20.3242C130.434 18.7305 130.961 17.0703 132.016 15.3438C133.094 13.5703 134.172 12.6836 135.25 12.6836C135.617 12.6836 135.906 12.8164 136.117 13.082C136.305 13.3164 136.398 13.6016 136.398 13.9375ZM135.801 13.5977C135.801 13.2305 135.641 13.0469 135.32 13.0469C134.727 13.0469 134.035 13.6875 133.246 14.9688C132.52 16.1562 131.957 17.4609 131.559 18.8828C132.559 18.5156 133.531 17.7109 134.477 16.4688C135.359 15.3047 135.801 14.3477 135.801 13.5977ZM148.234 13.3164H146.863L144.344 20.3711C144.086 21.082 143.957 21.4961 143.957 21.6133C143.957 21.793 144.039 21.8828 144.203 21.8828C144.336 21.8828 144.559 21.7305 144.871 21.4258C145.137 21.168 145.488 20.6797 145.926 19.9609L147.156 17.9453L147.414 18.0859L146.289 19.9609C145.375 21.4766 144.637 22.2344 144.074 22.2344C143.473 22.2344 143.172 21.8203 143.172 20.9922C143.172 20.7969 143.297 20.332 143.547 19.5977L145.762 13.3164H143.453L140.547 22H139.445L142.375 13.3164H140.066L137.137 22H136.059L138.965 13.3164H137.43V12.9531H148.234V13.3164ZM156.766 13.3164H155.406L152.887 20.3711C152.629 21.082 152.5 21.4961 152.5 21.6133C152.5 21.793 152.578 21.8828 152.734 21.8828C152.953 21.8828 153.188 21.7305 153.438 21.4258C153.812 20.957 154.156 20.4688 154.469 19.9609L155.688 17.9453L155.957 18.0859L154.82 19.9609C153.906 21.4766 153.172 22.2344 152.617 22.2344C152.336 22.2344 152.109 22.0977 151.938 21.8242C151.781 21.582 151.703 21.3047 151.703 20.9922C151.703 20.7969 151.832 20.332 152.09 19.5977L154.293 13.3164H151.246L148.316 22H147.238L150.145 13.3164H148.609V12.9531H156.766V13.3164ZM162.367 13.9375C162.367 14.7891 161.969 15.7148 161.172 16.7148C160.227 17.8945 158.996 18.7539 157.48 19.293C157.332 19.8633 157.258 20.3828 157.258 20.8516C157.258 21.5391 157.516 21.8828 158.031 21.8828C158.594 21.8828 159.211 21.5234 159.883 20.8047C160.555 20.0781 161.066 19.2109 161.418 18.2031L161.77 18.3555C161.332 19.5352 160.746 20.4922 160.012 21.2266C159.324 21.8984 158.672 22.2344 158.055 22.2344C157.625 22.2344 157.258 22.0938 156.953 21.8125C156.586 21.4609 156.402 20.9648 156.402 20.3242C156.402 18.7305 156.93 17.0703 157.984 15.3438C159.062 13.5703 160.141 12.6836 161.219 12.6836C161.586 12.6836 161.875 12.8164 162.086 13.082C162.273 13.3164 162.367 13.6016 162.367 13.9375ZM161.77 13.5977C161.77 13.2305 161.609 13.0469 161.289 13.0469C160.695 13.0469 160.004 13.6875 159.215 14.9688C158.488 16.1562 157.926 17.4609 157.527 18.8828C158.527 18.5156 159.5 17.7109 160.445 16.4688C161.328 15.3047 161.77 14.3477 161.77 13.5977ZM171.871 18.0859L170.723 19.9609C170.191 20.8203 169.777 21.4062 169.48 21.7188C169.16 22.0625 168.836 22.2344 168.508 22.2344C168.016 22.2344 167.723 21.9492 167.629 21.3789C167.613 21.3242 167.613 21.1953 167.629 20.9922C167.637 20.7656 167.762 20.3008 168.004 19.5977L168.777 17.418H165.684L164.066 22H162.988L165.602 14.5586C165.719 14.293 165.848 13.9414 165.988 13.5039V13.3398C165.988 13.1445 165.918 13.0469 165.777 13.0469C165.598 13.0469 165.359 13.2109 165.062 13.5391C164.773 13.8672 164.434 14.3516 164.043 14.9922L162.824 17.0078L162.531 16.8672L163.691 14.9688C164.613 13.4453 165.348 12.6836 165.895 12.6836C166.098 12.6836 166.285 12.7773 166.457 12.9648C166.637 13.1445 166.746 13.3477 166.785 13.5742C166.793 13.6211 166.793 13.7422 166.785 13.9375C166.777 14.1406 166.758 14.293 166.727 14.3945C166.617 14.707 166.508 15.0195 166.398 15.332L165.801 17.0547H168.895L170.336 12.9531H171.414L168.801 20.3711C168.543 21.0977 168.414 21.5117 168.414 21.6133C168.414 21.793 168.488 21.8828 168.637 21.8828C168.832 21.8828 169.062 21.7305 169.328 21.4258C169.648 21.0586 169.992 20.5703 170.359 19.9609L171.578 17.9453L171.871 18.0859Z" fill="#11682F"/>
<path d="M191.758 14.8095C191.79 14.9561 191.798 15.1027 191.606 15.2726C191.558 15.3076 191.494 15.35 191.407 15.3842C191.327 15.4158 191.231 15.4583 191.103 15.4733C190.863 15.5158 190.536 15.52 190.128 15.4042C189.729 15.2884 189.266 15.0486 188.803 14.6163C188.579 14.4006 188.355 14.134 188.147 13.8134C187.948 13.4894 187.764 13.1113 187.644 12.6557C187.524 12.2043 187.461 11.6754 187.54 11.0957C187.556 10.9533 187.588 10.8068 187.628 10.656C187.668 10.5094 187.708 10.3587 187.772 10.2237C187.804 10.1546 187.836 10.0846 187.86 10.0155C187.9 9.94223 187.924 9.87227 187.964 9.8073C188.044 9.67155 188.124 9.53245 188.211 9.40169C188.571 8.87698 189.074 8.42474 189.673 8.09659C190.264 7.76927 190.951 7.56022 191.694 7.51024C192.437 7.4636 193.236 7.5719 193.987 7.94669C194.074 7.99666 194.17 8.04245 194.266 8.09325C194.354 8.14322 194.434 8.20154 194.522 8.25901C194.698 8.36729 194.849 8.50221 195.009 8.6338C195.089 8.69544 195.161 8.7729 195.241 8.84536C195.305 8.91865 195.385 8.98856 195.448 9.06935C195.584 9.22427 195.728 9.38258 195.84 9.55248C196.087 9.88813 196.279 10.2587 196.455 10.6327C196.527 10.8259 196.607 11.0191 196.663 11.2157C196.703 11.3165 196.734 11.4123 196.758 11.5131L196.83 11.8137C196.862 11.9144 196.87 12.0186 196.894 12.1193C196.91 12.2234 196.926 12.3234 196.942 12.4275C196.966 12.6366 196.99 12.8406 196.99 13.0496C197.014 13.4661 196.982 13.8833 196.918 14.2956C196.79 15.126 196.519 15.898 196.143 16.5968C195.76 17.2956 195.289 17.9128 194.761 18.4458C193.707 19.5069 192.469 20.2324 191.255 20.6921C190.025 21.1402 188.842 21.3367 187.78 21.4292C186.718 21.5183 185.775 21.5066 184.992 21.4833C184.209 21.4525 183.594 21.4142 183.163 21.3834C182.732 21.3526 182.5 21.3325 182.5 21.3325C182.5 21.3325 182.732 21.3176 183.163 21.2867C183.594 21.2559 184.209 21.2134 184.984 21.1359C185.759 21.0585 186.678 20.9511 187.684 20.7387C188.691 20.5263 189.785 20.1982 190.847 19.6727C191.902 19.1404 192.916 18.3759 193.715 17.4072C194.114 16.925 194.45 16.392 194.698 15.8248C194.761 15.6857 194.817 15.5391 194.865 15.3925C194.921 15.2492 194.961 15.0993 195.001 14.9519C195.041 14.8095 195.065 14.6555 195.097 14.5081C195.129 14.3581 195.137 14.2115 195.153 14.0641C195.241 12.8873 194.889 11.6596 194.234 10.8417C194.162 10.7334 194.067 10.6444 193.987 10.5519C193.947 10.502 193.891 10.4628 193.851 10.4203C193.803 10.382 193.763 10.332 193.707 10.3012C193.611 10.2279 193.523 10.1463 193.42 10.0921C193.364 10.0613 193.316 10.0271 193.268 9.99966L193.116 9.93061C192.725 9.74155 192.261 9.68319 191.83 9.71068C191.391 9.73733 190.983 9.86057 190.648 10.038C190.312 10.2162 190.057 10.4478 189.873 10.691C189.825 10.7526 189.793 10.8184 189.753 10.88C189.721 10.9067 189.713 10.9417 189.697 10.9767C189.681 11.0075 189.673 11.0383 189.657 11.0691C189.585 11.1966 189.561 11.3048 189.529 11.4281C189.481 11.6713 189.489 11.9261 189.537 12.1651C189.625 12.6482 189.841 13.053 190.065 13.3428C190.28 13.636 190.504 13.8293 190.696 13.96C190.887 14.0958 191.047 14.1765 191.183 14.2423C191.247 14.2806 191.303 14.304 191.359 14.339C191.415 14.3614 191.462 14.3922 191.502 14.4197C191.662 14.5238 191.726 14.6587 191.758 14.8095Z" fill="#E5E5E5"/>
<path d="M202.241 14.809C202.209 14.9562 202.192 15.1025 202.386 15.2724C202.442 15.3077 202.507 15.3497 202.588 15.3842C202.668 15.4153 202.773 15.4574 202.894 15.4734C203.136 15.5155 203.459 15.5197 203.87 15.4036C204.273 15.2876 204.733 15.0487 205.193 14.6164C205.419 14.4003 205.644 14.1337 205.846 13.8133C206.048 13.4896 206.233 13.1112 206.354 12.6554C206.475 12.2038 206.532 11.6748 206.459 11.0962C206.443 10.9533 206.411 10.8069 206.37 10.6556C206.33 10.5092 206.282 10.3587 206.225 10.2233C206.193 10.1544 206.169 10.0845 206.128 10.0156C206.104 9.94155 206.072 9.87264 206.032 9.80704C205.951 9.67165 205.878 9.53286 205.782 9.40167C205.419 8.87691 204.919 8.42536 204.322 8.09654C203.733 7.76857 203.047 7.55995 202.305 7.51033C201.563 7.46324 200.765 7.57178 200.015 7.94601C199.918 7.99646 199.829 8.04272 199.732 8.09317C199.644 8.14279 199.563 8.20079 199.474 8.25882C199.305 8.3673 199.144 8.50187 198.99 8.63306C198.902 8.6953 198.837 8.7726 198.765 8.84577C198.692 8.91893 198.611 8.98874 198.547 9.06948C198.41 9.22421 198.273 9.38233 198.16 9.55221C197.91 9.88775 197.716 10.2586 197.547 10.6328C197.474 10.8254 197.385 11.0189 197.329 11.2156C197.297 11.3157 197.264 11.4124 197.24 11.5134L197.168 11.8135C197.143 11.9144 197.127 12.0187 197.103 12.1188C197.087 12.2231 197.071 12.3232 197.055 12.4275C197.039 12.636 197.006 12.8404 197.006 13.0489C196.982 13.466 197.014 13.8832 197.071 14.2961C197.208 15.1261 197.474 15.898 197.861 16.5969C198.232 17.2949 198.708 17.913 199.232 18.4454C200.289 19.5066 201.523 20.2324 202.741 20.6916C203.975 21.1398 205.16 21.3366 206.217 21.4291C207.282 21.5183 208.225 21.5064 209.008 21.4837C209.782 21.4526 210.411 21.4139 210.839 21.3828C211.266 21.3517 211.5 21.3324 211.5 21.3324C211.5 21.3324 211.266 21.3173 210.839 21.2861C210.411 21.2559 209.782 21.213 209.016 21.1356C208.242 21.0591 207.322 20.9505 206.314 20.7386C205.306 20.5258 204.209 20.1979 203.152 19.6731C202.104 19.14 201.079 18.3756 200.281 17.4068C199.886 16.9249 199.547 16.3917 199.305 15.8249C199.232 15.6853 199.184 15.539 199.127 15.3919C199.079 15.2489 199.039 15.0992 198.998 14.952C198.95 14.809 198.934 14.6551 198.902 14.508C198.869 14.3574 198.861 14.2112 198.845 14.064C198.756 12.8866 199.103 11.6597 199.757 10.8414C199.837 10.7329 199.926 10.6446 200.015 10.5513C200.055 10.5016 200.103 10.463 200.152 10.4209C200.2 10.3822 200.241 10.3318 200.289 10.3007C200.386 10.2275 200.482 10.1468 200.579 10.0921C200.636 10.0618 200.684 10.0265 200.733 9.99962L200.886 9.93064C201.273 9.74142 201.733 9.68339 202.168 9.7103C202.604 9.73721 203.015 9.86086 203.346 10.0383C203.685 10.2157 203.943 10.4478 204.128 10.6909C204.168 10.7523 204.201 10.8179 204.249 10.8801C204.273 10.907 204.281 10.9414 204.298 10.9759C204.314 11.007 204.33 11.0382 204.346 11.0693C204.41 11.1963 204.443 11.3047 204.467 11.4275C204.515 11.6714 204.507 11.9263 204.459 12.1651C204.37 12.6478 204.152 13.0531 203.935 13.3424C203.717 13.6359 203.491 13.8293 203.305 13.9597C203.112 14.0951 202.951 14.1766 202.822 14.2422C202.749 14.2809 202.692 14.3036 202.636 14.3381C202.588 14.3617 202.539 14.3928 202.499 14.4197C202.338 14.5239 202.273 14.6585 202.241 14.809Z" fill="#E5E5E5"/>
<path d="M206.5 14.5C210.669 14.0854 214.835 13.8662 219.001 13.7229C221.084 13.6271 223.167 13.6072 225.253 13.556L231.502 13.5L237.75 13.5512L242.439 13.6594L243.999 13.7191C248.168 13.8662 252.334 14.0816 256.5 14.5C252.334 14.9137 248.168 15.1337 243.999 15.2808L242.439 15.3405L237.75 15.4477L231.502 15.5L225.253 15.4439C223.167 15.388 221.084 15.3681 219.001 15.277C214.835 15.129 210.669 14.9137 206.5 14.5Z" fill="#E5E5E5"/>
</svg>
