<svg width="300" height="15" viewBox="0 0 300 15" fill="none" xmlns="http://www.w3.org/2000/svg">
<path d="M187.03 11.2525C187.074 11.3319 187.076 11.4276 186.778 11.6596C186.626 11.7736 186.408 11.9364 186.061 12.1091C185.975 12.1526 185.883 12.1996 185.784 12.2515C185.734 12.2764 185.681 12.3022 185.626 12.3293C185.601 12.3423 185.572 12.3554 185.544 12.3694C185.517 12.3812 185.488 12.3942 185.456 12.406C185.219 12.5037 184.95 12.6169 184.641 12.7335C184.486 12.7855 184.32 12.8396 184.143 12.8974C183.967 12.954 183.782 13.0165 183.582 13.0637C183.383 13.1144 183.17 13.1673 182.95 13.2227C182.725 13.2721 182.49 13.3123 182.242 13.3607C181.25 13.5315 180.049 13.6493 178.622 13.5787C177.91 13.5516 177.143 13.4503 176.324 13.3041C176.12 13.2593 175.914 13.2133 175.702 13.1661C175.597 13.1415 175.492 13.1225 175.385 13.0918C175.28 13.0625 175.172 13.0318 175.065 13.0012C174.958 12.9705 174.849 12.94 174.74 12.9092C174.63 12.8775 174.519 12.8467 174.41 12.8066C174.191 12.7301 173.969 12.6523 173.742 12.5734C173.628 12.5367 173.521 12.4838 173.408 12.439C173.294 12.3918 173.181 12.3436 173.067 12.2963C172.954 12.2469 172.836 12.2021 172.723 12.1479C172.609 12.0948 172.494 12.0419 172.383 11.9873C171.925 11.7655 171.473 11.5253 171.013 11.283C170.553 11.0408 170.086 10.7986 169.603 10.5767C169.361 10.4668 169.116 10.363 168.864 10.2673C168.611 10.1737 168.359 10.0902 168.099 10.021C167.838 9.9559 167.574 9.90095 167.305 9.86634C167.036 9.83378 166.765 9.81546 166.496 9.81953C166.227 9.82767 165.962 9.85617 165.704 9.90705C165.445 9.95998 165.2 10.0455 164.966 10.1533C164.91 10.1818 164.849 10.2063 164.794 10.2388L164.628 10.3365C164.527 10.4017 164.435 10.4729 164.345 10.5543C164.168 10.7192 164.008 10.9167 163.887 11.1365C163.639 11.5741 163.523 12.1019 163.601 12.5662C163.641 12.7973 163.729 13.0081 163.859 13.1885C163.994 13.3666 164.172 13.5115 164.385 13.6139C164.809 13.8215 165.38 13.8427 165.893 13.6835C166.149 13.6046 166.393 13.4832 166.601 13.3265C166.803 13.1757 166.99 12.967 167.137 12.7372C167.437 12.2776 167.595 11.7064 167.618 11.1243C167.628 10.8312 167.609 10.536 167.557 10.2449C167.504 9.9559 167.414 9.66483 167.309 9.38393C167.082 8.82416 166.754 8.30104 166.334 7.84509C165.502 6.92504 164.364 6.26146 163.158 5.85232C161.945 5.44318 160.658 5.27424 159.412 5.3577C159.254 5.36991 159.097 5.38212 158.941 5.39433C158.784 5.41061 158.63 5.433 158.475 5.45132C158.397 5.4615 158.319 5.46964 158.242 5.48185L158.011 5.52256C157.857 5.55106 157.704 5.56938 157.55 5.60398C156.941 5.72408 156.347 5.88284 155.765 6.0579C154.601 6.41615 153.494 6.84564 152.437 7.28938C151.38 7.72905 150.372 8.1728 149.399 8.56972C148.429 8.96665 147.494 9.31065 146.605 9.58137C145.718 9.85617 144.878 10.0577 144.103 10.1859C143.33 10.3182 142.624 10.3834 142.004 10.3854C141.928 10.3854 141.851 10.3874 141.777 10.3874C141.702 10.3915 141.63 10.3854 141.559 10.3834C141.414 10.3772 141.277 10.3711 141.145 10.3671C140.882 10.3488 140.643 10.3182 140.428 10.2999C140.214 10.2653 140.027 10.2327 139.863 10.2063C139.781 10.1941 139.708 10.1757 139.639 10.1594C139.573 10.1452 139.51 10.1289 139.456 10.1167C139.237 10.0638 139.122 10.0373 139.122 10.0373C139.122 10.0373 139.237 10.0597 139.46 10.1025C139.515 10.1126 139.575 10.1249 139.645 10.1371C139.712 10.1513 139.786 10.1676 139.87 10.1737C140.031 10.1941 140.223 10.2165 140.435 10.2429C140.649 10.2531 140.886 10.2734 141.149 10.2816C141.279 10.2795 141.416 10.2795 141.559 10.2795C141.628 10.2775 141.702 10.2816 141.775 10.2755C141.849 10.2714 141.924 10.2673 142 10.2633C142.611 10.2368 143.307 10.1432 144.063 9.9844C144.821 9.82563 145.641 9.59562 146.504 9.29233C147.37 8.99107 148.279 8.61654 149.227 8.18908C150.174 7.75959 151.162 7.28125 152.21 6.79883C153.256 6.31845 154.363 5.84215 155.548 5.43301C156.143 5.23353 156.756 5.04829 157.389 4.90173C157.548 4.86102 157.71 4.83456 157.868 4.79996L158.111 4.74907C158.191 4.73482 158.273 4.72262 158.355 4.71041C158.519 4.68395 158.683 4.65747 158.849 4.63304C159.013 4.61472 159.181 4.59845 159.347 4.5781C160.698 4.44579 162.105 4.58623 163.45 4.99741C164.124 5.20503 164.784 5.48186 165.403 5.84214C165.714 6.0172 166.013 6.22075 166.301 6.44059C166.443 6.54847 166.582 6.66653 166.719 6.78663C166.851 6.91079 166.988 7.03291 167.109 7.16725C167.618 7.69241 168.034 8.3112 168.326 8.98903C168.467 9.32692 168.582 9.67705 168.658 10.0434C168.733 10.4058 168.769 10.7783 168.765 11.1528C168.752 11.8978 168.572 12.6641 168.156 13.3383C167.948 13.6742 167.689 13.983 167.359 14.2445C167.034 14.5014 166.666 14.6923 166.277 14.8197C165.889 14.9457 165.479 15.0094 165.063 14.9989C164.649 14.9893 164.225 14.9034 163.832 14.7231C163.441 14.5427 163.084 14.2657 162.824 13.9251C162.561 13.5822 162.395 13.1816 162.322 12.782C162.248 12.3812 162.258 11.9812 162.33 11.6026C162.406 11.224 162.536 10.8637 162.721 10.5299C162.901 10.1941 163.139 9.88669 163.422 9.62004C163.563 9.48773 163.719 9.3656 163.885 9.25772C163.964 9.20887 164.044 9.16001 164.124 9.11116C164.204 9.06434 164.29 9.02772 164.374 8.98497C164.71 8.82417 165.061 8.7061 165.412 8.63079C165.765 8.55547 166.118 8.51884 166.464 8.50663C166.811 8.49849 167.151 8.52086 167.483 8.56157C167.815 8.60432 168.137 8.67151 168.452 8.75089C168.767 8.83231 169.069 8.93407 169.357 9.03992C169.643 9.14983 169.918 9.26586 170.183 9.38595C170.71 9.63021 171.2 9.88669 171.662 10.133C172.124 10.3793 172.563 10.6154 172.988 10.8251C173.093 10.878 173.198 10.9289 173.303 10.9777C173.408 11.0266 173.513 11.0673 173.616 11.1141C173.721 11.1589 173.824 11.2037 173.925 11.2464C174.03 11.2892 174.126 11.3401 174.231 11.3726C174.439 11.4479 174.641 11.5212 174.841 11.5925C174.939 11.6311 175.04 11.6596 175.141 11.6902C175.24 11.7186 175.338 11.7492 175.437 11.7777C175.536 11.8082 175.633 11.8367 175.729 11.8652C175.826 11.8937 175.925 11.9141 176.019 11.9365C176.212 11.9833 176.404 12.0289 176.588 12.0724C177.341 12.2186 178.044 12.3271 178.704 12.3672C180.019 12.4649 181.137 12.3955 182.067 12.2811C182.301 12.2481 182.523 12.222 182.733 12.189C182.944 12.1489 183.143 12.1113 183.332 12.0759C183.523 12.0454 183.7 11.9996 183.87 11.9588C184.038 11.9202 184.198 11.8835 184.349 11.8469C184.649 11.7634 184.914 11.6902 185.147 11.623C185.179 11.6169 185.206 11.6087 185.236 11.6006C185.263 11.5925 185.29 11.5823 185.318 11.5721C185.372 11.5558 185.425 11.5395 185.475 11.5212C185.576 11.4907 185.67 11.4601 185.761 11.4316C186.118 11.3319 186.36 11.2424 186.54 11.2037C186.902 11.1161 186.986 11.1711 187.03 11.2525Z" fill="#E5E5E5"/>
<path d="M176.961 0.0414791C177.047 0.0770609 177.125 0.118558 177.163 0.223326C177.184 0.276699 177.194 0.343913 177.19 0.434844C177.186 0.525775 177.173 0.642405 177.129 0.780778C177.086 0.921129 177.031 1.09509 176.933 1.29277C176.884 1.39358 176.833 1.50428 176.765 1.61894C176.698 1.73359 176.625 1.85811 176.541 1.99253C176.451 2.12102 176.355 2.26138 176.245 2.40964C176.188 2.48081 176.129 2.55395 176.066 2.63104C176.004 2.70814 175.939 2.7872 175.868 2.86627C175.794 2.94336 175.721 3.02441 175.643 3.10744C175.566 3.18849 175.482 3.2715 175.394 3.3565C175.352 3.39604 175.307 3.43953 175.262 3.48499C175.215 3.52453 175.168 3.56606 175.119 3.60954C175.021 3.69455 174.925 3.78547 174.815 3.86849C173.968 4.56629 172.846 5.18305 171.64 5.57247C170.439 5.96782 169.157 6.1319 168.035 6.09039C167.472 6.07062 166.95 6.00143 166.487 5.91248C166.256 5.86306 166.04 5.81957 165.842 5.76026C165.742 5.73061 165.646 5.70886 165.554 5.67723C165.465 5.64758 165.379 5.61794 165.295 5.59224C165.13 5.54084 164.989 5.47759 164.863 5.42817C164.799 5.40247 164.74 5.38072 164.687 5.357C164.636 5.33327 164.587 5.31153 164.544 5.29177C164.375 5.21072 164.281 5.16723 164.281 5.16723C164.281 5.16723 164.379 5.19095 164.565 5.23839C164.61 5.24827 164.661 5.26212 164.716 5.27595C164.771 5.28782 164.834 5.29967 164.899 5.31153C165.032 5.33525 165.181 5.37281 165.348 5.39257C165.432 5.40443 165.52 5.4163 165.611 5.43014C165.703 5.44398 165.801 5.44793 165.899 5.45979C166.097 5.48351 166.311 5.48944 166.538 5.49933C166.989 5.50921 167.486 5.49141 168.007 5.43211C169.051 5.31153 170.186 5.00119 171.222 4.53862C172.261 4.07606 173.201 3.46919 173.942 2.86034C174.038 2.78918 174.119 2.70812 174.207 2.63498C174.25 2.5994 174.293 2.56184 174.333 2.52626C174.372 2.4887 174.411 2.45312 174.452 2.41754C174.527 2.3444 174.605 2.27523 174.674 2.20604C174.744 2.13685 174.811 2.06964 174.876 2.00441C174.941 1.93917 175.003 1.87393 175.06 1.8087C175.119 1.74544 175.174 1.68417 175.229 1.62486C175.333 1.50626 175.431 1.3916 175.521 1.28881C175.607 1.18207 175.686 1.08125 175.762 0.992296C175.837 0.901365 175.898 0.81438 175.962 0.737286C176.09 0.585075 176.182 0.4566 176.274 0.357762C176.366 0.258923 176.435 0.179837 176.502 0.124488C176.568 0.0691384 176.627 0.0375217 176.68 0.017754C176.786 -0.0178278 176.874 0.00589725 176.961 0.0414791Z" fill="#E5E5E5"/>
<path d="M112.97 11.2507C112.925 11.3315 112.923 11.4274 113.222 11.6586C113.374 11.7733 113.593 11.9349 113.938 12.1079C114.025 12.1511 114.117 12.2 114.217 12.2508C114.268 12.2752 114.318 12.3015 114.373 12.3278C114.4 12.341 114.427 12.3541 114.456 12.3692C114.483 12.3805 114.512 12.3936 114.543 12.4049C114.78 12.5026 115.05 12.6154 115.358 12.7338C115.515 12.7846 115.68 12.8391 115.857 12.8974C116.033 12.9538 116.218 13.0158 116.42 13.0628C116.619 13.1136 116.831 13.1662 117.052 13.2226C117.273 13.2715 117.51 13.311 117.758 13.3598C118.75 13.5309 119.951 13.6493 121.379 13.5779C122.091 13.5516 122.857 13.4501 123.676 13.3034C123.879 13.2583 124.085 13.2132 124.298 13.1662C124.401 13.1399 124.51 13.1211 124.615 13.091C124.721 13.0609 124.828 13.0309 124.935 13.0008C125.042 12.9707 125.152 12.9388 125.261 12.9087C125.371 12.8767 125.482 12.8466 125.589 12.8053C125.808 12.7301 126.031 12.6511 126.258 12.5722C126.372 12.5365 126.479 12.4839 126.594 12.4387C126.706 12.3917 126.819 12.3429 126.933 12.2959C127.048 12.247 127.164 12.2019 127.278 12.1474C127.391 12.0947 127.507 12.0421 127.618 11.9857C128.074 11.7658 128.528 11.5252 128.988 11.2827C129.448 11.0402 129.913 10.7977 130.396 10.5759C130.639 10.4668 130.885 10.3616 131.135 10.2676C131.39 10.1736 131.64 10.089 131.9 10.0213C132.162 9.95553 132.428 9.90102 132.695 9.86531C132.965 9.83335 133.235 9.81455 133.504 9.82019C133.772 9.82582 134.038 9.85403 134.296 9.90667C134.554 9.9593 134.802 10.0439 135.033 10.151C135.091 10.1811 135.152 10.2055 135.206 10.2375L135.373 10.3353C135.472 10.401 135.565 10.4725 135.656 10.5533C135.833 10.7187 135.992 10.9161 136.112 11.136C136.362 11.574 136.477 12.1004 136.399 12.5666C136.358 12.7959 136.273 13.0083 136.141 13.1888C136.005 13.3655 135.829 13.5102 135.615 13.6136C135.192 13.8204 134.62 13.8429 134.108 13.6831C133.85 13.6042 133.607 13.482 133.4 13.326C133.198 13.1756 133.012 12.967 132.862 12.7357C132.563 12.2771 132.404 11.7056 132.381 11.1229C132.371 10.8315 132.391 10.5345 132.443 10.2431C132.496 9.95553 132.585 9.66418 132.691 9.38409C132.918 8.82392 133.246 8.29945 133.665 7.84454C134.498 6.92345 135.637 6.25989 136.843 5.85197C138.054 5.44218 139.342 5.273 140.588 5.35759C140.747 5.36887 140.902 5.38014 141.059 5.3933C141.216 5.41022 141.372 5.43089 141.525 5.44969C141.604 5.46097 141.682 5.46849 141.758 5.48165L141.989 5.52114C142.142 5.54934 142.297 5.57 142.448 5.60384C143.058 5.72414 143.653 5.88394 144.235 6.05688C145.399 6.41403 146.507 6.84638 147.563 7.28813C148.62 7.728 149.629 8.17162 150.601 8.56826C151.573 8.96677 152.506 9.3089 153.395 9.58147C154.281 9.85404 155.121 10.057 155.897 10.1867C156.67 10.3164 157.378 10.3822 157.997 10.3841C158.072 10.386 158.15 10.386 158.224 10.3879C158.297 10.3898 158.371 10.3841 158.443 10.3822C158.586 10.3766 158.724 10.371 158.856 10.3672C159.118 10.3484 159.357 10.3183 159.572 10.2995C159.785 10.2638 159.974 10.2319 160.137 10.2055C160.218 10.1943 160.292 10.1755 160.362 10.1585C160.428 10.1435 160.49 10.1285 160.544 10.1153C160.763 10.0627 160.878 10.0364 160.878 10.0364C160.878 10.0364 160.761 10.0589 160.54 10.1022C160.486 10.1116 160.424 10.1228 160.356 10.136C160.288 10.151 160.214 10.1661 160.131 10.1736C159.968 10.1924 159.78 10.2168 159.566 10.2431C159.351 10.2525 159.112 10.2713 158.852 10.2807C158.72 10.2789 158.585 10.2789 158.443 10.2789C158.371 10.277 158.299 10.2807 158.226 10.2751C158.152 10.2713 158.076 10.2657 158.001 10.2619C157.389 10.2356 156.695 10.1416 155.936 9.98373C155.18 9.82583 154.359 9.5965 153.496 9.29197C152.63 8.98933 151.722 8.61713 150.774 8.18854C149.827 7.75995 148.837 7.28061 147.79 6.79939C146.744 6.31817 145.636 5.84069 144.451 5.43089C143.857 5.23352 143.244 5.04743 142.611 4.90081C142.452 4.86134 142.291 4.83313 142.132 4.7993L141.89 4.74854C141.81 4.7335 141.727 4.72223 141.645 4.70907C141.482 4.68275 141.317 4.65642 141.152 4.63199C140.987 4.61507 140.821 4.59816 140.654 4.57748C139.303 4.4459 137.897 4.585 136.548 4.99667C135.877 5.20345 135.218 5.48166 134.597 5.8407C134.286 6.0174 133.986 6.22041 133.7 6.43847C133.555 6.5475 133.419 6.66592 133.281 6.78623C133.147 6.91029 133.014 7.03248 132.891 7.16595C132.383 7.69041 131.968 8.31072 131.675 8.98745C131.533 9.32769 131.417 9.67546 131.341 10.042C131.267 10.4048 131.231 10.777 131.236 11.1511C131.246 11.8955 131.428 12.6643 131.844 13.3373C132.053 13.6737 132.309 13.982 132.641 14.2433C132.965 14.5009 133.334 14.6926 133.722 14.8185C134.11 14.9445 134.521 15.0084 134.936 14.999C135.351 14.9896 135.774 14.9031 136.168 14.7227C136.558 14.5422 136.915 14.2659 137.177 13.9238C137.439 13.5816 137.606 13.1812 137.68 12.7808C137.753 12.3804 137.742 11.9819 137.67 11.6022C137.596 11.2225 137.464 10.8635 137.28 10.5289C137.099 10.1943 136.863 9.88599 136.579 9.62094C136.436 9.48747 136.281 9.36528 136.116 9.25625C136.036 9.20738 135.957 9.1604 135.875 9.11152C135.796 9.06265 135.71 9.02692 135.627 8.98368C135.291 8.8239 134.94 8.70549 134.587 8.62841C134.234 8.5551 133.883 8.51751 133.535 8.50623C133.188 8.49871 132.849 8.52126 132.517 8.56073C132.185 8.60397 131.863 8.66976 131.547 8.74871C131.234 8.83142 130.93 8.93293 130.645 9.04008C130.357 9.1491 130.082 9.26566 129.818 9.38596C129.29 9.63033 128.801 9.88599 128.338 10.1322C127.876 10.3785 127.438 10.6153 127.013 10.824C126.906 10.8785 126.803 10.9274 126.698 10.9763C126.594 11.027 126.487 11.0684 126.384 11.1135C126.279 11.1586 126.176 11.2037 126.076 11.2469C125.971 11.2902 125.874 11.3391 125.769 11.3729C125.563 11.4481 125.36 11.5195 125.16 11.5928C125.061 11.6304 124.96 11.6586 124.859 11.6887C124.76 11.7188 124.661 11.747 124.562 11.7771C124.463 11.8071 124.366 11.8353 124.271 11.8635C124.174 11.8936 124.075 11.9124 123.98 11.9368C123.786 11.9819 123.596 12.0289 123.41 12.0722C122.661 12.2188 121.957 12.3259 121.297 12.3673C119.98 12.465 118.862 12.3955 117.933 12.2808C117.7 12.247 117.477 12.2207 117.267 12.1887C117.056 12.1492 116.856 12.1098 116.668 12.0759C116.476 12.044 116.299 11.9989 116.13 11.9594C115.962 11.918 115.803 11.8823 115.649 11.8466C115.351 11.7639 115.085 11.6887 114.852 11.6229C114.821 11.6154 114.794 11.6079 114.765 11.5985C114.737 11.591 114.71 11.5815 114.681 11.5721C114.629 11.5552 114.576 11.5383 114.524 11.5214C114.423 11.4894 114.33 11.4594 114.241 11.4312C113.882 11.3315 113.641 11.2413 113.459 11.2018C113.1 11.1154 113.015 11.1718 112.97 11.2507Z" fill="#E5E5E5"/>
<path d="M123.039 0.0409715C122.954 0.0773064 122.875 0.118825 122.836 0.224369C122.814 0.278007 122.805 0.345489 122.809 0.435461C122.813 0.525433 122.825 0.643089 122.87 0.781508C122.913 0.921656 122.968 1.09467 123.066 1.29365C123.114 1.394 123.166 1.50474 123.234 1.62067C123.3 1.73487 123.375 1.85944 123.459 1.99267C123.547 2.12244 123.645 2.26258 123.754 2.40965C123.811 2.48059 123.87 2.555 123.932 2.63286C123.995 2.70899 124.059 2.78858 124.132 2.86644C124.204 2.9443 124.279 3.02562 124.356 3.10867C124.432 3.18999 124.518 3.27131 124.604 3.35609C124.648 3.39762 124.691 3.44088 124.736 3.48413C124.784 3.52566 124.832 3.56718 124.881 3.61044C124.977 3.69349 125.073 3.78691 125.182 3.86823C126.031 4.56725 127.154 5.18321 128.357 5.57251C129.561 5.967 130.842 6.13311 131.965 6.08986C132.527 6.07083 133.051 6.00161 133.511 5.91337C133.743 5.86319 133.96 5.81994 134.158 5.76111C134.258 5.72997 134.354 5.70921 134.443 5.67807C134.535 5.64865 134.62 5.61924 134.702 5.59155C134.868 5.54138 135.011 5.47735 135.136 5.42891C135.199 5.40295 135.26 5.3822 135.311 5.35797C135.363 5.33375 135.411 5.31125 135.454 5.29049C135.626 5.2109 135.719 5.16765 135.719 5.16765C135.719 5.16765 135.618 5.19186 135.435 5.23858C135.388 5.24896 135.338 5.26108 135.283 5.27665C135.227 5.28876 135.165 5.29913 135.099 5.31298C134.967 5.33547 134.82 5.37181 134.651 5.39258C134.567 5.40469 134.479 5.4168 134.386 5.43065C134.295 5.44449 134.199 5.44967 134.099 5.46005C133.901 5.48254 133.686 5.48947 133.461 5.49986C133.011 5.50851 132.513 5.49293 131.992 5.43237C130.947 5.31298 129.815 5.00328 128.777 4.53958C127.738 4.0776 126.799 3.47029 126.057 2.86125C125.961 2.78858 125.879 2.70726 125.791 2.63632C125.748 2.59999 125.706 2.56364 125.665 2.5273C125.625 2.48924 125.588 2.45291 125.548 2.4183C125.472 2.3439 125.395 2.27642 125.323 2.20721C125.256 2.138 125.188 2.0688 125.122 2.00479C125.057 1.93904 124.997 1.87327 124.94 1.80926C124.881 1.74524 124.823 1.68469 124.77 1.62586C124.665 1.50647 124.568 1.39228 124.477 1.28846C124.393 1.18119 124.313 1.08257 124.236 0.992599C124.161 0.902627 124.1 0.814382 124.038 0.738252C123.909 0.585991 123.816 0.456224 123.725 0.357601C123.634 0.258977 123.564 0.18111 123.497 0.125743C123.432 0.0703753 123.373 0.0374975 123.32 0.0184649C123.213 -0.0178699 123.125 0.0046366 123.039 0.0409715Z" fill="#E5E5E5"/>
<path d="M299.997 8.05079C290.977 8.24054 281.959 8.36775 272.938 8.50092L259.408 8.66955L245.881 8.78973L242.498 8.82762L239.115 8.87932L232.349 8.9995C230.097 9.03253 227.84 9.04795 225.586 9.03388C223.331 9.02089 221.077 8.97947 218.825 8.9183C214.313 8.79108 209.807 8.6035 205.298 8.34772C203.046 8.21698 200.792 8.06974 198.538 7.8965C197.412 7.80799 196.286 7.71624 195.16 7.6123C194.034 7.51215 192.906 7.399 191.78 7.27179L191.783 6.94888C192.911 6.83682 194.04 6.74018 195.166 6.65546C196.294 6.56939 197.423 6.49387 198.552 6.42079C200.806 6.2795 203.06 6.16635 205.318 6.06729C209.829 5.87511 214.338 5.75386 218.847 5.69133C221.102 5.66183 223.356 5.6537 225.614 5.67238C227.865 5.69132 230.12 5.7395 232.374 5.80555L239.138 6.02236L242.518 6.12387L245.901 6.20993L259.425 6.52446L272.952 6.8877C281.967 7.15053 290.985 7.40848 300 7.72788L299.997 8.05079Z" fill="#E5E5E5"/>
<path d="M108.218 8.05043C99.198 8.24001 90.1779 8.36849 81.1578 8.50167L67.6293 8.6693L54.1009 8.78995L50.7179 8.82756L47.335 8.87926L40.5691 8.9999C38.3165 9.0328 36.0607 9.04848 33.8065 9.03437C31.5507 9.02027 29.2981 8.97953 27.0439 8.91843C22.5355 8.79152 18.027 8.6035 13.5186 8.34811C11.266 8.21651 9.01183 8.06923 6.75923 7.89689C5.63197 7.80758 4.50566 7.71671 3.37921 7.61331C2.25275 7.51303 1.12646 7.39866 0 7.27175L0.00243194 6.94899C1.13002 6.83775 2.2589 6.7406 3.38649 6.656C4.51408 6.56982 5.64297 6.49462 6.77056 6.42098C9.02638 6.27997 11.2806 6.1656 13.538 6.06689C18.0481 5.87575 22.5581 5.75354 27.0681 5.69087C29.3223 5.66267 31.5766 5.65326 33.8324 5.67206C36.0866 5.69087 38.3408 5.73944 40.595 5.80524L47.3576 6.02303L50.7373 6.12329L54.1203 6.20947L67.6455 6.5244L81.1708 6.88789C90.1876 7.15111 99.2028 7.40805 108.22 7.72768L108.218 8.05043Z" fill="#E5E5E5"/>
</svg>
