<svg width="241" height="30" viewBox="0 0 241 30" fill="none" xmlns="http://www.w3.org/2000/svg">
<path d="M54.758 15.3095C54.79 15.4561 54.798 15.6027 54.6062 15.7726C54.5583 15.8076 54.4944 15.85 54.4065 15.8842C54.3267 15.9158 54.2308 15.9583 54.103 15.9733C53.8634 16.0158 53.5359 16.02 53.1285 15.9042C52.7291 15.7884 52.2658 15.5486 51.8025 15.1163C51.5788 14.9006 51.3552 14.634 51.1475 14.3134C50.9478 13.9894 50.7641 13.6113 50.6443 13.1557C50.5244 12.7043 50.4605 12.1754 50.5404 11.5957C50.5564 11.4533 50.5883 11.3068 50.6283 11.156C50.6682 11.0094 50.7081 10.8587 50.772 10.7237C50.804 10.6546 50.836 10.5846 50.8599 10.5155C50.8999 10.4422 50.9238 10.3723 50.9638 10.3073C51.0437 10.1715 51.1235 10.0324 51.2114 9.90169C51.5708 9.37698 52.0741 8.92474 52.6731 8.59659C53.2643 8.26927 53.9513 8.06022 54.6942 8.01024C55.437 7.9636 56.2358 8.0719 56.9866 8.44669C57.0745 8.49666 57.1703 8.54245 57.2662 8.59325C57.3541 8.64322 57.434 8.70154 57.5218 8.75901C57.6976 8.86729 57.8494 9.00221 58.0091 9.1338C58.089 9.19544 58.1609 9.2729 58.2407 9.34536C58.3046 9.41865 58.3846 9.48856 58.4485 9.56935C58.5843 9.72427 58.728 9.88258 58.8398 10.0525C59.0875 10.3881 59.2792 10.7587 59.4549 11.1327C59.5268 11.3259 59.6067 11.5191 59.6626 11.7157C59.7025 11.8165 59.7345 11.9123 59.7585 12.0131L59.8304 12.3137C59.8623 12.4144 59.8703 12.5186 59.8943 12.6193C59.9102 12.7234 59.9262 12.8234 59.9422 12.9275C59.9661 13.1366 59.9901 13.3406 59.9901 13.5496C60.0141 13.9661 59.9821 14.3833 59.9182 14.7956C59.7904 15.626 59.5188 16.398 59.1434 17.0968C58.7599 17.7956 58.2887 18.4128 57.7615 18.9458C56.7071 20.0069 55.469 20.7324 54.2548 21.1921C53.0247 21.6402 51.8425 21.8367 50.7801 21.9292C49.7177 22.0183 48.7751 22.0066 47.9922 21.9833C47.2094 21.9525 46.5943 21.9142 46.163 21.8834C45.7316 21.8526 45.5 21.8325 45.5 21.8325C45.5 21.8325 45.7316 21.8176 46.163 21.7867C46.5943 21.7559 47.2095 21.7134 47.9843 21.6359C48.7591 21.5585 49.6777 21.4511 50.6842 21.2387C51.6907 21.0263 52.785 20.6982 53.8474 20.1727C54.9018 19.6404 55.9163 18.8759 56.7151 17.9072C57.1145 17.425 57.45 16.892 57.6976 16.3248C57.7615 16.1857 57.8174 16.0391 57.8653 15.8925C57.9212 15.7492 57.9612 15.5993 58.0011 15.4519C58.041 15.3095 58.065 15.1555 58.097 15.0081C58.1289 14.8581 58.1369 14.7115 58.1529 14.5641C58.2408 13.3873 57.8893 12.1596 57.2343 11.3417C57.1624 11.2334 57.0665 11.1444 56.9866 11.0519C56.9467 11.002 56.8908 10.9628 56.8509 10.9203C56.803 10.882 56.763 10.832 56.707 10.8012C56.6112 10.7279 56.5234 10.6463 56.4195 10.5921C56.3636 10.5613 56.3156 10.5271 56.2677 10.4997L56.116 10.4306C55.7246 10.2415 55.2612 10.1832 54.8299 10.2107C54.3906 10.2373 53.9832 10.3606 53.6477 10.538C53.3122 10.7162 53.0566 10.9478 52.8728 11.191C52.8249 11.2526 52.793 11.3184 52.753 11.38C52.7211 11.4067 52.7131 11.4417 52.6972 11.4767C52.6812 11.5075 52.6732 11.5383 52.6572 11.5691C52.5853 11.6966 52.5613 11.8048 52.5294 11.9281C52.4814 12.1713 52.4895 12.4261 52.5374 12.6651C52.6253 13.1482 52.8409 13.553 53.0646 13.8428C53.2803 14.136 53.504 14.3293 53.6957 14.46C53.8874 14.5958 54.0471 14.6765 54.1829 14.7423C54.2468 14.7806 54.3027 14.804 54.3586 14.839C54.4146 14.8614 54.4625 14.8922 54.5024 14.9197C54.6622 15.0238 54.7261 15.1587 54.758 15.3095Z" fill="#E5E5E5"/>
<path d="M65.2408 15.309C65.2085 15.4562 65.1924 15.6025 65.386 15.7724C65.4424 15.8077 65.5069 15.8497 65.5876 15.8842C65.6683 15.9153 65.7731 15.9574 65.8941 15.9734C66.136 16.0155 66.4587 16.0197 66.87 15.9036C67.2733 15.7876 67.733 15.5487 68.1927 15.1164C68.4186 14.9003 68.6445 14.6337 68.8461 14.3133C69.0477 13.9896 69.2332 13.6112 69.3542 13.1554C69.4752 12.7038 69.5316 12.1748 69.459 11.5962C69.4429 11.4533 69.4107 11.3069 69.3704 11.1556C69.33 11.0092 69.2816 10.8587 69.2251 10.7233C69.1929 10.6544 69.1687 10.5845 69.1284 10.5156C69.1042 10.4416 69.0719 10.3726 69.0316 10.307C68.9509 10.1716 68.8783 10.0329 68.7815 9.90167C68.4186 9.37691 67.9185 8.92536 67.3217 8.59654C66.7329 8.26857 66.0473 8.05995 65.3053 8.01033C64.5633 7.96324 63.7648 8.07178 63.0147 8.44601C62.9179 8.49646 62.8292 8.54272 62.7324 8.59317C62.6436 8.64279 62.5631 8.70079 62.4743 8.75882C62.305 8.8673 62.1436 9.00187 61.9904 9.13306C61.9017 9.1953 61.8371 9.2726 61.7645 9.34577C61.6919 9.41893 61.6113 9.48874 61.5468 9.56948C61.4097 9.72421 61.2725 9.88233 61.1596 10.0522C60.9096 10.3877 60.716 10.7586 60.5466 11.1328C60.4741 11.3254 60.3853 11.5189 60.3289 11.7156C60.2966 11.8157 60.2644 11.9124 60.2402 12.0134L60.1675 12.3135C60.1433 12.4144 60.1272 12.5187 60.103 12.6188C60.0869 12.7231 60.0708 12.8232 60.0547 12.9275C60.0385 13.136 60.0062 13.3404 60.0062 13.5489C59.982 13.966 60.0143 14.3832 60.0707 14.7961C60.2079 15.6261 60.4741 16.398 60.8612 17.0969C61.2322 17.7949 61.7081 18.413 62.2324 18.9454C63.289 20.0066 64.523 20.7324 65.7409 21.1916C66.9749 21.6398 68.1605 21.8366 69.2171 21.9291C70.2817 22.0183 71.2254 22.0064 72.0077 21.9837C72.782 21.9526 73.4111 21.9139 73.8386 21.8828C74.2661 21.8517 74.5 21.8324 74.5 21.8324C74.5 21.8324 74.2661 21.8173 73.8386 21.7861C73.4111 21.7559 72.7821 21.713 72.0158 21.6356C71.2415 21.5591 70.3221 21.4505 69.3139 21.2386C68.3057 21.0258 67.2088 20.6979 66.1522 20.1731C65.1037 19.64 64.0794 18.8756 63.2809 17.9068C62.8857 17.4249 62.5469 16.8917 62.3049 16.3249C62.2323 16.1853 62.1839 16.039 62.1275 15.8919C62.0791 15.7489 62.0388 15.5992 61.9984 15.452C61.95 15.309 61.9339 15.1551 61.9016 15.008C61.8694 14.8574 61.8613 14.7112 61.8452 14.564C61.7564 13.3866 62.1033 12.1597 62.7566 11.3414C62.8373 11.2329 62.9259 11.1446 63.0147 11.0513C63.055 11.0016 63.1034 10.963 63.1518 10.9209C63.2002 10.8822 63.2405 10.8318 63.2889 10.8007C63.3857 10.7275 63.4825 10.6468 63.5792 10.5921C63.6357 10.5618 63.6841 10.5265 63.7325 10.4996L63.8858 10.4306C64.2729 10.2414 64.7326 10.1834 65.1682 10.2103C65.6037 10.2372 66.0151 10.3609 66.3458 10.5383C66.6845 10.7157 66.9426 10.9478 67.1281 11.1909C67.1684 11.2523 67.2007 11.3179 67.2491 11.3801C67.2733 11.407 67.2814 11.4414 67.2975 11.4759C67.3136 11.507 67.3297 11.5382 67.3459 11.5693C67.4104 11.6963 67.4427 11.8047 67.4669 11.9275C67.5152 12.1714 67.5072 12.4263 67.4588 12.6651C67.3701 13.1478 67.1523 13.5531 66.9346 13.8424C66.7168 14.1359 66.491 14.3293 66.3055 14.4597C66.1119 14.5951 65.9506 14.6766 65.8215 14.7422C65.7489 14.7809 65.6924 14.8036 65.636 14.8381C65.5876 14.8617 65.5392 14.8928 65.4989 14.9197C65.3376 15.0239 65.2731 15.1585 65.2408 15.309Z" fill="#E5E5E5"/>
<path d="M0.5 15C4.6691 14.5854 8.83495 14.3662 13.0008 14.2229C15.0837 14.1271 17.1667 14.1072 19.2528 14.056L25.5016 14L31.7504 14.0512L36.4386 14.1594L37.9992 14.2191C42.1683 14.3662 46.3341 14.5816 50.5 15C46.3341 15.4137 42.1683 15.6337 37.9992 15.7808L36.4386 15.8405L31.7504 15.9477L25.5016 16L19.2528 15.9439C17.1667 15.888 15.0837 15.8681 13.0008 15.777C8.83495 15.629 4.6691 15.4137 0.5 15Z" fill="#E5E5E5"/>
<path d="M99.3945 5.125C98.6836 7.35938 98.2617 9.29688 98.1289 10.9375H97.6953C97.7188 9.29688 97.4766 8.08984 96.9688 7.31641C96.2812 6.23828 95.3633 5.69922 94.2148 5.69922C92.1289 5.69922 90.457 6.84375 89.1992 9.13281C88.6055 10.2109 88.125 11.4453 87.7578 12.8359C87.3906 14.2188 87.207 15.4883 87.207 16.6445C87.207 18.5664 87.625 19.9648 88.4609 20.8398C89.1016 21.5039 89.9297 21.8359 90.9453 21.8359C92.0859 21.8359 93.2188 21.2539 94.3438 20.0898C95.4375 18.957 96.3398 17.4648 97.0508 15.6133L97.4961 15.7891C96.5742 18.1641 95.4453 19.9141 94.1094 21.0391C93.0859 21.9062 92.0469 22.3398 90.9922 22.3398C89.6641 22.3398 88.5195 21.8633 87.5586 20.9102C86.3633 19.7148 85.7656 17.9648 85.7656 15.6602C85.7656 14.6445 85.9492 13.5625 86.3164 12.4141C86.8867 10.6562 87.8242 9.05859 89.1289 7.62109C90.5898 6.00391 92.2852 5.19531 94.2148 5.19531C95.957 5.19531 97.2617 5.92578 98.1289 7.38672H98.293C98.3789 6.96484 98.6094 6.17969 98.9844 5.03125L99.3945 5.125ZM106.648 12.9531L103.695 21.8359C102.195 26.3438 100.195 28.5977 97.6953 28.5977C96.9453 28.5977 96.3125 28.4062 95.7969 28.0234C95.2031 27.5859 94.9062 26.9688 94.9062 26.1719C94.9062 25.4062 95.1328 24.8203 95.5859 24.4141C95.9688 24.0703 96.4492 23.8984 97.0273 23.8984C98.0898 23.8984 98.7461 24.4258 98.9961 25.4805L98.6328 25.6445C98.3984 24.7227 97.8711 24.2617 97.0508 24.2617C95.8633 24.2617 95.2695 24.8984 95.2695 26.1719C95.2695 26.8359 95.5156 27.3594 96.0078 27.7422C96.4375 28.0703 96.9688 28.2344 97.6016 28.2344C99.3516 28.2344 100.75 26.7578 101.797 23.8047L104.105 17.2773H103.988C102.23 20.582 100.91 22.2344 100.027 22.2344C99.2852 22.2344 98.9141 21.7969 98.9141 20.9219C98.9141 20.5 99.0508 19.9062 99.3242 19.1406L100.953 14.5586C101.211 13.8398 101.34 13.4336 101.34 13.3398C101.34 13.1445 101.262 13.0469 101.105 13.0469C100.754 13.0469 100.184 13.6953 99.3945 14.9922L98.1758 17.0078L97.8828 16.8672L99.043 14.9688C99.9648 13.4453 100.699 12.6836 101.246 12.6836C101.449 12.6836 101.637 12.7773 101.809 12.9648C101.988 13.1445 102.098 13.3477 102.137 13.5742C102.145 13.6289 102.145 13.75 102.137 13.9375C102.137 14.0469 102.008 14.5117 101.75 15.332L100.027 20.125C99.8164 20.7031 99.7109 21.1367 99.7109 21.4258C99.7109 21.7305 99.8477 21.8828 100.121 21.8828C100.535 21.8828 101.238 21.1289 102.23 19.6211C103.371 17.8945 104.281 16.1602 104.961 14.418L105.547 12.9531H106.648ZM113.609 14.1484C113.609 14.9531 113.355 15.8984 112.848 16.9844C112.379 17.9922 111.809 18.8945 111.137 19.6914C109.754 21.332 108.402 22.1797 107.082 22.2344L105.16 28.7148H104.129L106.168 22.2695C105.824 22.2695 105.43 22.1719 104.984 21.9766L105.066 21.543C105.363 21.6836 105.633 21.7734 105.875 21.8125L105.969 21.8359H106.309L110.129 9.63672H110.047L106.473 15.5898L106.145 15.4492L110.023 8.99219C110.477 8.25 110.855 7.39453 111.16 6.42578L111.805 4.36328H112.285L108.828 16.1875H108.945C109.219 15.7109 109.797 14.8789 110.68 13.6914C111.258 13.0195 111.801 12.6836 112.309 12.6836C113.176 12.6836 113.609 13.1719 113.609 14.1484ZM112.742 13.8672C112.742 13.3203 112.566 13.0469 112.215 13.0469C111.723 13.0469 111.098 13.5977 110.34 14.6992C109.113 16.4883 108.289 18.0898 107.867 19.5039L107.176 21.8594C108.527 21.6484 109.758 20.5742 110.867 18.6367C111.266 17.9492 111.664 17.1172 112.062 16.1406C112.516 15.0469 112.742 14.2891 112.742 13.8672ZM119.844 13.9375C119.844 14.7891 119.445 15.7148 118.648 16.7148C117.703 17.8945 116.473 18.7539 114.957 19.293C114.809 19.8633 114.734 20.3828 114.734 20.8516C114.734 21.5391 114.992 21.8828 115.508 21.8828C116.07 21.8828 116.688 21.5234 117.359 20.8047C118.031 20.0781 118.543 19.2109 118.895 18.2031L119.246 18.3555C118.809 19.5352 118.223 20.4922 117.488 21.2266C116.801 21.8984 116.148 22.2344 115.531 22.2344C115.102 22.2344 114.734 22.0938 114.43 21.8125C114.062 21.4609 113.879 20.9648 113.879 20.3242C113.879 18.7305 114.406 17.0703 115.461 15.3438C116.539 13.5703 117.617 12.6836 118.695 12.6836C119.062 12.6836 119.352 12.8164 119.562 13.082C119.75 13.3164 119.844 13.6016 119.844 13.9375ZM119.246 13.5977C119.246 13.2305 119.086 13.0469 118.766 13.0469C118.172 13.0469 117.48 13.6875 116.691 14.9688C115.965 16.1562 115.402 17.4609 115.004 18.8828C116.004 18.5156 116.977 17.7109 117.922 16.4688C118.805 15.3047 119.246 14.3477 119.246 13.5977ZM131.68 13.3164H130.309L127.789 20.3711C127.531 21.082 127.402 21.4961 127.402 21.6133C127.402 21.793 127.484 21.8828 127.648 21.8828C127.781 21.8828 128.004 21.7305 128.316 21.4258C128.582 21.168 128.934 20.6797 129.371 19.9609L130.602 17.9453L130.859 18.0859L129.734 19.9609C128.82 21.4766 128.082 22.2344 127.52 22.2344C126.918 22.2344 126.617 21.8203 126.617 20.9922C126.617 20.7969 126.742 20.332 126.992 19.5977L129.207 13.3164H126.898L123.992 22H122.891L125.82 13.3164H123.512L120.582 22H119.504L122.41 13.3164H120.875V12.9531H131.68V13.3164ZM142.859 13.3164H141.488L138.969 20.3711C138.711 21.082 138.582 21.4961 138.582 21.6133C138.582 21.793 138.664 21.8828 138.828 21.8828C138.961 21.8828 139.184 21.7305 139.496 21.4258C139.762 21.168 140.113 20.6797 140.551 19.9609L141.781 17.9453L142.039 18.0859L140.914 19.9609C140 21.4766 139.262 22.2344 138.699 22.2344C138.098 22.2344 137.797 21.8203 137.797 20.9922C137.797 20.7969 137.922 20.332 138.172 19.5977L140.387 13.3164H138.078L135.172 22H134.07L137 13.3164H134.691L131.762 22H130.684L133.59 13.3164H132.055V12.9531H142.859V13.3164ZM148.438 13.9375C148.438 14.7891 148.039 15.7148 147.242 16.7148C146.297 17.8945 145.066 18.7539 143.551 19.293C143.402 19.8633 143.328 20.3828 143.328 20.8516C143.328 21.5391 143.586 21.8828 144.102 21.8828C144.664 21.8828 145.281 21.5234 145.953 20.8047C146.625 20.0781 147.137 19.2109 147.488 18.2031L147.84 18.3555C147.402 19.5352 146.816 20.4922 146.082 21.2266C145.395 21.8984 144.742 22.2344 144.125 22.2344C143.695 22.2344 143.328 22.0938 143.023 21.8125C142.656 21.4609 142.473 20.9648 142.473 20.3242C142.473 18.7305 143 17.0703 144.055 15.3438C145.133 13.5703 146.211 12.6836 147.289 12.6836C147.656 12.6836 147.945 12.8164 148.156 13.082C148.344 13.3164 148.438 13.6016 148.438 13.9375ZM147.84 13.5977C147.84 13.2305 147.68 13.0469 147.359 13.0469C146.766 13.0469 146.074 13.6875 145.285 14.9688C144.559 16.1562 143.996 17.4609 143.598 18.8828C144.598 18.5156 145.57 17.7109 146.516 16.4688C147.398 15.3047 147.84 14.3477 147.84 13.5977ZM156.242 14.1484C156.242 14.9531 155.988 15.8984 155.48 16.9844C155.012 17.9922 154.441 18.8945 153.77 19.6914C152.387 21.332 151.035 22.1797 149.715 22.2344L147.793 28.7148H146.762L148.801 22.2695C148.457 22.2695 148.062 22.1719 147.617 21.9766L147.699 21.543C147.996 21.6836 148.266 21.7734 148.508 21.8125L148.602 21.8359H148.941L152.762 9.63672H152.68L149.105 15.5898L148.777 15.4492L152.656 8.99219C153.109 8.25 153.488 7.39453 153.793 6.42578L154.438 4.36328H154.918L151.461 16.1875H151.578C151.852 15.7109 152.43 14.8789 153.312 13.6914C153.891 13.0195 154.434 12.6836 154.941 12.6836C155.809 12.6836 156.242 13.1719 156.242 14.1484ZM155.375 13.8672C155.375 13.3203 155.199 13.0469 154.848 13.0469C154.355 13.0469 153.73 13.5977 152.973 14.6992C151.746 16.4883 150.922 18.0898 150.5 19.5039L149.809 21.8594C151.16 21.6484 152.391 20.5742 153.5 18.6367C153.898 17.9492 154.297 17.1172 154.695 16.1406C155.148 15.0469 155.375 14.2891 155.375 13.8672Z" fill="#11682F"/>
<path d="M175.758 15.3095C175.79 15.4561 175.798 15.6027 175.606 15.7726C175.558 15.8076 175.494 15.85 175.407 15.8842C175.327 15.9158 175.231 15.9583 175.103 15.9733C174.863 16.0158 174.536 16.02 174.128 15.9042C173.729 15.7884 173.266 15.5486 172.803 15.1163C172.579 14.9006 172.355 14.634 172.147 14.3134C171.948 13.9894 171.764 13.6113 171.644 13.1557C171.524 12.7043 171.461 12.1754 171.54 11.5957C171.556 11.4533 171.588 11.3068 171.628 11.156C171.668 11.0094 171.708 10.8587 171.772 10.7237C171.804 10.6546 171.836 10.5846 171.86 10.5155C171.9 10.4422 171.924 10.3723 171.964 10.3073C172.044 10.1715 172.124 10.0324 172.211 9.90169C172.571 9.37698 173.074 8.92474 173.673 8.59659C174.264 8.26927 174.951 8.06022 175.694 8.01024C176.437 7.9636 177.236 8.0719 177.987 8.44669C178.074 8.49666 178.17 8.54245 178.266 8.59325C178.354 8.64322 178.434 8.70154 178.522 8.75901C178.698 8.86729 178.849 9.00221 179.009 9.1338C179.089 9.19544 179.161 9.2729 179.241 9.34536C179.305 9.41865 179.385 9.48856 179.448 9.56935C179.584 9.72427 179.728 9.88258 179.84 10.0525C180.087 10.3881 180.279 10.7587 180.455 11.1327C180.527 11.3259 180.607 11.5191 180.663 11.7157C180.703 11.8165 180.734 11.9123 180.758 12.0131L180.83 12.3137C180.862 12.4144 180.87 12.5186 180.894 12.6193C180.91 12.7234 180.926 12.8234 180.942 12.9275C180.966 13.1366 180.99 13.3406 180.99 13.5496C181.014 13.9661 180.982 14.3833 180.918 14.7956C180.79 15.626 180.519 16.398 180.143 17.0968C179.76 17.7956 179.289 18.4128 178.761 18.9458C177.707 20.0069 176.469 20.7324 175.255 21.1921C174.025 21.6402 172.842 21.8367 171.78 21.9292C170.718 22.0183 169.775 22.0066 168.992 21.9833C168.209 21.9525 167.594 21.9142 167.163 21.8834C166.732 21.8526 166.5 21.8325 166.5 21.8325C166.5 21.8325 166.732 21.8176 167.163 21.7867C167.594 21.7559 168.209 21.7134 168.984 21.6359C169.759 21.5585 170.678 21.4511 171.684 21.2387C172.691 21.0263 173.785 20.6982 174.847 20.1727C175.902 19.6404 176.916 18.8759 177.715 17.9072C178.114 17.425 178.45 16.892 178.698 16.3248C178.761 16.1857 178.817 16.0391 178.865 15.8925C178.921 15.7492 178.961 15.5993 179.001 15.4519C179.041 15.3095 179.065 15.1555 179.097 15.0081C179.129 14.8581 179.137 14.7115 179.153 14.5641C179.241 13.3873 178.889 12.1596 178.234 11.3417C178.162 11.2334 178.067 11.1444 177.987 11.0519C177.947 11.002 177.891 10.9628 177.851 10.9203C177.803 10.882 177.763 10.832 177.707 10.8012C177.611 10.7279 177.523 10.6463 177.42 10.5921C177.364 10.5613 177.316 10.5271 177.268 10.4997L177.116 10.4306C176.725 10.2415 176.261 10.1832 175.83 10.2107C175.391 10.2373 174.983 10.3606 174.648 10.538C174.312 10.7162 174.057 10.9478 173.873 11.191C173.825 11.2526 173.793 11.3184 173.753 11.38C173.721 11.4067 173.713 11.4417 173.697 11.4767C173.681 11.5075 173.673 11.5383 173.657 11.5691C173.585 11.6966 173.561 11.8048 173.529 11.9281C173.481 12.1713 173.489 12.4261 173.537 12.6651C173.625 13.1482 173.841 13.553 174.065 13.8428C174.28 14.136 174.504 14.3293 174.696 14.46C174.887 14.5958 175.047 14.6765 175.183 14.7423C175.247 14.7806 175.303 14.804 175.359 14.839C175.415 14.8614 175.462 14.8922 175.502 14.9197C175.662 15.0238 175.726 15.1587 175.758 15.3095Z" fill="#E5E5E5"/>
<path d="M186.241 15.309C186.209 15.4562 186.192 15.6025 186.386 15.7724C186.442 15.8077 186.507 15.8497 186.588 15.8842C186.668 15.9153 186.773 15.9574 186.894 15.9734C187.136 16.0155 187.459 16.0197 187.87 15.9036C188.273 15.7876 188.733 15.5487 189.193 15.1164C189.419 14.9003 189.644 14.6337 189.846 14.3133C190.048 13.9896 190.233 13.6112 190.354 13.1554C190.475 12.7038 190.532 12.1748 190.459 11.5962C190.443 11.4533 190.411 11.3069 190.37 11.1556C190.33 11.0092 190.282 10.8587 190.225 10.7233C190.193 10.6544 190.169 10.5845 190.128 10.5156C190.104 10.4416 190.072 10.3726 190.032 10.307C189.951 10.1716 189.878 10.0329 189.782 9.90167C189.419 9.37691 188.919 8.92536 188.322 8.59654C187.733 8.26857 187.047 8.05995 186.305 8.01033C185.563 7.96324 184.765 8.07178 184.015 8.44601C183.918 8.49646 183.829 8.54272 183.732 8.59317C183.644 8.64279 183.563 8.70079 183.474 8.75882C183.305 8.8673 183.144 9.00187 182.99 9.13306C182.902 9.1953 182.837 9.2726 182.765 9.34577C182.692 9.41893 182.611 9.48874 182.547 9.56948C182.41 9.72421 182.273 9.88233 182.16 10.0522C181.91 10.3877 181.716 10.7586 181.547 11.1328C181.474 11.3254 181.385 11.5189 181.329 11.7156C181.297 11.8157 181.264 11.9124 181.24 12.0134L181.168 12.3135C181.143 12.4144 181.127 12.5187 181.103 12.6188C181.087 12.7231 181.071 12.8232 181.055 12.9275C181.039 13.136 181.006 13.3404 181.006 13.5489C180.982 13.966 181.014 14.3832 181.071 14.7961C181.208 15.6261 181.474 16.398 181.861 17.0969C182.232 17.7949 182.708 18.413 183.232 18.9454C184.289 20.0066 185.523 20.7324 186.741 21.1916C187.975 21.6398 189.16 21.8366 190.217 21.9291C191.282 22.0183 192.225 22.0064 193.008 21.9837C193.782 21.9526 194.411 21.9139 194.839 21.8828C195.266 21.8517 195.5 21.8324 195.5 21.8324C195.5 21.8324 195.266 21.8173 194.839 21.7861C194.411 21.7559 193.782 21.713 193.016 21.6356C192.242 21.5591 191.322 21.4505 190.314 21.2386C189.306 21.0258 188.209 20.6979 187.152 20.1731C186.104 19.64 185.079 18.8756 184.281 17.9068C183.886 17.4249 183.547 16.8917 183.305 16.3249C183.232 16.1853 183.184 16.039 183.127 15.8919C183.079 15.7489 183.039 15.5992 182.998 15.452C182.95 15.309 182.934 15.1551 182.902 15.008C182.869 14.8574 182.861 14.7112 182.845 14.564C182.756 13.3866 183.103 12.1597 183.757 11.3414C183.837 11.2329 183.926 11.1446 184.015 11.0513C184.055 11.0016 184.103 10.963 184.152 10.9209C184.2 10.8822 184.241 10.8318 184.289 10.8007C184.386 10.7275 184.482 10.6468 184.579 10.5921C184.636 10.5618 184.684 10.5265 184.733 10.4996L184.886 10.4306C185.273 10.2414 185.733 10.1834 186.168 10.2103C186.604 10.2372 187.015 10.3609 187.346 10.5383C187.685 10.7157 187.943 10.9478 188.128 11.1909C188.168 11.2523 188.201 11.3179 188.249 11.3801C188.273 11.407 188.281 11.4414 188.298 11.4759C188.314 11.507 188.33 11.5382 188.346 11.5693C188.41 11.6963 188.443 11.8047 188.467 11.9275C188.515 12.1714 188.507 12.4263 188.459 12.6651C188.37 13.1478 188.152 13.5531 187.935 13.8424C187.717 14.1359 187.491 14.3293 187.305 14.4597C187.112 14.5951 186.951 14.6766 186.822 14.7422C186.749 14.7809 186.692 14.8036 186.636 14.8381C186.588 14.8617 186.539 14.8928 186.499 14.9197C186.338 15.0239 186.273 15.1585 186.241 15.309Z" fill="#E5E5E5"/>
<path d="M190.5 15C194.669 14.5854 198.835 14.3662 203.001 14.2229C205.084 14.1271 207.167 14.1072 209.253 14.056L215.502 14L221.75 14.0512L226.439 14.1594L227.999 14.2191C232.168 14.3662 236.334 14.5816 240.5 15C236.334 15.4137 232.168 15.6337 227.999 15.7808L226.439 15.8405L221.75 15.9477L215.502 16L209.253 15.9439C207.167 15.888 205.084 15.8681 203.001 15.777C198.835 15.629 194.669 15.4137 190.5 15Z" fill="#E5E5E5"/>
</svg>
