<svg width="246" height="29" viewBox="0 0 246 29" fill="none" xmlns="http://www.w3.org/2000/svg">
<path d="M54.758 14.8095C54.79 14.9561 54.798 15.1027 54.6062 15.2726C54.5583 15.3076 54.4944 15.35 54.4065 15.3842C54.3267 15.4158 54.2308 15.4583 54.103 15.4733C53.8634 15.5158 53.5359 15.52 53.1285 15.4042C52.7291 15.2884 52.2658 15.0486 51.8025 14.6163C51.5788 14.4006 51.3552 14.134 51.1475 13.8134C50.9478 13.4894 50.7641 13.1113 50.6443 12.6557C50.5244 12.2043 50.4605 11.6754 50.5404 11.0957C50.5564 10.9533 50.5883 10.8068 50.6283 10.656C50.6682 10.5094 50.7081 10.3587 50.772 10.2237C50.804 10.1546 50.836 10.0846 50.8599 10.0155C50.8999 9.94223 50.9238 9.87227 50.9638 9.8073C51.0437 9.67155 51.1235 9.53245 51.2114 9.40169C51.5708 8.87698 52.0741 8.42474 52.6731 8.09659C53.2643 7.76927 53.9513 7.56022 54.6942 7.51024C55.437 7.4636 56.2358 7.5719 56.9866 7.94669C57.0745 7.99666 57.1703 8.04245 57.2662 8.09325C57.3541 8.14322 57.434 8.20154 57.5218 8.25901C57.6976 8.36729 57.8494 8.50221 58.0091 8.6338C58.089 8.69544 58.1609 8.7729 58.2407 8.84536C58.3046 8.91865 58.3846 8.98856 58.4485 9.06935C58.5843 9.22427 58.728 9.38258 58.8398 9.55248C59.0875 9.88813 59.2792 10.2587 59.4549 10.6327C59.5268 10.8259 59.6067 11.0191 59.6626 11.2157C59.7025 11.3165 59.7345 11.4123 59.7585 11.5131L59.8304 11.8137C59.8623 11.9144 59.8703 12.0186 59.8943 12.1193C59.9102 12.2234 59.9262 12.3234 59.9422 12.4275C59.9661 12.6366 59.9901 12.8406 59.9901 13.0496C60.0141 13.4661 59.9821 13.8833 59.9182 14.2956C59.7904 15.126 59.5188 15.898 59.1434 16.5968C58.7599 17.2956 58.2887 17.9128 57.7615 18.4458C56.7071 19.5069 55.469 20.2324 54.2548 20.6921C53.0247 21.1402 51.8425 21.3367 50.7801 21.4292C49.7177 21.5183 48.7751 21.5066 47.9922 21.4833C47.2094 21.4525 46.5943 21.4142 46.163 21.3834C45.7316 21.3526 45.5 21.3325 45.5 21.3325C45.5 21.3325 45.7316 21.3176 46.163 21.2867C46.5943 21.2559 47.2095 21.2134 47.9843 21.1359C48.7591 21.0585 49.6777 20.9511 50.6842 20.7387C51.6907 20.5263 52.785 20.1982 53.8474 19.6727C54.9018 19.1404 55.9163 18.3759 56.7151 17.4072C57.1145 16.925 57.45 16.392 57.6976 15.8248C57.7615 15.6857 57.8174 15.5391 57.8653 15.3925C57.9212 15.2492 57.9612 15.0993 58.0011 14.9519C58.041 14.8095 58.065 14.6555 58.097 14.5081C58.1289 14.3581 58.1369 14.2115 58.1529 14.0641C58.2408 12.8873 57.8893 11.6596 57.2343 10.8417C57.1624 10.7334 57.0665 10.6444 56.9866 10.5519C56.9467 10.502 56.8908 10.4628 56.8509 10.4203C56.803 10.382 56.763 10.332 56.707 10.3012C56.6112 10.2279 56.5234 10.1463 56.4195 10.0921C56.3636 10.0613 56.3156 10.0271 56.2677 9.99966L56.116 9.93061C55.7246 9.74155 55.2612 9.68319 54.8299 9.71068C54.3906 9.73733 53.9832 9.86057 53.6477 10.038C53.3122 10.2162 53.0566 10.4478 52.8728 10.691C52.8249 10.7526 52.793 10.8184 52.753 10.88C52.7211 10.9067 52.7131 10.9417 52.6972 10.9767C52.6812 11.0075 52.6732 11.0383 52.6572 11.0691C52.5853 11.1966 52.5613 11.3048 52.5294 11.4281C52.4814 11.6713 52.4895 11.9261 52.5374 12.1651C52.6253 12.6482 52.8409 13.053 53.0646 13.3428C53.2803 13.636 53.504 13.8293 53.6957 13.96C53.8874 14.0958 54.0471 14.1765 54.1829 14.2423C54.2468 14.2806 54.3027 14.304 54.3586 14.339C54.4146 14.3614 54.4625 14.3922 54.5024 14.4197C54.6622 14.5238 54.7261 14.6587 54.758 14.8095Z" fill="#E5E5E5"/>
<path d="M65.2408 14.809C65.2085 14.9562 65.1924 15.1025 65.386 15.2724C65.4424 15.3077 65.5069 15.3497 65.5876 15.3842C65.6683 15.4153 65.7731 15.4574 65.8941 15.4734C66.136 15.5155 66.4587 15.5197 66.87 15.4036C67.2733 15.2876 67.733 15.0487 68.1927 14.6164C68.4186 14.4003 68.6445 14.1337 68.8461 13.8133C69.0477 13.4896 69.2332 13.1112 69.3542 12.6554C69.4752 12.2038 69.5316 11.6748 69.459 11.0962C69.4429 10.9533 69.4107 10.8069 69.3704 10.6556C69.33 10.5092 69.2816 10.3587 69.2251 10.2233C69.1929 10.1544 69.1687 10.0845 69.1284 10.0156C69.1042 9.94155 69.0719 9.87264 69.0316 9.80704C68.9509 9.67165 68.8783 9.53286 68.7815 9.40167C68.4186 8.87691 67.9185 8.42536 67.3217 8.09654C66.7329 7.76857 66.0473 7.55995 65.3053 7.51033C64.5633 7.46324 63.7648 7.57178 63.0147 7.94601C62.9179 7.99646 62.8292 8.04272 62.7324 8.09317C62.6436 8.14279 62.5631 8.20079 62.4743 8.25882C62.305 8.3673 62.1436 8.50187 61.9904 8.63306C61.9017 8.6953 61.8371 8.7726 61.7645 8.84577C61.6919 8.91893 61.6113 8.98874 61.5468 9.06948C61.4097 9.22421 61.2725 9.38233 61.1596 9.55221C60.9096 9.88775 60.716 10.2586 60.5466 10.6328C60.4741 10.8254 60.3853 11.0189 60.3289 11.2156C60.2966 11.3157 60.2644 11.4124 60.2402 11.5134L60.1675 11.8135C60.1433 11.9144 60.1272 12.0187 60.103 12.1188C60.0869 12.2231 60.0708 12.3232 60.0547 12.4275C60.0385 12.636 60.0062 12.8404 60.0062 13.0489C59.982 13.466 60.0143 13.8832 60.0707 14.2961C60.2079 15.1261 60.4741 15.898 60.8612 16.5969C61.2322 17.2949 61.7081 17.913 62.2324 18.4454C63.289 19.5066 64.523 20.2324 65.7409 20.6916C66.9749 21.1398 68.1605 21.3366 69.2171 21.4291C70.2817 21.5183 71.2254 21.5064 72.0077 21.4837C72.782 21.4526 73.4111 21.4139 73.8386 21.3828C74.2661 21.3517 74.5 21.3324 74.5 21.3324C74.5 21.3324 74.2661 21.3173 73.8386 21.2861C73.4111 21.2559 72.7821 21.213 72.0158 21.1356C71.2415 21.0591 70.3221 20.9505 69.3139 20.7386C68.3057 20.5258 67.2088 20.1979 66.1522 19.6731C65.1037 19.14 64.0794 18.3756 63.2809 17.4068C62.8857 16.9249 62.5469 16.3917 62.3049 15.8249C62.2323 15.6853 62.1839 15.539 62.1275 15.3919C62.0791 15.2489 62.0388 15.0992 61.9984 14.952C61.95 14.809 61.9339 14.6551 61.9016 14.508C61.8694 14.3574 61.8613 14.2112 61.8452 14.064C61.7564 12.8866 62.1033 11.6597 62.7566 10.8414C62.8373 10.7329 62.9259 10.6446 63.0147 10.5513C63.055 10.5016 63.1034 10.463 63.1518 10.4209C63.2002 10.3822 63.2405 10.3318 63.2889 10.3007C63.3857 10.2275 63.4825 10.1468 63.5792 10.0921C63.6357 10.0618 63.6841 10.0265 63.7325 9.99962L63.8858 9.93064C64.2729 9.74142 64.7326 9.68339 65.1682 9.7103C65.6037 9.73721 66.0151 9.86086 66.3458 10.0383C66.6845 10.2157 66.9426 10.4478 67.1281 10.6909C67.1684 10.7523 67.2007 10.8179 67.2491 10.8801C67.2733 10.907 67.2814 10.9414 67.2975 10.9759C67.3136 11.007 67.3297 11.0382 67.3459 11.0693C67.4104 11.1963 67.4427 11.3047 67.4669 11.4275C67.5152 11.6714 67.5072 11.9263 67.4588 12.1651C67.3701 12.6478 67.1523 13.0531 66.9346 13.3424C66.7168 13.6359 66.491 13.8293 66.3055 13.9597C66.1119 14.0951 65.9506 14.1766 65.8215 14.2422C65.7489 14.2809 65.6924 14.3036 65.636 14.3381C65.5876 14.3617 65.5392 14.3928 65.4989 14.4197C65.3376 14.5239 65.2731 14.6585 65.2408 14.809Z" fill="#E5E5E5"/>
<path d="M0.5 14.5C4.6691 14.0854 8.83495 13.8662 13.0008 13.7229C15.0837 13.6271 17.1667 13.6072 19.2528 13.556L25.5016 13.5L31.7504 13.5512L36.4386 13.6594L37.9992 13.7191C42.1683 13.8662 46.3341 14.0816 50.5 14.5C46.3341 14.9137 42.1683 15.1337 37.9992 15.2808L36.4386 15.3405L31.7504 15.4477L25.5016 15.5L19.2528 15.4439C17.1667 15.388 15.0837 15.3681 13.0008 15.277C8.83495 15.129 4.6691 14.9137 0.5 14.5Z" fill="#E5E5E5"/>
<path d="M110.379 5.125C110.379 5.35156 110.125 5.58594 109.617 5.82812C108.93 6.14844 108.016 6.30859 106.875 6.30859C106.875 6.31641 106.812 6.5 106.688 6.85938C106.602 7.09375 106.488 7.49219 106.348 8.05469C106.223 8.55469 105.969 9.66797 105.586 11.3945C105.328 12.7383 104.941 14.5391 104.426 16.7969C104.09 18.0156 103.73 18.9375 103.348 19.5625C103.223 19.7812 102.969 20.0898 102.586 20.4883C102.391 20.6992 102.293 20.9805 102.293 21.332C102.293 21.4883 102.375 21.5664 102.539 21.5664C102.539 21.5664 102.691 21.5664 102.996 21.5664H105.703V22H99.8672V21.5664H100.758C100.812 21.5664 100.883 21.5703 100.969 21.5781C101.055 21.5781 101.113 21.5781 101.145 21.5781C101.395 21.5781 101.598 21.4453 101.754 21.1797C101.949 20.8359 102.195 20.1172 102.492 19.0234C102.969 17.2266 103.465 15.1758 103.98 12.8711C104.395 10.9805 104.703 9.71484 104.906 9.07422C105.234 8.05078 105.676 7.14453 106.23 6.35547C105.988 6.37109 105.621 6.37891 105.129 6.37891C104.262 6.37891 102.766 6.32031 100.641 6.20312C100.234 7.08594 99.8086 8.67188 99.3633 10.9609C98.8398 13.7031 98.1992 16.1914 97.4414 18.4258C97.1445 19.3242 96.7734 20.1328 96.3281 20.8516C95.7266 21.8438 95.1562 22.3398 94.6172 22.3398C94.375 22.3398 94.2539 22.2578 94.2539 22.0938C94.2539 21.9375 94.3281 21.8594 94.4766 21.8594C94.5234 21.8594 94.5625 21.8672 94.5938 21.8828C94.7344 21.9297 94.8125 21.9531 94.8281 21.9531C95.1328 21.9531 95.5 21.1289 95.9297 19.4805C96.4219 17.6289 96.9492 15.3828 97.5117 12.7422C97.9492 10.6797 98.2891 9.30078 98.5312 8.60547C98.8906 7.55859 99.3867 6.75 100.02 6.17969C98.418 6.04688 96.5508 5.95313 94.418 5.89844C94.043 6.71094 93.6055 8.35156 93.1055 10.8203C92.7227 12.4453 92.25 14.5977 91.6875 17.2773C92.6328 17.6758 93.7617 17.9844 95.0742 18.2031L94.9805 18.707C93.8477 18.5039 92.6953 18.1875 91.5234 17.7578C91.2734 18.6953 90.8945 19.6133 90.3867 20.5117C89.707 21.7305 88.8359 22.3398 87.7734 22.3398C86.625 22.3398 86.0508 21.8125 86.0508 20.7578C86.0508 20.4766 86.1055 20.25 86.2148 20.0781H86.6484C86.5391 20.375 86.4844 20.5898 86.4844 20.7227C86.4844 21.5117 86.9141 21.9062 87.7734 21.9062C88.4844 21.9062 89.0195 21.4883 89.3789 20.6523C89.7227 19.8633 90.0117 18.7617 90.2461 17.3477C87.6836 16.1211 86.4023 14.1992 86.4023 11.582C86.4023 7.45703 89.4102 5.39453 95.4258 5.39453C96.0352 5.39453 97.0859 5.44141 98.5781 5.53516C102.805 5.80859 105.562 5.94531 106.852 5.94531C107.961 5.94531 108.777 5.80859 109.301 5.53516C109.512 5.42578 109.715 5.28125 109.91 5.10156C110.059 4.97656 110.16 4.91406 110.215 4.91406C110.324 4.91406 110.379 4.98438 110.379 5.125ZM93.8906 5.94531C92.0625 5.92969 90.5547 6.26953 89.3672 6.96484C87.7812 7.89453 86.9883 9.37891 86.9883 11.418C86.9883 12.7383 87.3203 13.8828 87.9844 14.8516C88.5781 15.7188 89.3789 16.375 90.3867 16.8203C90.9336 14.5469 91.2969 12.8828 91.4766 11.8281C91.5547 11.3984 91.7617 10.6523 92.0977 9.58984C92.6445 7.85547 93.2422 6.64062 93.8906 5.94531ZM111.902 9.56641C111.902 9.93359 111.82 10.2734 111.656 10.5859C111.5 10.8984 111.309 11.0547 111.082 11.0547C110.832 11.0547 110.707 10.8945 110.707 10.5742C110.707 10.3164 110.715 10.1484 110.73 10.0703C110.863 9.41406 111.125 9.08594 111.516 9.08594C111.773 9.08594 111.902 9.24609 111.902 9.56641ZM111.234 18.0859L110.098 19.9609C109.184 21.4766 108.441 22.2344 107.871 22.2344C107.574 22.2344 107.34 22.1016 107.168 21.8359C107.027 21.6172 106.957 21.375 106.957 21.1094C106.957 20.7109 107.141 20.0977 107.508 19.2695L109.594 14.5586C109.852 13.9805 109.98 13.582 109.98 13.3633C109.98 13.1523 109.902 13.0469 109.746 13.0469C109.41 13.0469 108.84 13.6953 108.035 14.9922L106.793 17.0078L106.523 16.8672L107.684 14.9688C108.605 13.4453 109.332 12.6836 109.863 12.6836C110.113 12.6836 110.32 12.8047 110.484 13.0469C110.648 13.2812 110.73 13.5469 110.73 13.8438C110.73 14.25 110.562 14.832 110.227 15.5898L108.117 20.3711C107.859 20.9492 107.73 21.3477 107.73 21.5664C107.73 21.7773 107.816 21.8828 107.988 21.8828C108.379 21.8828 108.965 21.2422 109.746 19.9609L110.965 17.9453L111.234 18.0859ZM120.281 13.3164H119.004L116.508 20.3711C116.398 20.6602 116.27 21.0117 116.121 21.4258V21.6133C116.145 21.793 116.219 21.8828 116.344 21.8828C116.555 21.8828 116.785 21.7305 117.035 21.4258C117.387 21.0039 117.73 20.5156 118.066 19.9609L119.297 17.9453L119.555 18.0859L118.43 19.9609C117.516 21.4766 116.781 22.2344 116.227 22.2344C115.945 22.2344 115.719 22.0977 115.547 21.8242C115.391 21.582 115.312 21.3047 115.312 20.9922C115.312 20.7891 115.441 20.3242 115.699 19.5977L117.926 13.3164H116.027L115.547 14.7227C114.781 16.9883 113.926 18.8633 112.98 20.3477C112.176 21.6055 111.434 22.2344 110.754 22.2344C110.176 22.2344 109.887 21.9805 109.887 21.4727C109.887 21.0742 110.094 20.875 110.508 20.875C110.891 20.875 111.082 21.0664 111.082 21.4492C111.082 21.5977 111.043 21.7266 110.965 21.8359L110.988 21.8594C111.512 21.6797 112.082 21.0781 112.699 20.0547C113.488 18.7266 114.312 16.8945 115.172 14.5586L115.617 13.3164H113.32V12.9531H120.281V13.3164ZM126 13.9375C126 14.7891 125.602 15.7148 124.805 16.7148C123.859 17.8945 122.629 18.7539 121.113 19.293C120.965 19.8633 120.891 20.3828 120.891 20.8516C120.891 21.5391 121.148 21.8828 121.664 21.8828C122.227 21.8828 122.844 21.5234 123.516 20.8047C124.188 20.0781 124.699 19.2109 125.051 18.2031L125.402 18.3555C124.965 19.5352 124.379 20.4922 123.645 21.2266C122.957 21.8984 122.305 22.2344 121.688 22.2344C121.258 22.2344 120.891 22.0938 120.586 21.8125C120.219 21.4609 120.035 20.9648 120.035 20.3242C120.035 18.7305 120.562 17.0703 121.617 15.3438C122.695 13.5703 123.773 12.6836 124.852 12.6836C125.219 12.6836 125.508 12.8164 125.719 13.082C125.906 13.3164 126 13.6016 126 13.9375ZM125.402 13.5977C125.402 13.2305 125.242 13.0469 124.922 13.0469C124.328 13.0469 123.637 13.6875 122.848 14.9688C122.121 16.1562 121.559 17.4609 121.16 18.8828C122.16 18.5156 123.133 17.7109 124.078 16.4688C124.961 15.3047 125.402 14.3477 125.402 13.5977ZM135.938 13.4102C135.938 13.8086 135.762 14.0078 135.41 14.0078C135.059 14.0078 134.883 13.8398 134.883 13.5039C134.883 13.2539 134.988 13.1172 135.199 13.0938V13.0703C135.168 13.0547 135.121 13.0469 135.059 13.0469C134.605 13.0469 133.934 13.5039 133.043 14.418C132.605 14.8633 131.918 15.6875 130.98 16.8906C131.809 17.4141 132.277 18.207 132.387 19.2695C132.512 20.418 132.625 21.1172 132.727 21.3672C132.875 21.7109 133.18 21.8828 133.641 21.8828C134.266 21.8828 134.578 21.5625 134.578 20.9219C134.578 20.4922 134.379 20.2773 133.98 20.2773H133.805V20.0078C133.852 19.9922 133.926 19.9844 134.027 19.9844C134.613 19.9844 134.906 20.2891 134.906 20.8984C134.906 21.2891 134.785 21.6094 134.543 21.8594C134.309 22.1094 133.992 22.2344 133.594 22.2344C132.422 22.2344 131.727 21.4023 131.508 19.7383C131.43 19.0898 131.352 18.4414 131.273 17.793C131.211 17.457 131.055 17.2344 130.805 17.125C130.094 18.0859 129.43 19.1914 128.812 20.4414L128.051 22H127.113L129.328 14.6055C129.492 14.0977 129.594 13.7305 129.633 13.5039V13.3281C129.633 13.1406 129.562 13.0469 129.422 13.0469C129.242 13.0469 129.004 13.2109 128.707 13.5391C128.418 13.8594 128.078 14.3438 127.688 14.9922L126.469 17.0078L126.176 16.8555L127.336 14.9688C128.258 13.4453 128.992 12.6836 129.539 12.6836C129.742 12.6836 129.93 12.7734 130.102 12.9531C130.281 13.1328 130.391 13.3398 130.43 13.5742C130.438 13.6211 130.438 13.7383 130.43 13.9258C130.422 14.1133 130.312 14.5859 130.102 15.3438L128.789 19.5508H128.93C129.789 17.8945 130.887 16.3125 132.223 14.8047C133.473 13.3906 134.441 12.6836 135.129 12.6836C135.668 12.6836 135.938 12.9258 135.938 13.4102ZM147.914 13.3164H146.543L144.023 20.3711C143.766 21.082 143.637 21.4961 143.637 21.6133C143.637 21.793 143.719 21.8828 143.883 21.8828C144.016 21.8828 144.238 21.7305 144.551 21.4258C144.816 21.168 145.168 20.6797 145.605 19.9609L146.836 17.9453L147.094 18.0859L145.969 19.9609C145.055 21.4766 144.316 22.2344 143.754 22.2344C143.152 22.2344 142.852 21.8203 142.852 20.9922C142.852 20.7969 142.977 20.332 143.227 19.5977L145.441 13.3164H143.133L140.227 22H139.125L142.055 13.3164H139.746L136.816 22H135.738L138.645 13.3164H137.109V12.9531H147.914V13.3164ZM153.492 13.9375C153.492 14.7891 153.094 15.7148 152.297 16.7148C151.352 17.8945 150.121 18.7539 148.605 19.293C148.457 19.8633 148.383 20.3828 148.383 20.8516C148.383 21.5391 148.641 21.8828 149.156 21.8828C149.719 21.8828 150.336 21.5234 151.008 20.8047C151.68 20.0781 152.191 19.2109 152.543 18.2031L152.895 18.3555C152.457 19.5352 151.871 20.4922 151.137 21.2266C150.449 21.8984 149.797 22.2344 149.18 22.2344C148.75 22.2344 148.383 22.0938 148.078 21.8125C147.711 21.4609 147.527 20.9648 147.527 20.3242C147.527 18.7305 148.055 17.0703 149.109 15.3438C150.188 13.5703 151.266 12.6836 152.344 12.6836C152.711 12.6836 153 12.8164 153.211 13.082C153.398 13.3164 153.492 13.6016 153.492 13.9375ZM152.895 13.5977C152.895 13.2305 152.734 13.0469 152.414 13.0469C151.82 13.0469 151.129 13.6875 150.34 14.9688C149.613 16.1562 149.051 17.4609 148.652 18.8828C149.652 18.5156 150.625 17.7109 151.57 16.4688C152.453 15.3047 152.895 14.3477 152.895 13.5977ZM161.297 14.1484C161.297 14.9531 161.043 15.8984 160.535 16.9844C160.066 17.9922 159.496 18.8945 158.824 19.6914C157.441 21.332 156.09 22.1797 154.77 22.2344L152.848 28.7148H151.816L153.855 22.2695C153.512 22.2695 153.117 22.1719 152.672 21.9766L152.754 21.543C153.051 21.6836 153.32 21.7734 153.562 21.8125L153.656 21.8359H153.996L157.816 9.63672H157.734L154.16 15.5898L153.832 15.4492L157.711 8.99219C158.164 8.25 158.543 7.39453 158.848 6.42578L159.492 4.36328H159.973L156.516 16.1875H156.633C156.906 15.7109 157.484 14.8789 158.367 13.6914C158.945 13.0195 159.488 12.6836 159.996 12.6836C160.863 12.6836 161.297 13.1719 161.297 14.1484ZM160.43 13.8672C160.43 13.3203 160.254 13.0469 159.902 13.0469C159.41 13.0469 158.785 13.5977 158.027 14.6992C156.801 16.4883 155.977 18.0898 155.555 19.5039L154.863 21.8594C156.215 21.6484 157.445 20.5742 158.555 18.6367C158.953 17.9492 159.352 17.1172 159.75 16.1406C160.203 15.0469 160.43 14.2891 160.43 13.8672Z" fill="#11682F"/>
<path d="M180.758 14.8095C180.79 14.9561 180.798 15.1027 180.606 15.2726C180.558 15.3076 180.494 15.35 180.407 15.3842C180.327 15.4158 180.231 15.4583 180.103 15.4733C179.863 15.5158 179.536 15.52 179.128 15.4042C178.729 15.2884 178.266 15.0486 177.803 14.6163C177.579 14.4006 177.355 14.134 177.147 13.8134C176.948 13.4894 176.764 13.1113 176.644 12.6557C176.524 12.2043 176.461 11.6754 176.54 11.0957C176.556 10.9533 176.588 10.8068 176.628 10.656C176.668 10.5094 176.708 10.3587 176.772 10.2237C176.804 10.1546 176.836 10.0846 176.86 10.0155C176.9 9.94223 176.924 9.87227 176.964 9.8073C177.044 9.67155 177.124 9.53245 177.211 9.40169C177.571 8.87698 178.074 8.42474 178.673 8.09659C179.264 7.76927 179.951 7.56022 180.694 7.51024C181.437 7.4636 182.236 7.5719 182.987 7.94669C183.074 7.99666 183.17 8.04245 183.266 8.09325C183.354 8.14322 183.434 8.20154 183.522 8.25901C183.698 8.36729 183.849 8.50221 184.009 8.6338C184.089 8.69544 184.161 8.7729 184.241 8.84536C184.305 8.91865 184.385 8.98856 184.448 9.06935C184.584 9.22427 184.728 9.38258 184.84 9.55248C185.087 9.88813 185.279 10.2587 185.455 10.6327C185.527 10.8259 185.607 11.0191 185.663 11.2157C185.703 11.3165 185.734 11.4123 185.758 11.5131L185.83 11.8137C185.862 11.9144 185.87 12.0186 185.894 12.1193C185.91 12.2234 185.926 12.3234 185.942 12.4275C185.966 12.6366 185.99 12.8406 185.99 13.0496C186.014 13.4661 185.982 13.8833 185.918 14.2956C185.79 15.126 185.519 15.898 185.143 16.5968C184.76 17.2956 184.289 17.9128 183.761 18.4458C182.707 19.5069 181.469 20.2324 180.255 20.6921C179.025 21.1402 177.842 21.3367 176.78 21.4292C175.718 21.5183 174.775 21.5066 173.992 21.4833C173.209 21.4525 172.594 21.4142 172.163 21.3834C171.732 21.3526 171.5 21.3325 171.5 21.3325C171.5 21.3325 171.732 21.3176 172.163 21.2867C172.594 21.2559 173.209 21.2134 173.984 21.1359C174.759 21.0585 175.678 20.9511 176.684 20.7387C177.691 20.5263 178.785 20.1982 179.847 19.6727C180.902 19.1404 181.916 18.3759 182.715 17.4072C183.114 16.925 183.45 16.392 183.698 15.8248C183.761 15.6857 183.817 15.5391 183.865 15.3925C183.921 15.2492 183.961 15.0993 184.001 14.9519C184.041 14.8095 184.065 14.6555 184.097 14.5081C184.129 14.3581 184.137 14.2115 184.153 14.0641C184.241 12.8873 183.889 11.6596 183.234 10.8417C183.162 10.7334 183.067 10.6444 182.987 10.5519C182.947 10.502 182.891 10.4628 182.851 10.4203C182.803 10.382 182.763 10.332 182.707 10.3012C182.611 10.2279 182.523 10.1463 182.42 10.0921C182.364 10.0613 182.316 10.0271 182.268 9.99966L182.116 9.93061C181.725 9.74155 181.261 9.68319 180.83 9.71068C180.391 9.73733 179.983 9.86057 179.648 10.038C179.312 10.2162 179.057 10.4478 178.873 10.691C178.825 10.7526 178.793 10.8184 178.753 10.88C178.721 10.9067 178.713 10.9417 178.697 10.9767C178.681 11.0075 178.673 11.0383 178.657 11.0691C178.585 11.1966 178.561 11.3048 178.529 11.4281C178.481 11.6713 178.489 11.9261 178.537 12.1651C178.625 12.6482 178.841 13.053 179.065 13.3428C179.28 13.636 179.504 13.8293 179.696 13.96C179.887 14.0958 180.047 14.1765 180.183 14.2423C180.247 14.2806 180.303 14.304 180.359 14.339C180.415 14.3614 180.462 14.3922 180.502 14.4197C180.662 14.5238 180.726 14.6587 180.758 14.8095Z" fill="#E5E5E5"/>
<path d="M191.241 14.809C191.209 14.9562 191.192 15.1025 191.386 15.2724C191.442 15.3077 191.507 15.3497 191.588 15.3842C191.668 15.4153 191.773 15.4574 191.894 15.4734C192.136 15.5155 192.459 15.5197 192.87 15.4036C193.273 15.2876 193.733 15.0487 194.193 14.6164C194.419 14.4003 194.644 14.1337 194.846 13.8133C195.048 13.4896 195.233 13.1112 195.354 12.6554C195.475 12.2038 195.532 11.6748 195.459 11.0962C195.443 10.9533 195.411 10.8069 195.37 10.6556C195.33 10.5092 195.282 10.3587 195.225 10.2233C195.193 10.1544 195.169 10.0845 195.128 10.0156C195.104 9.94155 195.072 9.87264 195.032 9.80704C194.951 9.67165 194.878 9.53286 194.782 9.40167C194.419 8.87691 193.919 8.42536 193.322 8.09654C192.733 7.76857 192.047 7.55995 191.305 7.51033C190.563 7.46324 189.765 7.57178 189.015 7.94601C188.918 7.99646 188.829 8.04272 188.732 8.09317C188.644 8.14279 188.563 8.20079 188.474 8.25882C188.305 8.3673 188.144 8.50187 187.99 8.63306C187.902 8.6953 187.837 8.7726 187.765 8.84577C187.692 8.91893 187.611 8.98874 187.547 9.06948C187.41 9.22421 187.273 9.38233 187.16 9.55221C186.91 9.88775 186.716 10.2586 186.547 10.6328C186.474 10.8254 186.385 11.0189 186.329 11.2156C186.297 11.3157 186.264 11.4124 186.24 11.5134L186.168 11.8135C186.143 11.9144 186.127 12.0187 186.103 12.1188C186.087 12.2231 186.071 12.3232 186.055 12.4275C186.039 12.636 186.006 12.8404 186.006 13.0489C185.982 13.466 186.014 13.8832 186.071 14.2961C186.208 15.1261 186.474 15.898 186.861 16.5969C187.232 17.2949 187.708 17.913 188.232 18.4454C189.289 19.5066 190.523 20.2324 191.741 20.6916C192.975 21.1398 194.16 21.3366 195.217 21.4291C196.282 21.5183 197.225 21.5064 198.008 21.4837C198.782 21.4526 199.411 21.4139 199.839 21.3828C200.266 21.3517 200.5 21.3324 200.5 21.3324C200.5 21.3324 200.266 21.3173 199.839 21.2861C199.411 21.2559 198.782 21.213 198.016 21.1356C197.242 21.0591 196.322 20.9505 195.314 20.7386C194.306 20.5258 193.209 20.1979 192.152 19.6731C191.104 19.14 190.079 18.3756 189.281 17.4068C188.886 16.9249 188.547 16.3917 188.305 15.8249C188.232 15.6853 188.184 15.539 188.127 15.3919C188.079 15.2489 188.039 15.0992 187.998 14.952C187.95 14.809 187.934 14.6551 187.902 14.508C187.869 14.3574 187.861 14.2112 187.845 14.064C187.756 12.8866 188.103 11.6597 188.757 10.8414C188.837 10.7329 188.926 10.6446 189.015 10.5513C189.055 10.5016 189.103 10.463 189.152 10.4209C189.2 10.3822 189.241 10.3318 189.289 10.3007C189.386 10.2275 189.482 10.1468 189.579 10.0921C189.636 10.0618 189.684 10.0265 189.733 9.99962L189.886 9.93064C190.273 9.74142 190.733 9.68339 191.168 9.7103C191.604 9.73721 192.015 9.86086 192.346 10.0383C192.685 10.2157 192.943 10.4478 193.128 10.6909C193.168 10.7523 193.201 10.8179 193.249 10.8801C193.273 10.907 193.281 10.9414 193.298 10.9759C193.314 11.007 193.33 11.0382 193.346 11.0693C193.41 11.1963 193.443 11.3047 193.467 11.4275C193.515 11.6714 193.507 11.9263 193.459 12.1651C193.37 12.6478 193.152 13.0531 192.935 13.3424C192.717 13.6359 192.491 13.8293 192.305 13.9597C192.112 14.0951 191.951 14.1766 191.822 14.2422C191.749 14.2809 191.692 14.3036 191.636 14.3381C191.588 14.3617 191.539 14.3928 191.499 14.4197C191.338 14.5239 191.273 14.6585 191.241 14.809Z" fill="#E5E5E5"/>
<path d="M195.5 14.5C199.669 14.0854 203.835 13.8662 208.001 13.7229C210.084 13.6271 212.167 13.6072 214.253 13.556L220.502 13.5L226.75 13.5512L231.439 13.6594L232.999 13.7191C237.168 13.8662 241.334 14.0816 245.5 14.5C241.334 14.9137 237.168 15.1337 232.999 15.2808L231.439 15.3405L226.75 15.4477L220.502 15.5L214.253 15.4439C212.167 15.388 210.084 15.3681 208.001 15.277C203.835 15.129 199.669 14.9137 195.5 14.5Z" fill="#E5E5E5"/>
</svg>
